<svg xmlns="http://www.w3.org/2000/svg" width="72.639" height="74" viewBox="0 0 72.639 74"><g id="barba-etapa-01" transform="translate(-178 -2003.289)"><rect id="Ret&#xE2;ngulo_536" data-name="Ret&#xE2;ngulo 536" width="72.639" height="74" rx="14" transform="translate(178 2003.289)" fill="#638796"></rect><path id="Subtra&#xE7;&#xE3;o_5" data-name="Subtra&#xE7;&#xE3;o 5" d="M6.367,47.871A6.382,6.382,0,0,1,2.158,46.25,6.213,6.213,0,0,1,.052,42.289a10.339,10.339,0,0,1,1.71-6.507l.2-.343.029-.05A10.6,10.6,0,0,0,3.1,33.114c.055-.183.182-.767.469-2.508l.013-.076a51.4,51.4,0,0,1,1.4-5.826c.124-.421.642-2.1.713-2.319.65-2.007,1.4-4,2.241-5.933.146-.335.987-2.194,1.064-2.356,1.054-2.217,4.819-8.145,4.953-8.322A28.377,28.377,0,0,1,19.143.407l.051-.037c.022-.016.043-.031.064-.048A1.174,1.174,0,0,1,19.983,0a.822.822,0,0,1,.6.293c.352.374.321.778-.1,1.272a41.648,41.648,0,0,0-3.362,4.607L15.6,8.68a52.869,52.869,0,0,0-2.825,5.911c-.034.084-.8,2.06-.905,2.439-.126.466-.275.945-.406,1.367-.146.467-.3.95-.425,1.436-.258.973-1,4.926-1.058,5.348a40.791,40.791,0,0,0-.307,5.281A18.017,18.017,0,0,0,9.994,33.3a13.235,13.235,0,0,0,1.2,2.42,10.526,10.526,0,0,1,1.559,6.2,6.428,6.428,0,0,1-6.188,5.95C6.5,47.87,6.435,47.871,6.367,47.871Zm3.765-31.38c-.89.661-2.27,2.774-3.783,9.09-.886,3.7-1.418,7.2-1.44,7.351a.241.241,0,0,0,.032.044.49.49,0,0,0-.1.223,11.742,11.742,0,0,1-1.525,3.314l-.067.113-.131.222a8.418,8.418,0,0,0-1.406,4.859A4.7,4.7,0,0,0,6.35,46.156c.083,0,.167,0,.25-.007a4.592,4.592,0,0,0,3.245-1.563,5.2,5.2,0,0,0,1.212-3.6,8.071,8.071,0,0,0-1.18-4.126l-.137-.235a15.533,15.533,0,0,1-1.29-2.566c-.033-.147-.07-.3-.109-.453a13.37,13.37,0,0,1-.368-2.8,2.108,2.108,0,0,0,.016-.444c-.016-.335-.023-.677-.022-1.046A54.412,54.412,0,0,1,9.5,18.972c.166-.6.348-1.223.555-1.893a.121.121,0,0,1,.009-.023l-.012,0-.066-.022C10.075,16.691,10.13,16.5,10.132,16.491Zm.907-.674-.878.651L11,15.845Z" transform="translate(206.252 2015.271)" fill="#fff"></path></g></svg>