<svg xmlns="http://www.w3.org/2000/svg" xmlns:xlink="http://www.w3.org/1999/xlink" width="72.639" height="74" viewBox="0 0 72.639 74"><defs><clipPath id="clip-path"><rect id="Ret&#xE2;ngulo_733" data-name="Ret&#xE2;ngulo 733" width="44.801" height="36.005" fill="#fff"></rect></clipPath></defs><g id="barba-etapa-03" transform="translate(-1282 -2003.289)"><rect id="Ret&#xE2;ngulo_765" data-name="Ret&#xE2;ngulo 765" width="72.639" height="74" rx="14" transform="translate(1282 2003.289)" fill="#638796"></rect><g id="Grupo_291" data-name="Grupo 291" transform="translate(864.983 -676.018)"><g id="Grupo_272" data-name="Grupo 272" transform="translate(430.935 2698.304)"><g id="Grupo_271" data-name="Grupo 271" transform="translate(0)" clip-path="url(#clip-path)"><path id="Caminho_425" data-name="Caminho 425" d="M34.722,198.018l-1.75,1.3a1.452,1.452,0,0,1-1.324.215l-6.876,4.249a.821.821,0,0,1-1.013-1.279l5.671-5.681.022-.272a1.455,1.455,0,0,1,.584-1.053l1.621-1.2ZM24.213,202.96a.18.18,0,0,0,.222.28l7.137-4.411.258.092a.812.812,0,0,0,.758-.114l1.21-.9-2.25-2.73-1.132.839a.815.815,0,0,0-.327.589l-.04.507Z" transform="translate(-20.589 -170.093)" fill="#fff"></path><path id="Caminho_426" data-name="Caminho 426" d="M22.153,201.225a1.133,1.133,0,0,1-.8-1.934l5.59-5.6.012-.158a1.769,1.769,0,0,1,.709-1.279l1.859-1.378,3.463,4.2-2.013,1.5a1.768,1.768,0,0,1-1.462.3l-6.76,4.178a1.13,1.13,0,0,1-.6.17m7.263-9.5-1.383,1.025a1.145,1.145,0,0,0-.459.828l-.031.386-5.752,5.763a.51.51,0,0,0,.629.794l7-4.326.138.045a1.144,1.144,0,0,0,1.04-.169l1.488-1.108Zm-7.263,8.854a.492.492,0,0,1-.348-.839l5.756-5.767.031-.393a1.125,1.125,0,0,1,.451-.815l1.369-1.015,2.647,3.211-1.473,1.1a1.124,1.124,0,0,1-1.048.158l-.118-.042-7.01,4.332a.49.49,0,0,1-.258.074m7.156-7.976-.894.663a.5.5,0,0,0-.2.364l-.049.622-5.125,5.135,6.309-3.9.4.142a.5.5,0,0,0,.468-.07l.948-.706Z" transform="translate(-18.402 -167.097)" fill="#fff"></path><path id="Caminho_427" data-name="Caminho 427" d="M112.015,56.22,96,68.717l-6.377,3.775-.35-.536L95.631,68.2,111.62,55.714a.655.655,0,0,0,.015-.915L109.1,51.553a.656.656,0,0,0-.892-.207L92.116,63.909l-5.086,5.31-.439-.465L91.7,63.422l16.118-12.581a1.246,1.246,0,0,1,1.695.394l2.534,3.246a1.246,1.246,0,0,1-.029,1.74" transform="translate(-75.803 -44.337)" fill="#fff"></path><path id="Caminho_428" data-name="Caminho 428" d="M86.508,70.719l-.691-1.058,6.617-3.917,15.973-12.468a.226.226,0,0,0,.072-.175.5.5,0,0,0-.111-.3l-2.534-3.246a.5.5,0,0,0-.268-.181.226.226,0,0,0-.187.028L89.3,61.948l-5.3,5.53-.868-.918,5.345-5.576L104.6,48.4a1.3,1.3,0,0,1,1.116-.221,1.833,1.833,0,0,1,1.016.668l2.534,3.246a1.832,1.832,0,0,1,.4,1.148,1.3,1.3,0,0,1-.485,1.029h0L93.159,66.783l-.017.01Zm.187-.853.009.014,6.1-3.613L108.8,53.782a.6.6,0,0,0,.177-.227.785.785,0,0,1-.188.213l-16,12.493-.017.01ZM84,66.563l.011.012,4.875-5.09.018-.014L105,48.908a.782.782,0,0,1,.252-.131.6.6,0,0,0-.263.116l-16.1,12.568Z" transform="translate(-72.782 -42.144)" fill="#fff"></path><path id="Caminho_429" data-name="Caminho 429" d="M273.99,37.748l-3.74,2.919-2.451-3.14,3.74-2.919Zm-3.747,2.112,2.965-2.314-1.662-2.129-2.965,2.314Z" transform="translate(-234.436 -30.296)" fill="#fff"></path><path id="Caminho_430" data-name="Caminho 430" d="M267.124,38.033,264.29,34.4l4.231-3.3,2.834,3.631Zm.1-.889.011.014,3.249-2.536-.011-.014Zm-1.274-2.432,1.279,1.638,2.474-1.931-1.279-1.638Zm-.782-.2.011.014,3.249-2.536-.011-.014Z" transform="translate(-231.364 -27.225)" fill="#fff"></path><path id="Caminho_431" data-name="Caminho 431" d="M299.133,8.418l-2.725,2.127a1.324,1.324,0,0,1-1.857-.229L291.8,6.794a1.324,1.324,0,0,1,.229-1.857l2.725-2.127a1.461,1.461,0,0,1,2.048.252l2.582,3.308a1.461,1.461,0,0,1-.252,2.048m-6.708-2.975a.682.682,0,0,0-.118.957l2.75,3.523a.682.682,0,0,0,.957.118l2.725-2.127a.819.819,0,0,0,.142-1.148L296.3,3.457a.819.819,0,0,0-1.148-.142Z" transform="translate(-255.203 -2.19)" fill="#fff"></path><path id="Caminho_432" data-name="Caminho 432" d="M293.41,8.946a1.649,1.649,0,0,1-.2-.013,1.623,1.623,0,0,1-1.088-.616l-2.75-3.523A1.636,1.636,0,0,1,289.65,2.5L292.376.374a1.772,1.772,0,0,1,2.485.306l2.582,3.308a1.772,1.772,0,0,1-.306,2.485h0L294.411,8.6a1.62,1.62,0,0,1-1,.346m.053-8.323a1.138,1.138,0,0,0-.7.243l-2.725,2.127a1.013,1.013,0,0,0-.175,1.419l2.75,3.522a1.013,1.013,0,0,0,1.419.175l2.725-2.127a1.149,1.149,0,0,0,.2-1.611L294.37,1.063a1.14,1.14,0,0,0-.764-.432,1.183,1.183,0,0,0-.143-.009M293.408,8.3a1.014,1.014,0,0,1-.124-.008.986.986,0,0,1-.661-.374L289.873,4.4a.994.994,0,0,1,.172-1.394L292.77.879a1.13,1.13,0,0,1,1.585.2l2.582,3.307a1.131,1.131,0,0,1-.2,1.585l-2.725,2.127a.984.984,0,0,1-.609.21m.056-7.042a.5.5,0,0,0-.31.107L290.428,3.5a.371.371,0,0,0-.064.52l2.75,3.523a.371.371,0,0,0,.52.064l2.725-2.127a.507.507,0,0,0,.087-.711l-2.582-3.308a.5.5,0,0,0-.337-.191.517.517,0,0,0-.063,0" transform="translate(-253.015 0.001)" fill="#fff"></path><path id="Caminho_433" data-name="Caminho 433" d="M2.85,263.9.208,265.965a.539.539,0,1,0,.664.85l2.643-2.063a.539.539,0,1,0-.664-.85" transform="translate(0 -230.925)" fill="#fff"></path></g></g></g></g></svg>