<svg xmlns="http://www.w3.org/2000/svg" xmlns:xlink="http://www.w3.org/1999/xlink" width="72.639" height="74" viewBox="0 0 72.639 74"><defs><clipPath id="clip-path"><rect id="Ret&#xE2;ngulo_767" data-name="Ret&#xE2;ngulo 767" width="36.446" height="50.568" fill="#fff"></rect></clipPath></defs><g id="barba-etapa-02" transform="translate(-730 -2003.289)"><rect id="Ret&#xE2;ngulo_763" data-name="Ret&#xE2;ngulo 763" width="72.639" height="74" rx="14" transform="translate(730 2003.289)" fill="#638796"></rect><g id="Grupo_300" data-name="Grupo 300" transform="translate(748.096 2015.271)"><g id="Grupo_299" data-name="Grupo 299" clip-path="url(#clip-path)"><path id="Caminho_500" data-name="Caminho 500" d="M22.009,21.138c-.745,1.31-1.485,2.61-2.224,3.909-.34.6-.675,1.2-1.018,1.8-.38.662-.669.736-1.348.359-.2-.109-.391-.219-.624-.35-.107.175-.218.343-.317.518-.613,1.078-1.219,2.16-1.837,3.235a.765.765,0,0,1-1.2.36q-2.994-1.687-5.975-3.4c-.5-.285-.581-.652-.285-1.18.7-1.246,1.41-2.486,2.137-3.765l-.712-.421c-.572-.336-.668-.652-.341-1.232q1.979-3.511,3.968-7.015,2.153-3.8,4.311-7.592c.4-.7.663-.773,1.376-.375l.891.5L20.172,4.1c-.151-.092-.3-.17-.433-.268a.7.7,0,0,1-.262-.988c.46-.828.919-1.657,1.4-2.47.262-.439.638-.488,1.166-.19Q24.79,1.738,27.529,3.3c.659.373,1.323.738,1.978,1.119.564.329.65.663.329,1.243-.342.618-.694,1.23-1.041,1.845-.541.957-.654,1-1.72.552l-1.339,2.352c.358.208.7.4,1.029.6a.753.753,0,0,1,.319,1.171c-.459.828-.933,1.648-1.4,2.461a3.034,3.034,0,0,0,1.573,1.157A13.143,13.143,0,0,1,36.324,26.96a13.44,13.44,0,0,1-8.914,14.424c-.128.045-.252.1-.445.176.24.706.462,1.4.727,2.084.038.1.284.157.434.159,1.121.013,2.242,0,3.364.009.666,0,.906.24.907.9q.006,2.459,0,4.917c0,.734-.226.941-1.02.941H8.658q-3.829,0-7.659,0c-.808,0-1-.192-1-1.006q0-2.355,0-4.71c0-.875.169-1.039,1.068-1.039,3.847,0,7.694-.016,11.54.017a.8.8,0,0,0,.925-.682c.28-.935.622-1.85.957-2.828H10.712c-1.121,0-2.243,0-3.364,0-.742,0-.94-.2-.944-.959,0-.863,0-1.725,0-2.588,0-.887.178-1.068,1.056-1.069q3.829,0,7.659,0H23.6c1.262,0,1.262,0,1.771,1.195.417-.168.847-.318,1.257-.511a8.626,8.626,0,0,0-.648-15.839.6.6,0,0,0-.465-.007,3.9,3.9,0,0,1-3.509.6M17.581,7.483,9.8,21.2l7.94,4.5,2.976-5.254a.636.636,0,0,0-.055-.1,3.833,3.833,0,0,1-.789-4.593,3.79,3.79,0,0,1,4.263-1.873.4.4,0,0,0,.349-.108c.353-.582.68-1.18,1.026-1.792l-7.933-4.5m13.33,37.808H1.476v3.8H30.911Zm-4.782-1.53a1.858,1.858,0,0,0-.043-.253c-.691-2.01-1.39-4.018-2.071-6.031-.106-.312-.314-.3-.562-.3-1.949,0-3.9.011-5.847-.006a.541.541,0,0,0-.627.425c-.584,1.741-1.194,3.473-1.794,5.208-.1.3-.2.606-.322.958Zm-.277-5.449c.169.492.354.953.483,1.431.1.374.272.379.6.268a12.119,12.119,0,0,0,8.049-10.877,11.927,11.927,0,0,0-4.526-9.97,10.545,10.545,0,0,0-3.358-1.889l-.4,1.932c4.079,1.934,6.41,5.145,6.26,9.722-.152,4.65-2.743,7.71-7.1,9.383M10.584,23.345,8.729,26.62l4.919,2.786L15.5,26.135l-4.915-2.79m14.9-5.807a2.231,2.231,0,0,0-2.27-2.3,2.3,2.3,0,1,0,0,4.6,2.243,2.243,0,0,0,2.265-2.306M21.441,4.819,20.094,7.2l4.376,2.48,1.348-2.378L21.441,4.819M7.889,38.866c2.315,0,4.585,0,6.855-.008a.387.387,0,0,0,.292-.194c.185-.47.34-.951.519-1.467H7.889ZM28.307,5.412l-6.519-3.7-.681,1.206,6.51,3.691.69-1.2" transform="translate(0 0)" fill="#fff"></path></g></g></g></svg>