<svg xmlns="http://www.w3.org/2000/svg" xmlns:xlink="http://www.w3.org/1999/xlink" width="51.707" height="80.263" viewBox="0 0 51.707 80.263"><defs><clipPath id="clip-path"><rect id="Ret&#xE2;ngulo_181" data-name="Ret&#xE2;ngulo 181" width="51.707" height="80.263" fill="none"></rect></clipPath></defs><g id="cabeca" transform="translate(0)"><g id="Grupo_95" data-name="Grupo 95" transform="translate(0)" clip-path="url(#clip-path)"><path id="Caminho_83" data-name="Caminho 83" d="M40.918,66.421c-2.614,1.274-5.187,2.549-7.779,3.787a16.507,16.507,0,0,1-14.924-.139c-2.226-1.066-4.446-2.144-6.691-3.228.012.21.028.485.045.76a33.1,33.1,0,0,1-1,11.146c-.079.276-.193.543-.284.816-.149.446-.37.847-.921.645s-.42-.668-.276-1.095a30.746,30.746,0,0,0,1.049-13,1.422,1.422,0,0,0-.438-.865A24.459,24.459,0,0,1,1.114,48.44,173.676,173.676,0,0,1,.075,24.679a43.933,43.933,0,0,1,1.55-11.455C2.943,8.919,5.36,5.511,9.687,3.759a14.253,14.253,0,0,1,6.964-.881,2.637,2.637,0,0,0,.916-.082c1.557-.4,3.108-.827,4.662-1.242a1.989,1.989,0,0,0,.585-.142A4.036,4.036,0,0,1,26.83.9c.133.054.373-.069.529-.165a3.611,3.611,0,0,1,5.363,1.1c.061.091.128.224.215.246a12.859,12.859,0,0,0,3.009.686c7.222-.026,12.024,3.482,14.143,10.48a42.969,42.969,0,0,1,1.519,10.938A159.2,159.2,0,0,1,50.4,49.843,23.808,23.808,0,0,1,43.03,64.366a2.582,2.582,0,0,0-.7,1.466,34.035,34.035,0,0,0,.49,11.528c.15.643.431,1.259.544,1.907.051.291-.163.629-.257.945-.306-.178-.829-.306-.884-.543a46.2,46.2,0,0,1-1.253-6.246c-.213-2.365-.049-4.764-.049-7M21.561,2.836C20.267,3.26,19.168,3.585,18.1,4a1.094,1.094,0,0,0-.534.732C17.344,5.944,17.276,7.194,17,8.4,15.94,12.93,13.881,16.833,9.731,19.3a10.046,10.046,0,0,0-5.179,9.248c0,3.982-.007,7.965.011,11.947a13.55,13.55,0,0,0,.183,2.238c.916,5.309,5.684,9.393,11.2,8.354a37.46,37.46,0,0,0,4.891-1.41,14.868,14.868,0,0,1,7.838-.606c1.656.344,3.263.936,4.882,1.444a11.285,11.285,0,0,0,6.124.5,10.244,10.244,0,0,0,7.635-9.774c.071-4.385.063-8.773.011-13.159a9.842,9.842,0,0,0-4.951-8.678A16.275,16.275,0,0,1,39.2,16.9c-3.229-3.405-4.477-7.653-4.835-12.209-.056-.706-.233-1.065-.924-1.146-.25-.029-.5-.091-.7-.129A54.894,54.894,0,0,0,26.166,14.73c-.228.48-.28,1.311-1.052,1.155s-.645-.961-.64-1.529c.017-1.77.108-3.54.17-5.31a28.025,28.025,0,0,0-2.592,4.18c-.721,1.47-1.24,3.038-1.9,4.54-.123.281-.486.458-.739.682a8.925,8.925,0,0,1-.588-.838,1.19,1.19,0,0,1-.054-.511A28.567,28.567,0,0,1,21.561,2.836m14.1,1.248a2.529,2.529,0,0,0-.045.4c.094.8.149,1.611.3,2.4.942,4.989,3.07,9.15,7.667,11.852a9.785,9.785,0,0,1,4.936,8.38c.179,4.753.083,9.518.053,14.278a10.818,10.818,0,0,1-.405,2.64,10.874,10.874,0,0,1-11.376,8.4,27.134,27.134,0,0,1-5.754-1.452,14.16,14.16,0,0,0-7.314-.712c-1.683.364-3.324.93-4.97,1.45a12.484,12.484,0,0,1-6.976.488A11.347,11.347,0,0,1,3.37,41.84c-.15-4.784-.14-9.58-.017-14.366A10.054,10.054,0,0,1,8.386,18.7a15.352,15.352,0,0,0,7.159-9.859c.393-1.514.581-3.08.88-4.716A12.634,12.634,0,0,0,8.794,5.569c-3.36,1.9-5.124,4.98-6.107,8.565a50.112,50.112,0,0,0-1.4,12.347A172.381,172.381,0,0,0,2.46,48.847,23.022,23.022,0,0,0,8.843,62.715c3.444,3.571,7.857,5.462,12.4,7.133a13.071,13.071,0,0,0,9.468-.085c1.907-.73,3.805-1.51,5.633-2.418a22.1,22.1,0,0,0,12.818-18.08c.634-5.32.951-10.687,1.2-16.042a76.611,76.611,0,0,0-.8-16.653c-.622-3.591-1.826-6.922-4.6-9.463a12.2,12.2,0,0,0-9.3-3.024M25.616,12.415c.2-.108.275-.122.295-.161a52.415,52.415,0,0,1,5.478-9.184.845.845,0,0,0-.242-1.283,2.408,2.408,0,0,0-2.972-.012c-.712.743-1.28.944-2.077.226-.126-.114-.386-.088-.586-.108A2.905,2.905,0,0,0,22.6,3.675C20.762,6.9,20.3,10.462,20.116,14.09a2.64,2.64,0,0,0,.362-.573c.862-1.527,1.656-3.1,2.622-4.559a13.174,13.174,0,0,1,2.133-2.243,1.006,1.006,0,0,1,.913-.181c.19.1.217.571.246.885a2.991,2.991,0,0,1-.123.677c-.214,1.4-.424,2.81-.651,4.321" transform="translate(0 0)" fill="#6e92a0"></path><path id="Caminho_84" data-name="Caminho 84" d="M58.335,158.633c2.813.289,5.018.5,7.22.749a1.149,1.149,0,0,1,1.107,1.372,16.184,16.184,0,0,1-.288,2.049,1.211,1.211,0,0,1-1.461,1.027q-5.482-.67-10.961-1.371a1.319,1.319,0,0,1-1.265-1.211,1.249,1.249,0,0,1,.954-1.453c1.736-.47,3.492-.868,4.692-1.162M54.1,161.187l11.058,1.38.258-1.941c-3.838-.266-7.61-1.353-11.315.56" transform="translate(-43.54 -131.12)" fill="#6e92a0"></path><path id="Caminho_85" data-name="Caminho 85" d="M177.486,161.922c.032-.711.352-1.233,1.052-1.288,2.747-.215,5.5-.492,8.249-.507a13.989,13.989,0,0,1,3.668.869,1.289,1.289,0,0,1,1.025,1.49,1.341,1.341,0,0,1-1.345,1.221q-4.281.539-8.563,1.064-1.071.133-2.14.273a1.311,1.311,0,0,1-1.676-1.265c-.1-.625-.182-1.252-.27-1.859m12.866.468c-3.961-1.9-7.751-.788-11.6-.528l.306,1.969,11.29-1.441" transform="translate(-146.703 -132.356)" fill="#6e92a0"></path><path id="Caminho_86" data-name="Caminho 86" d="M137.188,264.329c-.883-.317-1.725-.57-2.514-.937-.208-.1-.252-.548-.37-.836.32-.081.73-.331.947-.216a3.873,3.873,0,0,0,3.862,0c.219-.115.627.131.948.211-.114.288-.151.741-.355.835-.789.367-1.632.62-2.518.938" transform="translate(-111.01 -216.816)" fill="#6e92a0"></path><path id="Caminho_87" data-name="Caminho 87" d="M128.905,312.753c.8.237,2.308.671,3.807,1.129.469.143.814.507.5.961a1.088,1.088,0,0,1-1.012.163,8.919,8.919,0,0,0-8,.035c-.229.115-.634-.123-.957-.2.138-.306.192-.753.429-.9a10.34,10.34,0,0,1,5.229-1.2" transform="translate(-101.871 -258.51)" fill="#6e92a0"></path></g></g></svg>