<svg xmlns="http://www.w3.org/2000/svg" xmlns:xlink="http://www.w3.org/1999/xlink" width="72.639" height="74" viewBox="0 0 72.639 74"><defs><clipPath id="clip-path"><rect id="Ret&#xE2;ngulo_187" data-name="Ret&#xE2;ngulo 187" width="35.918" height="32.806" fill="#638796"></rect></clipPath></defs><g id="calendario2" transform="translate(-647.681 -6099)"><rect id="Ret&#xE2;ngulo_560" data-name="Ret&#xE2;ngulo 560" width="72.639" height="74" rx="14" transform="translate(647.681 6099)" fill="#fff"></rect><g id="Grupo_102" data-name="Grupo 102" transform="translate(666.681 6120)"><g id="Grupo_101" data-name="Grupo 101" transform="translate(0)" clip-path="url(#clip-path)"><path id="Caminho_95" data-name="Caminho 95" d="M9.235,1.792C9.349.474,9.665.011,10.429,0a1.027,1.027,0,0,1,1.018.57,6.786,6.786,0,0,1,.3,1.2H24.263c0-.18-.006-.361,0-.541a1.2,1.2,0,1,1,2.391.023c0,.16,0,.32,0,.538h.417c1.247,0,2.493,0,3.74,0a5.032,5.032,0,0,1,5.1,5.089q.01,10.416,0,20.832A5.012,5.012,0,0,1,30.821,32.8q-12.866.009-25.732,0A5.01,5.01,0,0,1,0,27.705Q0,17.308,0,6.911A5.035,5.035,0,0,1,5.112,1.792c1.234,0,2.468,0,3.7,0ZM2.4,12.055v.407q0,7.579,0,15.158A2.653,2.653,0,0,0,5.238,30.47H30.672a2.652,2.652,0,0,0,2.849-2.843q0-7.579,0-15.158v-.414ZM33.521,9.627c0-.92,0-1.814,0-2.707a2.64,2.64,0,0,0-2.73-2.737c-1.259-.005-2.519,0-3.778,0-.108,0-.216.013-.357.022,0,.194,0,.366,0,.538a1.2,1.2,0,0,1-1.184,1.23,1.208,1.208,0,0,1-1.206-1.219c-.008-.181,0-.364,0-.542H11.672c-.014.266-.006.5-.042.736a1.188,1.188,0,0,1-2.364-.141c-.008-.2,0-.392,0-.6-.126-.009-.21-.021-.294-.021-1.309,0-2.619-.009-3.928,0a2.563,2.563,0,0,0-2.608,2.3c-.094,1.033-.019,2.082-.019,3.143Z" transform="translate(0 0)" fill="#638796"></path></g></g></g></svg>