<svg xmlns="http://www.w3.org/2000/svg" xmlns:xlink="http://www.w3.org/1999/xlink" width="107.687" height="109.248" viewBox="0 0 107.687 109.248"><defs><clipPath id="clip-path"><rect id="Ret&#xE2;ngulo_733" data-name="Ret&#xE2;ngulo 733" width="60.098" height="48.298" fill="#fff"></rect></clipPath></defs><g id="choi_icone1" transform="translate(-416 -2677)"><rect id="Ret&#xE2;ngulo_724" data-name="Ret&#xE2;ngulo 724" width="107.687" height="109.248" rx="21" transform="translate(416 2677)" fill="#638796"></rect><g id="Grupo_291" data-name="Grupo 291" transform="translate(0.064 -1.305)"><g id="Grupo_272" data-name="Grupo 272" transform="translate(430.936 2698.304)"><g id="Grupo_271" data-name="Grupo 271" transform="translate(0)" clip-path="url(#clip-path)"><path id="Caminho_425" data-name="Caminho 425" d="M38.547,199.288,36.2,201.037a1.947,1.947,0,0,1-1.776.288l-9.224,5.7a1.1,1.1,0,0,1-1.359-1.715l7.607-7.621.029-.365a1.952,1.952,0,0,1,.783-1.413l2.174-1.611Zm-14.1,6.629a.242.242,0,0,0,.3.376l9.574-5.917.347.123a1.089,1.089,0,0,0,1.017-.153l1.623-1.209-3.019-3.662L32.772,196.6a1.093,1.093,0,0,0-.438.79l-.054.681Z" transform="translate(-19.589 -161.828)" fill="#fff"></path><path id="Caminho_426" data-name="Caminho 426" d="M22.539,204.758a1.52,1.52,0,0,1-1.076-2.594l7.5-7.512.017-.212a2.372,2.372,0,0,1,.951-1.716l2.493-1.848,4.645,5.634-2.7,2.011a2.371,2.371,0,0,1-1.961.405l-9.068,5.6a1.516,1.516,0,0,1-.8.228m9.743-12.737L30.427,193.4a1.536,1.536,0,0,0-.616,1.111l-.041.518-7.716,7.73a.684.684,0,0,0,.843,1.065l9.389-5.8.185.061a1.535,1.535,0,0,0,1.4-.227l2-1.486ZM22.539,203.9a.66.66,0,0,1-.467-1.126l7.722-7.736.042-.527a1.51,1.51,0,0,1,.606-1.093l1.837-1.362,3.55,4.307-1.975,1.471a1.507,1.507,0,0,1-1.406.212l-.158-.056-9.4,5.811a.657.657,0,0,1-.346.1m9.6-10.7-1.2.889a.673.673,0,0,0-.27.488l-.066.834L23.728,202.3l8.463-5.23.535.19a.673.673,0,0,0,.628-.094l1.271-.947Z" transform="translate(-17.507 -158.978)" fill="#fff"></path><path id="Caminho_427" data-name="Caminho 427" d="M120.7,58.123,99.219,74.887l-8.555,5.064-.47-.719,8.524-5.045,21.448-16.742a.879.879,0,0,0,.021-1.228l-3.4-4.354a.879.879,0,0,0-1.2-.278L94,68.437,87.18,75.56l-.589-.624,6.851-7.152,21.622-16.877a1.671,1.671,0,0,1,2.273.528l3.4,4.354a1.671,1.671,0,0,1-.039,2.333" transform="translate(-72.12 -42.182)" fill="#fff"></path><path id="Caminho_428" data-name="Caminho 428" d="M87.658,78.428l-.927-1.419,8.877-5.254L117.035,55.03a.3.3,0,0,0,.1-.234.665.665,0,0,0-.149-.407l-3.4-4.354a.665.665,0,0,0-.359-.243.3.3,0,0,0-.251.037L91.409,66.662,84.3,74.08,83.14,72.849l7.17-7.48,21.621-16.877a1.742,1.742,0,0,1,1.5-.3,2.459,2.459,0,0,1,1.363.9l3.4,4.354a2.458,2.458,0,0,1,.539,1.54,1.742,1.742,0,0,1-.65,1.38h0L96.58,73.147l-.023.014Zm.25-1.145.012.018,8.188-4.846,21.456-16.748a.8.8,0,0,0,.237-.305,1.053,1.053,0,0,1-.252.286L96.08,72.447l-.023.014Zm-3.615-4.431.015.016,6.54-6.828.024-.019,21.59-16.852a1.049,1.049,0,0,1,.338-.176.808.808,0,0,0-.353.156l-21.6,16.859Z" transform="translate(-69.246 -40.097)" fill="#fff"></path><path id="Caminho_429" data-name="Caminho 429" d="M276.1,38.82l-5.017,3.916L267.8,38.524l5.017-3.916Zm-5.026,2.833,3.977-3.1-2.229-2.856-3.977,3.1Z" transform="translate(-223.045 -28.824)" fill="#fff"></path><path id="Caminho_430" data-name="Caminho 430" d="M268.092,40.4l-3.8-4.871,5.676-4.431,3.8,4.871Zm.13-1.192.015.019,4.358-3.4-.015-.019Zm-1.709-3.262,1.715,2.2,3.319-2.591-1.715-2.2Zm-1.049-.272.015.019,4.358-3.4-.015-.019Z" transform="translate(-220.122 -25.902)" fill="#fff"></path><path id="Caminho_431" data-name="Caminho 431" d="M301.731,10.438l-3.656,2.854a1.776,1.776,0,0,1-2.49-.307L291.9,8.259a1.777,1.777,0,0,1,.307-2.491l3.656-2.854a1.96,1.96,0,0,1,2.747.339L302.07,7.69a1.96,1.96,0,0,1-.339,2.747m-9-3.991a.915.915,0,0,0-.158,1.283l3.689,4.725a.915.915,0,0,0,1.283.158L301.2,9.76a1.1,1.1,0,0,0,.19-1.54l-3.463-4.437a1.1,1.1,0,0,0-1.54-.19Z" transform="translate(-242.803 -2.083)" fill="#fff"></path><path id="Caminho_432" data-name="Caminho 432" d="M294.908,12a2.212,2.212,0,0,1-.273-.017,2.177,2.177,0,0,1-1.46-.826l-3.689-4.725a2.195,2.195,0,0,1,.379-3.077L293.521.5a2.377,2.377,0,0,1,3.334.411l3.463,4.437a2.378,2.378,0,0,1-.411,3.334h0l-3.656,2.854a2.174,2.174,0,0,1-1.344.464M294.978.835a1.527,1.527,0,0,0-.943.325l-3.656,2.854a1.358,1.358,0,0,0-.234,1.9l3.689,4.725a1.359,1.359,0,0,0,1.9.235l3.656-2.853a1.542,1.542,0,0,0,.266-2.161L296.2,1.427a1.529,1.529,0,0,0-1.025-.58,1.586,1.586,0,0,0-.192-.012m-.073,10.306a1.361,1.361,0,0,1-.166-.01,1.322,1.322,0,0,1-.887-.5L290.164,5.9a1.333,1.333,0,0,1,.23-1.87L294.05,1.18a1.516,1.516,0,0,1,2.126.262l3.463,4.437a1.517,1.517,0,0,1-.262,2.127l-3.656,2.854a1.32,1.32,0,0,1-.816.282m.075-9.446a.672.672,0,0,0-.416.144l-3.656,2.854a.5.5,0,0,0-.086.7l3.688,4.725a.5.5,0,0,0,.7.086l3.656-2.854a.681.681,0,0,0,.117-.954l-3.463-4.437a.675.675,0,0,0-.453-.256.694.694,0,0,0-.085-.005" transform="translate(-240.721 0.001)" fill="#fff"></path><path id="Caminho_433" data-name="Caminho 433" d="M3.823,263.941.279,266.708a.723.723,0,1,0,.89,1.141l3.545-2.767a.723.723,0,1,0-.89-1.14" transform="translate(0 -219.704)" fill="#fff"></path></g></g><g id="Grupo_273" data-name="Grupo 273" transform="translate(439.373 2709.273)"><g id="Grupo_271-2" data-name="Grupo 271" transform="translate(0)" clip-path="url(#clip-path)"><path id="Caminho_425-2" data-name="Caminho 425" d="M38.547,199.288,36.2,201.037a1.947,1.947,0,0,1-1.776.288l-9.224,5.7a1.1,1.1,0,0,1-1.359-1.715l7.607-7.621.029-.365a1.952,1.952,0,0,1,.783-1.413l2.174-1.611Zm-14.1,6.629a.242.242,0,0,0,.3.376l9.574-5.917.347.123a1.089,1.089,0,0,0,1.017-.153l1.623-1.209-3.019-3.662L32.772,196.6a1.093,1.093,0,0,0-.438.79l-.054.681Z" transform="translate(-19.589 -161.828)" fill="#fff"></path><path id="Caminho_426-2" data-name="Caminho 426" d="M22.539,204.758a1.52,1.52,0,0,1-1.076-2.594l7.5-7.512.017-.212a2.372,2.372,0,0,1,.951-1.716l2.493-1.848,4.645,5.634-2.7,2.011a2.371,2.371,0,0,1-1.961.405l-9.068,5.6a1.516,1.516,0,0,1-.8.228m9.743-12.737L30.427,193.4a1.536,1.536,0,0,0-.616,1.111l-.041.518-7.716,7.73a.684.684,0,0,0,.843,1.065l9.389-5.8.185.061a1.535,1.535,0,0,0,1.4-.227l2-1.486ZM22.539,203.9a.66.66,0,0,1-.467-1.126l7.722-7.736.042-.527a1.51,1.51,0,0,1,.606-1.093l1.837-1.362,3.55,4.307-1.975,1.471a1.507,1.507,0,0,1-1.406.212l-.158-.056-9.4,5.811a.657.657,0,0,1-.346.1m9.6-10.7-1.2.889a.673.673,0,0,0-.27.488l-.066.834L23.728,202.3l8.463-5.23.535.19a.673.673,0,0,0,.628-.094l1.271-.947Z" transform="translate(-17.507 -158.978)" fill="#fff"></path><path id="Caminho_427-2" data-name="Caminho 427" d="M120.7,58.123,99.219,74.887l-8.555,5.064-.47-.719,8.524-5.045,21.448-16.742a.879.879,0,0,0,.021-1.228l-3.4-4.354a.879.879,0,0,0-1.2-.278L94,68.437,87.18,75.56l-.589-.624,6.851-7.152,21.622-16.877a1.671,1.671,0,0,1,2.273.528l3.4,4.354a1.671,1.671,0,0,1-.039,2.333" transform="translate(-72.12 -42.182)" fill="#fff"></path><path id="Caminho_428-2" data-name="Caminho 428" d="M87.658,78.428l-.927-1.419,8.877-5.254L117.035,55.03a.3.3,0,0,0,.1-.234.665.665,0,0,0-.149-.407l-3.4-4.354a.665.665,0,0,0-.359-.243.3.3,0,0,0-.251.037L91.409,66.662,84.3,74.08,83.14,72.849l7.17-7.48,21.621-16.877a1.742,1.742,0,0,1,1.5-.3,2.459,2.459,0,0,1,1.363.9l3.4,4.354a2.458,2.458,0,0,1,.539,1.54,1.742,1.742,0,0,1-.65,1.38h0L96.58,73.147l-.023.014Zm.25-1.145.012.018,8.188-4.846,21.456-16.748a.8.8,0,0,0,.237-.305,1.053,1.053,0,0,1-.252.286L96.08,72.447l-.023.014Zm-3.615-4.431.015.016,6.54-6.828.024-.019,21.59-16.852a1.049,1.049,0,0,1,.338-.176.808.808,0,0,0-.353.156l-21.6,16.859Z" transform="translate(-69.246 -40.097)" fill="#fff"></path><path id="Caminho_429-2" data-name="Caminho 429" d="M276.1,38.82l-5.017,3.916L267.8,38.524l5.017-3.916Zm-5.026,2.833,3.977-3.1-2.229-2.856-3.977,3.1Z" transform="translate(-223.045 -28.824)" fill="#fff"></path><path id="Caminho_430-2" data-name="Caminho 430" d="M268.092,40.4l-3.8-4.871,5.676-4.431,3.8,4.871Zm.13-1.192.015.019,4.358-3.4-.015-.019Zm-1.709-3.262,1.715,2.2,3.319-2.591-1.715-2.2Zm-1.049-.272.015.019,4.358-3.4-.015-.019Z" transform="translate(-220.122 -25.902)" fill="#fff"></path><path id="Caminho_431-2" data-name="Caminho 431" d="M301.731,10.438l-3.656,2.854a1.776,1.776,0,0,1-2.49-.307L291.9,8.259a1.777,1.777,0,0,1,.307-2.491l3.656-2.854a1.96,1.96,0,0,1,2.747.339L302.07,7.69a1.96,1.96,0,0,1-.339,2.747m-9-3.991a.915.915,0,0,0-.158,1.283l3.689,4.725a.915.915,0,0,0,1.283.158L301.2,9.76a1.1,1.1,0,0,0,.19-1.54l-3.463-4.437a1.1,1.1,0,0,0-1.54-.19Z" transform="translate(-242.803 -2.083)" fill="#fff"></path><path id="Caminho_432-2" data-name="Caminho 432" d="M294.908,12a2.212,2.212,0,0,1-.273-.017,2.177,2.177,0,0,1-1.46-.826l-3.689-4.725a2.195,2.195,0,0,1,.379-3.077L293.521.5a2.377,2.377,0,0,1,3.334.411l3.463,4.437a2.378,2.378,0,0,1-.411,3.334h0l-3.656,2.854a2.174,2.174,0,0,1-1.344.464M294.978.835a1.527,1.527,0,0,0-.943.325l-3.656,2.854a1.358,1.358,0,0,0-.234,1.9l3.689,4.725a1.359,1.359,0,0,0,1.9.235l3.656-2.853a1.542,1.542,0,0,0,.266-2.161L296.2,1.427a1.529,1.529,0,0,0-1.025-.58,1.586,1.586,0,0,0-.192-.012m-.073,10.306a1.361,1.361,0,0,1-.166-.01,1.322,1.322,0,0,1-.887-.5L290.164,5.9a1.333,1.333,0,0,1,.23-1.87L294.05,1.18a1.516,1.516,0,0,1,2.126.262l3.463,4.437a1.517,1.517,0,0,1-.262,2.127l-3.656,2.854a1.32,1.32,0,0,1-.816.282m.075-9.446a.672.672,0,0,0-.416.144l-3.656,2.854a.5.5,0,0,0-.086.7l3.688,4.725a.5.5,0,0,0,.7.086l3.656-2.854a.681.681,0,0,0,.117-.954l-3.463-4.437a.675.675,0,0,0-.453-.256.694.694,0,0,0-.085-.005" transform="translate(-240.721 0.001)" fill="#fff"></path><path id="Caminho_433-2" data-name="Caminho 433" d="M3.823,263.941.279,266.708a.723.723,0,1,0,.89,1.141l3.545-2.767a.723.723,0,1,0-.89-1.14" transform="translate(0 -219.704)" fill="#fff"></path></g></g><g id="Grupo_274" data-name="Grupo 274" transform="translate(448.654 2719.397)"><g id="Grupo_271-3" data-name="Grupo 271" transform="translate(0)" clip-path="url(#clip-path)"><path id="Caminho_425-3" data-name="Caminho 425" d="M38.547,199.288,36.2,201.037a1.947,1.947,0,0,1-1.776.288l-9.224,5.7a1.1,1.1,0,0,1-1.359-1.715l7.607-7.621.029-.365a1.952,1.952,0,0,1,.783-1.413l2.174-1.611Zm-14.1,6.629a.242.242,0,0,0,.3.376l9.574-5.917.347.123a1.089,1.089,0,0,0,1.017-.153l1.623-1.209-3.019-3.662L32.772,196.6a1.093,1.093,0,0,0-.438.79l-.054.681Z" transform="translate(-19.589 -161.828)" fill="#fff"></path><path id="Caminho_426-3" data-name="Caminho 426" d="M22.539,204.758a1.52,1.52,0,0,1-1.076-2.594l7.5-7.512.017-.212a2.372,2.372,0,0,1,.951-1.716l2.493-1.848,4.645,5.634-2.7,2.011a2.371,2.371,0,0,1-1.961.405l-9.068,5.6a1.516,1.516,0,0,1-.8.228m9.743-12.737L30.427,193.4a1.536,1.536,0,0,0-.616,1.111l-.041.518-7.716,7.73a.684.684,0,0,0,.843,1.065l9.389-5.8.185.061a1.535,1.535,0,0,0,1.4-.227l2-1.486ZM22.539,203.9a.66.66,0,0,1-.467-1.126l7.722-7.736.042-.527a1.51,1.51,0,0,1,.606-1.093l1.837-1.362,3.55,4.307-1.975,1.471a1.507,1.507,0,0,1-1.406.212l-.158-.056-9.4,5.811a.657.657,0,0,1-.346.1m9.6-10.7-1.2.889a.673.673,0,0,0-.27.488l-.066.834L23.728,202.3l8.463-5.23.535.19a.673.673,0,0,0,.628-.094l1.271-.947Z" transform="translate(-17.507 -158.978)" fill="#fff"></path><path id="Caminho_427-3" data-name="Caminho 427" d="M120.7,58.123,99.219,74.887l-8.555,5.064-.47-.719,8.524-5.045,21.448-16.742a.879.879,0,0,0,.021-1.228l-3.4-4.354a.879.879,0,0,0-1.2-.278L94,68.437,87.18,75.56l-.589-.624,6.851-7.152,21.622-16.877a1.671,1.671,0,0,1,2.273.528l3.4,4.354a1.671,1.671,0,0,1-.039,2.333" transform="translate(-72.12 -42.182)" fill="#fff"></path><path id="Caminho_428-3" data-name="Caminho 428" d="M87.658,78.428l-.927-1.419,8.877-5.254L117.035,55.03a.3.3,0,0,0,.1-.234.665.665,0,0,0-.149-.407l-3.4-4.354a.665.665,0,0,0-.359-.243.3.3,0,0,0-.251.037L91.409,66.662,84.3,74.08,83.14,72.849l7.17-7.48,21.621-16.877a1.742,1.742,0,0,1,1.5-.3,2.459,2.459,0,0,1,1.363.9l3.4,4.354a2.458,2.458,0,0,1,.539,1.54,1.742,1.742,0,0,1-.65,1.38h0L96.58,73.147l-.023.014Zm.25-1.145.012.018,8.188-4.846,21.456-16.748a.8.8,0,0,0,.237-.305,1.053,1.053,0,0,1-.252.286L96.08,72.447l-.023.014Zm-3.615-4.431.015.016,6.54-6.828.024-.019,21.59-16.852a1.049,1.049,0,0,1,.338-.176.808.808,0,0,0-.353.156l-21.6,16.859Z" transform="translate(-69.246 -40.097)" fill="#fff"></path><path id="Caminho_429-3" data-name="Caminho 429" d="M276.1,38.82l-5.017,3.916L267.8,38.524l5.017-3.916Zm-5.026,2.833,3.977-3.1-2.229-2.856-3.977,3.1Z" transform="translate(-223.045 -28.824)" fill="#fff"></path><path id="Caminho_430-3" data-name="Caminho 430" d="M268.092,40.4l-3.8-4.871,5.676-4.431,3.8,4.871Zm.13-1.192.015.019,4.358-3.4-.015-.019Zm-1.709-3.262,1.715,2.2,3.319-2.591-1.715-2.2Zm-1.049-.272.015.019,4.358-3.4-.015-.019Z" transform="translate(-220.122 -25.902)" fill="#fff"></path><path id="Caminho_431-3" data-name="Caminho 431" d="M301.731,10.438l-3.656,2.854a1.776,1.776,0,0,1-2.49-.307L291.9,8.259a1.777,1.777,0,0,1,.307-2.491l3.656-2.854a1.96,1.96,0,0,1,2.747.339L302.07,7.69a1.96,1.96,0,0,1-.339,2.747m-9-3.991a.915.915,0,0,0-.158,1.283l3.689,4.725a.915.915,0,0,0,1.283.158L301.2,9.76a1.1,1.1,0,0,0,.19-1.54l-3.463-4.437a1.1,1.1,0,0,0-1.54-.19Z" transform="translate(-242.803 -2.083)" fill="#fff"></path><path id="Caminho_432-3" data-name="Caminho 432" d="M294.908,12a2.212,2.212,0,0,1-.273-.017,2.177,2.177,0,0,1-1.46-.826l-3.689-4.725a2.195,2.195,0,0,1,.379-3.077L293.521.5a2.377,2.377,0,0,1,3.334.411l3.463,4.437a2.378,2.378,0,0,1-.411,3.334h0l-3.656,2.854a2.174,2.174,0,0,1-1.344.464M294.978.835a1.527,1.527,0,0,0-.943.325l-3.656,2.854a1.358,1.358,0,0,0-.234,1.9l3.689,4.725a1.359,1.359,0,0,0,1.9.235l3.656-2.853a1.542,1.542,0,0,0,.266-2.161L296.2,1.427a1.529,1.529,0,0,0-1.025-.58,1.586,1.586,0,0,0-.192-.012m-.073,10.306a1.361,1.361,0,0,1-.166-.01,1.322,1.322,0,0,1-.887-.5L290.164,5.9a1.333,1.333,0,0,1,.23-1.87L294.05,1.18a1.516,1.516,0,0,1,2.126.262l3.463,4.437a1.517,1.517,0,0,1-.262,2.127l-3.656,2.854a1.32,1.32,0,0,1-.816.282m.075-9.446a.672.672,0,0,0-.416.144l-3.656,2.854a.5.5,0,0,0-.086.7l3.688,4.725a.5.5,0,0,0,.7.086l3.656-2.854a.681.681,0,0,0,.117-.954l-3.463-4.437a.675.675,0,0,0-.453-.256.694.694,0,0,0-.085-.005" transform="translate(-240.721 0.001)" fill="#fff"></path><path id="Caminho_433-3" data-name="Caminho 433" d="M3.823,263.941.279,266.708a.723.723,0,1,0,.89,1.141l3.545-2.767a.723.723,0,1,0-.89-1.14" transform="translate(0 -219.704)" fill="#fff"></path></g></g></g></g></svg>