<svg xmlns="http://www.w3.org/2000/svg" xmlns:xlink="http://www.w3.org/1999/xlink" width="107.687" height="109.248" viewBox="0 0 107.687 109.248"><defs><clipPath id="clip-path"><rect id="Ret&#xE2;ngulo_731" data-name="Ret&#xE2;ngulo 731" width="55.325" height="57.679" fill="#fff"></rect></clipPath></defs><g id="choi_icone2" transform="translate(-968 -2677)"><rect id="Ret&#xE2;ngulo_720" data-name="Ret&#xE2;ngulo 720" width="107.687" height="109.248" rx="21" transform="translate(968 2677)" fill="#638796"></rect><g id="Grupo_268" data-name="Grupo 268" transform="translate(993.999 2703)"><g id="Grupo_267" data-name="Grupo 267" clip-path="url(#clip-path)"><path id="Caminho_413" data-name="Caminho 413" d="M189.28,0c.374.1.751.193,1.121.306A7.185,7.185,0,0,1,195.5,7.5a7.139,7.139,0,0,1-6.042,6.821A7.2,7.2,0,1,1,187.111.1a1.258,1.258,0,0,0,.254-.1ZM188.3,11.98a4.771,4.771,0,1,0-4.777-4.8,4.764,4.764,0,0,0,4.777,4.8" transform="translate(-160.658)" fill="#fff"></path><path id="Caminho_414" data-name="Caminho 414" d="M141.915,171.636a3.681,3.681,0,0,1-3.474-2.779,4.951,4.951,0,0,1-.128-1.224q-.013-6.277,0-12.553a6.036,6.036,0,0,1,4.718-6.168,6.8,6.8,0,0,1,1.5-.157c3.865-.013,7.731.025,11.6-.016a6.165,6.165,0,0,1,6.246,6.26c-.081,4.239-.019,8.481-.02,12.721a3.629,3.629,0,0,1-3.338,3.885.564.564,0,0,0-.356.376c-.622,3.766-1.226,7.535-1.833,11.3-.191,1.182-.355,2.37-.582,3.545A3.566,3.566,0,0,1,152.9,189.6q-2.56.059-5.122,0a3.536,3.536,0,0,1-3.4-3.105c-.744-4.429-1.46-8.862-2.189-13.293-.085-.515-.18-1.027-.275-1.567m3.6-20.43c-.487,0-.9-.011-1.305,0a3.448,3.448,0,0,0-3.375,3.029c-.131,1.282-.1,2.584-.1,3.877-.011,3.172-.006,6.344,0,9.516,0,1.1.43,1.53,1.526,1.545.469.006.942-.029,1.406.019a.591.591,0,0,1,.42.361c.55,3.286,1.07,6.577,1.606,9.865q.546,3.353,1.119,6.7c.122.713.418,1.014,1.117,1.028q2.418.047,4.838,0a1.07,1.07,0,0,0,1.12-.976c.083-.384.132-.775.2-1.163q.875-5.4,1.749-10.81c.269-1.66.538-3.319.815-5.026.655,0,1.272.012,1.889,0,.959-.023,1.361-.425,1.4-1.371.006-.15,0-.3,0-.45q0-5.969,0-11.938c0-.375-.017-.751-.048-1.124a3.488,3.488,0,0,0-3.522-3.033v7.106h-2.452v-7.125h-5.969c0,1.122.012,2.208-.007,3.293a.589.589,0,0,0,.392.634,3.147,3.147,0,0,1,1.94,2.584c.135,1.772.058,3.56.067,5.341,0,.028-.045.056-.07.083h-2.321c0-.242,0-.447,0-.653,0-1.333.017-2.666-.007-4A1.24,1.24,0,0,0,146.7,157.2a1.228,1.228,0,0,0-1.133,1.356c-.008.751,0,1.5,0,2.252v2.361h-2.452c0-1.5,0-2.963,0-4.425a3.745,3.745,0,0,1,2.094-3.631.634.634,0,0,0,.3-.453c.025-1.125.014-2.25.014-3.455" transform="translate(-122.695 -131.953)" fill="#fff"></path><path id="Caminho_415" data-name="Caminho 415" d="M338.18,194.683c.193-.061.3-.105.405-.126.639-.124,1.28-.243,1.983-.375.229,1.142.455,2.255.677,3.369.263,1.321.516,2.644.79,3.963a1.148,1.148,0,0,0,1.242,1.054c.75.027,1.5.019,2.252.007a1.249,1.249,0,0,0,1.442-1.181c.468-2.33.921-4.662,1.379-6.994q.692-3.525,1.383-7.05a3.553,3.553,0,0,1,.119-.368c.493,0,1,0,1.5,0,1.063-.008,1.514-.45,1.515-1.5q0-4.561,0-9.122a3.609,3.609,0,0,0-3.778-3.793c-1.708-.018-3.416,0-5.124,0h-.646V170.14c.523,0,1.026,0,1.529,0,1.632.013,3.268-.035,4.9.056a5.914,5.914,0,0,1,5.554,5.748c.068,3.265.047,6.532.01,9.8a3.592,3.592,0,0,1-3.139,3.619.7.7,0,0,0-.422.463c-.778,3.851-1.548,7.7-2.284,11.563a4.008,4.008,0,0,1-2.273,3.313,1.786,1.786,0,0,1-.638.2,30.376,30.376,0,0,1-4.14-.03,3.033,3.033,0,0,1-2.634-2.46c-.586-2.549-1.065-5.122-1.6-7.726" transform="translate(-300.016 -150.939)" fill="#fff"></path><path id="Caminho_416" data-name="Caminho 416" d="M5.48,187.014c.888,4.487,1.763,8.907,2.637,13.328.08.4.147.81.235,1.212a1.166,1.166,0,0,0,1.205,1.041c.787.031,1.576.027,2.364.01a1.248,1.248,0,0,0,1.38-1.187q.686-3.5,1.371-6.994a1.422,1.422,0,0,1,.085-.206l2.343.459c-.221,1.119-.433,2.194-.644,3.269-.27,1.377-.521,2.758-.811,4.13A3.575,3.575,0,0,1,12,205.033q-1.182.006-2.365,0A3.581,3.581,0,0,1,6,202.064q-1.207-6-2.374-12c-.081-.413-.174-.654-.7-.726A3.5,3.5,0,0,1,.027,186C0,182.586-.021,179.17.034,175.756a5.917,5.917,0,0,1,5.36-5.512c2.1-.1,4.2-.052,6.3-.067a2.968,2.968,0,0,1,.314.034V172.6H11.44c-1.726,0-3.453-.009-5.18,0a3.6,3.6,0,0,0-3.7,2.755,5.065,5.065,0,0,0-.114,1.226q-.014,4.391,0,8.783c0,1.244.409,1.65,1.645,1.651h1.4" transform="translate(0 -150.971)" fill="#fff"></path><path id="Caminho_417" data-name="Caminho 417" d="M346.639,54.534a6.016,6.016,0,1,1,5.991-6.13,6.067,6.067,0,0,1-5.991,6.13m3.553-6.027a3.572,3.572,0,1,0-3.557,3.609,3.6,3.6,0,0,0,3.557-3.609" transform="translate(-302.158 -37.705)" fill="#fff"></path><path id="Caminho_418" data-name="Caminho 418" d="M48.625,42.5a6.016,6.016,0,1,1-5.995,6.023A6.032,6.032,0,0,1,48.625,42.5M52.244,48.5a3.6,3.6,0,1,0-3.561,3.619A3.668,3.668,0,0,0,52.244,48.5" transform="translate(-37.82 -37.707)" fill="#fff"></path></g></g></g></svg>