<svg xmlns="http://www.w3.org/2000/svg" xmlns:xlink="http://www.w3.org/1999/xlink" width="107.687" height="109.248" viewBox="0 0 107.687 109.248"><defs><clipPath id="clip-path"><rect id="Ret&#xE2;ngulo_730" data-name="Ret&#xE2;ngulo 730" width="58.882" height="51.811" fill="#fff"></rect></clipPath></defs><g id="choi_icone3" transform="translate(-416 -2894)"><rect id="Ret&#xE2;ngulo_728" data-name="Ret&#xE2;ngulo 728" width="107.687" height="109.248" rx="21" transform="translate(416 2894)" fill="#638796"></rect><g id="Grupo_266" data-name="Grupo 266" transform="translate(439.999 2923)"><g id="Grupo_265" data-name="Grupo 265" clip-path="url(#clip-path)"><path id="Caminho_400" data-name="Caminho 400" d="M10.4,68.566c.622-4.312,1.438-8.522,3.461-12.389A11.871,11.871,0,0,1,17.1,52.1c.677-.516,1.188-.535,1.611-.054.383.435.321.976-.193,1.558A11.729,11.729,0,0,0,16.03,59.35a34.676,34.676,0,0,0-.5,8.932c.006.092.032.183.054.308h3.54c.079-1.049.148-2.063.234-3.076a82,82,0,0,1,3.076-17.976A15.6,15.6,0,0,1,25.2,42.045a7.936,7.936,0,0,1,1.156-1.105.9.9,0,0,1,1.307.138.875.875,0,0,1,.072,1.257c-2.006,2.286-2.436,5.144-2.821,7.978a94.808,94.808,0,0,0-.291,18.065,1.669,1.669,0,0,0,.081.254c.629,0,1.3-.009,1.968,0,.907.015,1.273.384,1.278,1.3.008,1.557,0,3.115,0,4.672a4.947,4.947,0,0,0,4.334,4.962,4.88,4.88,0,0,0,5.44-4.16,45.773,45.773,0,0,0,.158-5.168c.02-1.354.257-1.606,1.617-1.607h2c.263-1.995.471-3.945.785-5.879.72-4.434,1.463-8.88,3.643-12.889a16.628,16.628,0,0,1,2.292-2.886A.859.859,0,0,1,49.531,47a.882.882,0,0,1,.134,1.308,11.873,11.873,0,0,0-2.509,6.04,69.243,69.243,0,0,0-.816,14.285c.431,0,.834-.013,1.236,0a30.086,30.086,0,0,1,4.649.226,8.162,8.162,0,0,1,6.618,8.061c.063,2.14.042,4.283-.012,6.424a1.765,1.765,0,0,1-.585,1.136.992.992,0,0,1-.969-.078,1.638,1.638,0,0,1-.434-1.073c-.041-1.995-.017-3.991-.021-5.986a6.372,6.372,0,0,0-6.174-6.654c-3.454-.054-6.909-.024-10.364-.022a3.622,3.622,0,0,0-.365.045c0,1.274.023,2.531,0,3.788a7.265,7.265,0,0,1-5.077,6.843,6.962,6.962,0,0,1-8.907-6.51c-.018-1.358,0-2.717,0-4.17H25.1q-8.211,0-16.423,0a6.317,6.317,0,0,0-6.641,6.572c-.023,1.946,0,3.894-.007,5.84,0,.267.064.6-.067.785-.217.308-.554.7-.866.725s-.684-.329-.976-.579C0,83.91,0,83.642,0,83.452c.02-2.481-.037-4.967.1-7.442a8.178,8.178,0,0,1,6.918-7.239c1.1-.128,2.222-.138,3.377-.2M22.252,58.437l-.162.015c-.323,3.363-.645,6.727-.971,10.128h1.435c-.1-3.416-.2-6.779-.3-10.143m-8.8,5.008-.111,0-.93,5.132h1.041Zm30.819.344-.089-.034-.618,4.867.707-.041Z" transform="translate(0 -32.777)" fill="#fff"></path><path id="Caminho_401" data-name="Caminho 401" d="M153.433,41.3c.327-.352.639-.719.986-1.051a1.01,1.01,0,1,1,1.446,1.4q-1.425,1.465-2.89,2.891a.96.96,0,0,1-1.486.008Q150,43.089,148.549,41.6a.95.95,0,0,1-.015-1.431.971.971,0,0,1,1.43.022c.379.362.708.776,1.059,1.168l.2-.118c0-.718.019-1.437-.016-2.154-.007-.138-.2-.308-.344-.392a3.137,3.137,0,0,1-1.649-3.1c.236-6.027.627-12.044,1.458-18.021a57.1,57.1,0,0,1,2.909-12.744,10.984,10.984,0,0,1,2.7-4.359c.6-.547,1.169-.624,1.614-.213.462.426.433.985-.1,1.606a10.307,10.307,0,0,0-2.038,4.925,78.281,78.281,0,0,0-1.074,17.871c.117,3.718.379,7.432.552,11.149a2.786,2.786,0,0,1-1.456,2.743.886.886,0,0,0-.532.965c.031.557.008,1.116.008,1.675l.18.105m-.865-21.475-.164-.008c-.168,1.755-.375,3.507-.5,5.265-.247,3.561-.456,7.125-.662,10.688A1.051,1.051,0,0,0,152.279,37c.616-.036.938-.548.9-1.325q-.318-7.5-.613-15c-.012-.283,0-.567,0-.851" transform="translate(-119.314 0.001)" fill="#fff"></path><path id="Caminho_402" data-name="Caminho 402" d="M36.8,214.589a1.015,1.015,0,0,1,.982,1.046.92.92,0,0,1-.961.967,1.021,1.021,0,0,1-1.048-.984,1.072,1.072,0,0,1,1.027-1.029" transform="translate(-28.795 -172.744)" fill="#fff"></path><path id="Caminho_403" data-name="Caminho 403" d="M83.96,225.985a1.063,1.063,0,0,1-1.051,1,1.011,1.011,0,0,1-.948-1.076.911.911,0,0,1,.986-.936,1,1,0,0,1,1.012,1.012" transform="translate(-65.978 -181.103)" fill="#fff"></path><path id="Caminho_404" data-name="Caminho 404" d="M227.054,231.093a1.07,1.07,0,0,1-1.034,1.019,1.006,1.006,0,0,1-.978-1.046.911.911,0,0,1,.967-.955,1.013,1.013,0,0,1,1.044.982" transform="translate(-181.158 -185.239)" fill="#fff"></path><path id="Caminho_405" data-name="Caminho 405" d="M52.241,232.111a1.019,1.019,0,0,1-.955-1.068.942.942,0,0,1,1.056-.935,1.016,1.016,0,0,1,.95,1,1.073,1.073,0,0,1-1.051,1" transform="translate(-41.285 -185.235)" fill="#fff"></path><path id="Caminho_406" data-name="Caminho 406" d="M119.649,210.522a.951.951,0,0,1-1.03.968.929.929,0,0,1-.961-.968,1,1,0,1,1,1.991,0" transform="translate(-94.713 -168.636)" fill="#fff"></path><path id="Caminho_407" data-name="Caminho 407" d="M266.826,232.114a1.043,1.043,0,0,1-.979-1.059.978.978,0,0,1,1.066-.94.907.907,0,0,1,.925.992,1.006,1.006,0,0,1-1.012,1.008" transform="translate(-214.006 -185.24)" fill="#fff"></path><path id="Caminho_408" data-name="Caminho 408" d="M21.639,237.163a.946.946,0,0,1-1.019-.978.921.921,0,0,1,.921-1,.992.992,0,1,1,.1,1.98" transform="translate(-16.599 -189.319)" fill="#fff"></path><path id="Caminho_409" data-name="Caminho 409" d="M68.468,205.526a.956.956,0,0,1-1.034.969.97.97,0,0,1-.974-.977,1,1,0,0,1,1.017-1.007.965.965,0,0,1,.99,1.015" transform="translate(-53.499 -164.631)" fill="#fff"></path><path id="Caminho_410" data-name="Caminho 410" d="M237.219,210.5a.949.949,0,0,1-1,1,.925.925,0,0,1-.988-.938.993.993,0,1,1,1.984-.063" transform="translate(-189.362 -168.643)" fill="#fff"></path><path id="Caminho_411" data-name="Caminho 411" d="M114.628,236.169a1.027,1.027,0,0,1-1.038.99.955.955,0,0,1-.964-1.034.924.924,0,0,1,.971-.954,1.014,1.014,0,0,1,1.03,1" transform="translate(-90.663 -189.312)" fill="#fff"></path><path id="Caminho_412" data-name="Caminho 412" d="M261.828,206.508a.964.964,0,0,1-.99-1.012.919.919,0,0,1,.948-.975,1,1,0,0,1,1.049.968,1.018,1.018,0,0,1-1.007,1.019" transform="translate(-209.973 -164.638)" fill="#fff"></path></g></g></g></svg>