<svg xmlns="http://www.w3.org/2000/svg" xmlns:xlink="http://www.w3.org/1999/xlink" width="107.687" height="109.248" viewBox="0 0 107.687 109.248"><defs><clipPath id="clip-path"><rect id="Ret&#xE2;ngulo_732" data-name="Ret&#xE2;ngulo 732" width="63.252" height="60.245" fill="#fff"></rect></clipPath></defs><g id="choi_icone4" transform="translate(-968 -2894.411)"><rect id="Ret&#xE2;ngulo_727" data-name="Ret&#xE2;ngulo 727" width="107.687" height="109.248" rx="21" transform="translate(968 2894.411)" fill="#638796"></rect><g id="Grupo_270" data-name="Grupo 270" transform="translate(989.981 2919.377)"><g id="Grupo_269" data-name="Grupo 269" clip-path="url(#clip-path)"><path id="Caminho_419" data-name="Caminho 419" d="M340.016,209.565v-.972a2.242,2.242,0,0,0-1.244-1.117c-.725-.221-1.455-.46-2.161-.691-.618-.2-1.257-.411-1.887-.606a2.006,2.006,0,0,0-.595-.094,1.6,1.6,0,0,0-1.557,1.181,1.634,1.634,0,0,0,1.178,2.07c1,.333,2.029.663,3.02.982l.483.156c1.5.485,1.972.346,2.763-.909" transform="translate(-276.763 -171.542)" fill="#fff"></path><path id="Caminho_420" data-name="Caminho 420" d="M93.639,41.612A4.355,4.355,0,0,0,95.091,38.3V38.3a4.354,4.354,0,0,0-3.649-4.416c-2.775-.448-5.607-.849-8.346-1.238l-1.857-.264A1.473,1.473,0,0,1,80.01,31.5c-1.366-2.812-2.827-5.807-4.351-8.8A5.737,5.737,0,0,0,74.425,21a4.389,4.389,0,0,0-3.761-1.045,4.6,4.6,0,0,0-3.237,2.5c-.736,1.467-1.475,2.963-2.19,4.411-.756,1.532-1.538,3.116-2.319,4.669a1.572,1.572,0,0,1-1.031.807c-2.87.441-5.739.849-8.924,1.3l-.112.016a6.3,6.3,0,0,0-3.271,1.08,4.489,4.489,0,0,0-1.7,3.3,4.652,4.652,0,0,0,1.442,3.562c2.362,2.323,4.766,4.66,7.227,7.048a1.274,1.274,0,0,1,.415,1.256c-.53,2.932-1.031,5.9-1.5,8.684q-.035.207-.072.414a6.43,6.43,0,0,0-.062,3.013,4.568,4.568,0,0,0,6.675,2.625c1.555-.843,3.146-1.677,4.685-2.483,1.278-.67,2.6-1.362,3.891-2.055a1.906,1.906,0,0,1,.91-.256,1.943,1.943,0,0,1,.929.264c2.586,1.393,5.364,2.857,8.743,4.607a4.252,4.252,0,0,0,4.83-.374,4.315,4.315,0,0,0,1.715-4.49q-.324-1.872-.64-3.745c-.337-1.986-.685-4.039-1.044-6.055a1.547,1.547,0,0,1,.512-1.524c1.625-1.567,3.268-3.171,4.857-4.722q1.122-1.094,2.244-2.188m-2.894-1.78c-.072.064-.144.128-.213.195q-1.022.995-2.041,1.992c-1.714,1.674-3.486,3.406-5.248,5.091a2.153,2.153,0,0,0-.718,2.132c.64,3.577,1.253,7.182,1.819,10.543.013.076.035.163.058.256a1.417,1.417,0,0,1-.37,1.628,1.387,1.387,0,0,1-1.738-.085c-.082-.051-.159-.1-.228-.136q-2.242-1.17-4.48-2.348-2.469-1.3-4.942-2.589a7.591,7.591,0,0,0-.877-.364l-.283-.105-.276.1a6.657,6.657,0,0,0-.8.329c-2.572,1.342-5.183,2.716-7.708,4.045l-2.2,1.156a1.909,1.909,0,0,1-.874.286.923.923,0,0,1-.725-.352,1.879,1.879,0,0,1-.33-1.421c.556-3.4,1.156-7.024,1.827-10.674a2.426,2.426,0,0,0-.74-2.476c-1.821-1.725-3.643-3.508-5.4-5.232q-1.057-1.035-2.116-2.067c-.034-.033-.072-.065-.109-.1a1.626,1.626,0,0,1-.371-.407c-.028-.047-.059-.1-.092-.149a1.318,1.318,0,0,1-.3-1.122,1.639,1.639,0,0,1,1.162-.89c.879-.163,1.775-.287,2.641-.406.343-.047.686-.095,1.028-.144l2.318-.339c1.756-.258,3.572-.524,5.361-.773A1.812,1.812,0,0,0,65.263,34.3q1.861-3.788,3.732-7.571l1.167-2.363c.02-.04.04-.081.059-.123a3.685,3.685,0,0,1,.227-.427,1.253,1.253,0,0,1,1.032-.623h.01a1.237,1.237,0,0,1,1.02.593,3.413,3.413,0,0,1,.239.442l.055.114,1.26,2.552c1.168,2.363,2.375,4.806,3.546,7.218a2.1,2.1,0,0,0,1.743,1.322c2.448.33,4.931.7,7.332,1.048q1.414.208,2.828.414c.092.013.187.022.281.031a2.986,2.986,0,0,1,.813.156,1.722,1.722,0,0,1,1.083.839,1.489,1.489,0,0,1-.387,1.323,3.433,3.433,0,0,1-.557.584" transform="translate(-39.851 -16.543)" fill="#fff"></path><path id="Caminho_421" data-name="Caminho 421" d="M6.807,208.912a1.512,1.512,0,0,0,.622-1.936,1.622,1.622,0,0,0-1.811-1.029c-1.527.438-3.093.947-4.653,1.512a1.6,1.6,0,0,0-.93,1.833A1.657,1.657,0,0,0,1.7,210.58h.081c.479-.155.96-.3,1.44-.453,1.19-.37,2.421-.752,3.586-1.215" transform="translate(0 -171.391)" fill="#fff"></path><path id="Caminho_422" data-name="Caminho 422" d="M67.917,4.29c-.772-1.1-1.586-2.208-2.373-3.277L65.423.848A1.607,1.607,0,0,0,64.069.125a1.571,1.571,0,0,0-1.462.858,1.5,1.5,0,0,0,.084,1.712c.824,1.176,1.687,2.367,2.565,3.539a1.648,1.648,0,1,0,2.66-1.945" transform="translate(-51.924 -0.104)" fill="#fff"></path><path id="Caminho_423" data-name="Caminho 423" d="M282.918.571c-1.155,1.466-2.035,2.678-2.77,3.814a1.478,1.478,0,0,0-.067,1.528,1.739,1.739,0,0,0,1.524.913h.011a1.414,1.414,0,0,0,1.227-.6c.927-1.238,1.83-2.451,2.672-3.686A1.6,1.6,0,0,0,285.1.333,1.666,1.666,0,0,0,284.108,0a1.5,1.5,0,0,0-1.191.571" transform="translate(-232.984)" fill="#fff"></path><path id="Caminho_424" data-name="Caminho 424" d="M182.215,315.473a1.636,1.636,0,0,0-1.633-1.635h-.019a1.623,1.623,0,0,0-1.609,1.62c-.018,1.532-.017,3.024,0,4.436a1.585,1.585,0,0,0,1.624,1.586h0a1.58,1.58,0,0,0,1.632-1.581c.012-.489.009-.991.006-1.477,0-.235,0-.469,0-.7s0-.449,0-.673c0-.516.006-1.05,0-1.572" transform="translate(-148.948 -261.235)" fill="#fff"></path></g></g></g></svg>