<svg xmlns="http://www.w3.org/2000/svg" xmlns:xlink="http://www.w3.org/1999/xlink" width="63.527" height="54.08" viewBox="0 0 63.527 54.08"><defs><clipPath id="clip-path"><rect id="Ret&#xE2;ngulo_186" data-name="Ret&#xE2;ngulo 186" width="63.527" height="54.08" fill="none"></rect></clipPath></defs><g id="coracao" transform="translate(0)"><g id="Grupo_99" data-name="Grupo 99" transform="translate(0)" clip-path="url(#clip-path)"><path id="Caminho_92" data-name="Caminho 92" d="M63.527,20.6c-.1.478-.2.957-.315,1.434a24.889,24.889,0,0,1-4.836,9.405A78.708,78.708,0,0,1,46.013,43.853a149.778,149.778,0,0,1-13.284,9.87A1.479,1.479,0,0,1,30.9,53.8,129.568,129.568,0,0,1,9.055,36.021a41.965,41.965,0,0,1-7.321-9.954A16.027,16.027,0,0,1,.916,13.429,18.894,18.894,0,0,1,9.6,2.536,18.081,18.081,0,0,1,21.471.194a18.274,18.274,0,0,1,9.852,4.576c.123.109.253.211.411.342.661-.523,1.3-1.071,1.982-1.563a17.867,17.867,0,0,1,13-3.4A18.455,18.455,0,0,1,60.567,9.03a18.919,18.919,0,0,1,2.868,8.616,4.418,4.418,0,0,0,.093.474Zm-2.484-1.511A17.279,17.279,0,0,0,56.668,7.933,16.078,16.078,0,0,0,34.574,6.018c-.644.514-1.222,1.111-1.836,1.664a1.277,1.277,0,0,1-1.969-.005c-.154-.138-.295-.29-.445-.432-4.6-4.362-9.977-5.814-16.058-4.029A15.936,15.936,0,0,0,3.7,13.023,14.3,14.3,0,0,0,4.925,26.755,49,49,0,0,0,11.243,34.7,127.309,127.309,0,0,0,31.327,51.112a.635.635,0,0,0,.864-.006c2.491-1.809,5.02-3.567,7.488-5.407a99.232,99.232,0,0,0,13.53-12,37.506,37.506,0,0,0,6.2-8.477,12.822,12.822,0,0,0,1.63-6.13" transform="translate(-0.001 0)" fill="#6e92a0"></path><path id="Caminho_93" data-name="Caminho 93" d="M386.29,68.818a6.819,6.819,0,0,1,0,.743,1.19,1.19,0,0,1-1.161,1.08,1.157,1.157,0,0,1-1.209-.941c-.182-.993-.223-2.02-.49-2.986a9.458,9.458,0,0,0-5.7-6.51c-.247-.1-.508-.179-.748-.3a1.193,1.193,0,0,1-.667-1.492,1.12,1.12,0,0,1,1.42-.79,11.946,11.946,0,0,1,8.561,11.194" transform="translate(-329.455 -50.408)" fill="#6e92a0"></path><path id="Caminho_94" data-name="Caminho 94" d="M338.188,56.388a1.237,1.237,0,1,1,1.175,1.244,1.2,1.2,0,0,1-1.175-1.244" transform="translate(-296.134 -48.316)" fill="#6e92a0"></path></g></g></svg>