<svg xmlns="http://www.w3.org/2000/svg" xmlns:xlink="http://www.w3.org/1999/xlink" width="72.639" height="74.146" viewBox="0 0 72.639 74.146"><defs><clipPath id="clip-path"><rect id="Ret&#xE2;ngulo_174" data-name="Ret&#xE2;ngulo 174" width="72.638" height="72.638" fill="#fff"></rect></clipPath></defs><g id="etapa-01" transform="translate(-316 -2003.143)"><rect id="Ret&#xE2;ngulo_536" data-name="Ret&#xE2;ngulo 536" width="72.639" height="74" rx="14" transform="translate(316 2003.289)" fill="#638796"></rect><g id="etapa01" transform="translate(293.12 1969.143)"><g id="Grupo_74" data-name="Grupo 74" transform="translate(22.88 34)" clip-path="url(#clip-path)"><path id="Caminho_65" data-name="Caminho 65" d="M69.478,88.753a31.436,31.436,0,0,1-6.18-.707c-.111-.019-.222-.031-.333-.048a.776.776,0,0,0-.931.418,1.249,1.249,0,0,0,.085.932,8.41,8.41,0,0,1,1.128,2.74A6.141,6.141,0,0,1,61.2,98.339a6.049,6.049,0,0,1-8.495-1.32,9.116,9.116,0,0,1-1.619-5.343,16.553,16.553,0,0,1,.153-2.346c.118-1.046-.263-1.389-1.3-1.321-1.178.077-2.365.03-3.548.032a3.2,3.2,0,0,1-.43-.046.757.757,0,0,0-.879.433,1.181,1.181,0,0,0,.077.892A8.149,8.149,0,0,1,46.3,91.9a7.163,7.163,0,0,1-.366,4.248A5.8,5.8,0,0,1,36.585,97.9a8.028,8.028,0,0,1-2.436-5.783,19.166,19.166,0,0,1,.152-2.779c.107-1.041-.309-1.49-1.347-1.3-1.134.2-2.259.46-3.392.673a3.443,3.443,0,0,1-.91.04.7.7,0,0,1-.674-.74.736.736,0,0,1,.641-.776c1.385-.244,2.771-.491,4.156-.732a2.781,2.781,0,0,1,2.109.442,2.009,2.009,0,0,1,.976,1.819c-.021.543-.1,1.085-.142,1.627a9.053,9.053,0,0,0,.848,5.051,4.52,4.52,0,0,0,4.958,2.487A4.072,4.072,0,0,0,44.9,93.827a5.28,5.28,0,0,0-.924-3.459,2.6,2.6,0,0,1-.536-1.8,2.324,2.324,0,0,1,2.3-2.1c.447-.005.9.084,1.343.081.959-.008,1.923,0,2.876-.087A2.445,2.445,0,0,1,52.8,89.09c-.041,1.2-.126,2.4-.076,3.592a6.39,6.39,0,0,0,.945,3.047,4.665,4.665,0,0,0,5.047,2.155,4.179,4.179,0,0,0,3.136-3.969,6.19,6.19,0,0,0-.91-3.529,3.72,3.72,0,0,1-.531-1.366A2.244,2.244,0,0,1,62.7,86.47c.858.022,1.707.268,2.566.347,1.705.157,3.414.269,5.122.394.255.019.514-.008.769.015a.732.732,0,0,1,.7.773.724.724,0,0,1-.721.749c-.528.021-1.058.005-1.655.005" transform="translate(-13.98 -43.196)" fill="#fff"></path><path id="Caminho_66" data-name="Caminho 66" d="M46.4,67.34a31.909,31.909,0,0,1,1.8-9.6,87,87,0,0,1,9.039-18.529c.312-.5.715-.615,1.127-.358s.472.631.186,1.175a78.069,78.069,0,0,0-5.82,14.048,36.919,36.919,0,0,0-1.7,9.822,6.118,6.118,0,0,0,1,3.732,3.55,3.55,0,0,1,.169,3.631,2.728,2.728,0,0,1-4.283.6,4.688,4.688,0,0,1-1.4-3.032c-.082-.57-.1-1.149-.122-1.483m4.239-11.681a1.905,1.905,0,0,0-.136.226,35.653,35.653,0,0,0-2.523,10.357,8.444,8.444,0,0,0,.356,3.558,1.735,1.735,0,0,0,1.385,1.254.959.959,0,0,0,1.246-.865,2.383,2.383,0,0,0-.378-2.009,5.389,5.389,0,0,1-1.015-2.707,23.634,23.634,0,0,1,.359-6.215c.192-1.179.458-2.345.705-3.6" transform="translate(-23.189 -19.347)" fill="#fff"></path><path id="Caminho_67" data-name="Caminho 67" d="M78.747,59.555a14.067,14.067,0,0,1,1.122-4.664,43.569,43.569,0,0,1,6.214-10.467A95.2,95.2,0,0,1,96.567,32.907a.816.816,0,0,1,.946-.274c.564.245.634.816.186,1.344-1.454,1.71-2.952,3.387-4.341,5.149a56.93,56.93,0,0,0-7.537,12.087,22.535,22.535,0,0,0-1.712,5.239,4.052,4.052,0,0,0,.2,2.174,3.882,3.882,0,0,1-.088,2.953,2.486,2.486,0,0,1-2.031,1.769,2.892,2.892,0,0,1-2.729-1.211,4.239,4.239,0,0,1-.714-2.584m7.272-12.29a1.181,1.181,0,0,0-.186.134,35.651,35.651,0,0,0-4.873,9,9.783,9.783,0,0,0-.666,3.518,1.773,1.773,0,0,0,1.278,1.871.843.843,0,0,0,1.031-.4,2.384,2.384,0,0,0,.314-2.023,7.249,7.249,0,0,1-.16-3.794,28.321,28.321,0,0,1,2.994-7.761c.078-.149.149-.3.267-.546" transform="translate(-39.35 -16.274)" fill="#fff"></path><path id="Caminho_68" data-name="Caminho 68" d="M103.357,57.763c-.466.075-.823.13-1.179.191-.6.1-.978-.1-1.074-.594s.2-.815.8-.916q2.132-.359,4.264-.722c.8-.136,1.237.358.984,1.133q-.711,2.167-1.443,4.328c-.186.552-.556.767-1.008.611s-.623-.539-.447-1.091c.228-.71.465-1.417.66-2.146a11.383,11.383,0,0,0-2.56,2.837,13.054,13.054,0,0,0-2.019,5.65c-.084.709-.364,1.012-.878.95-.535-.066-.735-.448-.645-1.176a14.584,14.584,0,0,1,4.3-8.762c.064-.064.117-.137.25-.293" transform="translate(-49.366 -27.833)" fill="#fff"></path></g></g></g></svg>