<svg xmlns="http://www.w3.org/2000/svg" xmlns:xlink="http://www.w3.org/1999/xlink" width="76.631" height="76.631" viewBox="0 0 76.631 76.631"><defs><clipPath id="clip-path"><rect id="Ret&#xE2;ngulo_175" data-name="Ret&#xE2;ngulo 175" width="76.631" height="76.631" fill="none"></rect></clipPath><clipPath id="clip-path-2"><rect id="Ret&#xE2;ngulo_616" data-name="Ret&#xE2;ngulo 616" width="43.62" height="35.842" fill="none"></rect></clipPath></defs><g id="etapa-02" transform="translate(-1000.775 -2000.512)"><rect id="etapa02" width="72.639" height="74" rx="14" transform="translate(1002.771 2003.143)" fill="#638796"></rect><g id="Grupo_181" data-name="Grupo 181" transform="translate(1000.775 2000.512)"><g id="Grupo_76" data-name="Grupo 76" clip-path="url(#clip-path)"><g id="Grupo_189" data-name="Grupo 189" transform="translate(15.584 26.011)"><g id="Grupo_188" data-name="Grupo 188" clip-path="url(#clip-path-2)"><path id="Caminho_213" data-name="Caminho 213" d="M4.883,33.473c.162.841.276,1.619.446,2.369H8.081a17.979,17.979,0,0,1-.524-3.94c-.089-2.684-.021-5.376-.021-8.063a1.38,1.38,0,0,1,.1-.657c.852-1.459,1.66-2.943,2.626-4.33a2.216,2.216,0,0,1,2.626-.773,22.735,22.735,0,0,0,5.014.728c3.5.062,7.01-.041,10.515-.166a12.073,12.073,0,0,0,2.9-.6,1.855,1.855,0,0,1,2.031.444,7.509,7.509,0,0,1,2.742,5.758c-.085,1.159-.014,2.319-.014,3.478l0,.01a30.724,30.724,0,0,1-.579,8.116h2.8a21.568,21.568,0,0,0,.382-2.315c3.3-.8,4.978-2.415,4.939-5.051a6.593,6.593,0,0,0-.912-3.016,4.711,4.711,0,0,0-3.762-2.214c-.164-2.433-.207-4.784-.514-7.1A14.072,14.072,0,0,0,35.5,9.679l.008,0c.62-.46,1.181-.931,1.789-1.318.9-.585,1.183-1.314.759-2.031s-1.239-.866-2.149-.3C35.123,6.52,34.4,7.1,33.624,7.648L31.56,6.071a2.657,2.657,0,0,1,.182-.334q.392-.5.8-.993a1.374,1.374,0,1,0-2.033-1.807c-.524.587-.982,1.231-1.465,1.841L25.86,3.87a4.75,4.75,0,0,1,.17-.456c.213-.431.437-.854.653-1.283A1.353,1.353,0,1,0,24.364.754a10.44,10.44,0,0,0-.8,1.494c-.663,1.505-.651,1.492-2.34,1.482a.748.748,0,0,1-.841-.6,14.348,14.348,0,0,0-1.07-2.3,1.353,1.353,0,0,0-1.95-.568L17.316.3a1.364,1.364,0,0,0-.337,1.9c.28.539.545,1.088.833,1.668l-3.235.908c-.5-.638-.947-1.264-1.453-1.832a1.374,1.374,0,1,0-2.042,1.8c.346.427.678.868,1.026,1.312L10,7.634c-.85-.6-1.608-1.184-2.423-1.681a1.352,1.352,0,0,0-2,.371c-.433.721-.168,1.438.672,1.988.63.413,1.225.883,1.919,1.389-3.38,4.021-3.509,8.746-3.316,13.489C1.695,23.916.029,25.529,0,28.124a6.309,6.309,0,0,0,.806,2.962,4.9,4.9,0,0,0,4.077,2.386m33.966-7.432a2.305,2.305,0,0,1,0,4.591ZM7.7,17.346a12.4,12.4,0,0,1,4.889-8.193A1.9,1.9,0,0,0,13.1,11.19a4.922,4.922,0,0,1,.6,1.105l.009.024a1.335,1.335,0,0,0,1.721.778,1.254,1.254,0,0,0,.8-1.706,11.908,11.908,0,0,0-1.5-2.419c-.234-.29-.783-.34-1.148-.483C16.368,5.7,26.9,5.6,30.088,8.529a3.9,3.9,0,0,0-2.8,3.333,1.3,1.3,0,0,0,1.049,1.281,1.277,1.277,0,0,0,1.5-.686,17,17,0,0,0,1.018-1.739,7.128,7.128,0,0,0,.325-1.449A11.922,11.922,0,0,1,35.809,17c-.276-.222-.47-.385-.663-.555a4.568,4.568,0,0,0-4.552-1.053,17.781,17.781,0,0,1-4.417.692c-3.447.048-6.9-.046-10.343-.145a7.456,7.456,0,0,1-2.232-.464,4.57,4.57,0,0,0-5.159,1.335,4.637,4.637,0,0,0-.5.773l-.247-.228Zm-2.9,8.7v4.537a2.145,2.145,0,0,1-2.126-2.06A2.319,2.319,0,0,1,4.8,26.041" transform="translate(0 0)" fill="#fff"></path></g></g><path id="Caminho_214" data-name="Caminho 214" d="M73.659,29.946A2.169,2.169,0,0,1,74.6,32.1c-.057.613-.011,1.234-.011,1.918.256-.083.453-.147.651-.21a1.383,1.383,0,0,1,1.74.684,1.279,1.279,0,0,1-.279,1.764,20.08,20.08,0,0,1-3,2.009,1.951,1.951,0,0,1-1.536-.166,22.362,22.362,0,0,1-2.386-1.6,1.426,1.426,0,0,1-.6-1.926,1.461,1.461,0,0,1,1.96-.705c.113.037.22.093.473.2,0-.713.047-1.347-.01-1.97a2.159,2.159,0,0,1,.94-2.155Z" transform="translate(-34.74 -18.27)" fill="#fff"></path><path id="Caminho_215" data-name="Caminho 215" d="M91.184,39.966c.5-.709.924-1.349,1.383-1.967a1.493,1.493,0,1,1,2.418,1.717c-.216.338-.455.662-.682.993-.209.3-.415.608-.654.96a7.786,7.786,0,0,1,.818.273,1.375,1.375,0,0,1,.854,1.5,1.3,1.3,0,0,1-1.249,1.277,23.119,23.119,0,0,1-3.517-.042,1.8,1.8,0,0,1-1.175-.882,19.784,19.784,0,0,1-1.171-3.016,1.389,1.389,0,0,1,.76-1.791c.763-.378,1.414-.1,2.215.981" transform="translate(-32.525 -17.426)" fill="#fff"></path><path id="Caminho_216" data-name="Caminho 216" d="M52.467,41.678c-.5-.735-.976-1.384-1.406-2.059a1.483,1.483,0,0,1,.32-2.127,1.5,1.5,0,0,1,2.114.447c.247.317.464.656.694.985s.453.651.731,1.05c.189-.252.311-.45.466-.617A1.4,1.4,0,0,1,57.151,39a1.259,1.259,0,0,1,.776,1.524,22.517,22.517,0,0,1-1.365,3.525,1.857,1.857,0,0,1-1.311.662,22.406,22.406,0,0,1-2.78.04c-1-.01-1.552-.431-1.685-1.236-.135-.824.312-1.409,1.311-1.714l.369-.119" transform="translate(-36.857 -17.426)" fill="#fff"></path></g></g></g></svg>