<svg xmlns="http://www.w3.org/2000/svg" xmlns:xlink="http://www.w3.org/1999/xlink" width="175.738" height="224.9" viewBox="0 0 175.738 224.9">
  <defs>
    <clipPath id="clip-path">
      <rect id="Retângulo_217" data-name="Retângulo 217" width="175.738" height="224.9" fill="none"/>
    </clipPath>
    <clipPath id="clip-path-3">
      <rect id="Retângulo_213" data-name="Retângulo 213" width="25.714" height="4.708" fill="none"/>
    </clipPath>
    <clipPath id="clip-path-4">
      <rect id="Retângulo_214" data-name="Retângulo 214" width="23.455" height="2.111" fill="none"/>
    </clipPath>
    <clipPath id="clip-path-5">
      <rect id="Retângulo_215" data-name="Retângulo 215" width="52.298" height="49.937" fill="none"/>
    </clipPath>
  </defs>
  <g id="foto_01" data-name="foto 01" transform="translate(0)">
    <g id="Grupo_166" data-name="Grupo 166" transform="translate(0)" clip-path="url(#clip-path)">
      <g id="Grupo_165" data-name="Grupo 165">
        <g id="Grupo_164" data-name="Grupo 164" clip-path="url(#clip-path)">
          <path id="Caminho_164" data-name="Caminho 164" d="M149.431,426.511c52.176-8.267,65.219-27.714,68.189-34.29a1.938,1.938,0,0,0-1.309-2.676c-16.814-4.147-18.854-17.619-18.854-17.619l-3.063,7.086-13.415,17.7-8.2,9.5L148.6,414.189l-24.178-7.976-8.2-9.5-13.414-17.7-3.727-6.521S97.709,385.4,80.9,389.545a1.938,1.938,0,0,0-1.309,2.676c2.97,6.576,16.013,26.023,68.189,34.29a5.3,5.3,0,0,0,1.656,0" transform="translate(-43.062 -201.676)" fill="#f7ba9b"/>
          <path id="Caminho_165" data-name="Caminho 165" d="M211.8,94.943c16.8-64.641-23.35-81.726-23.35-81.726C174.051,2.9,148.262,1.642,145.9,1.547V1.541l-.087,0-.087,0v.006c-2.357.094-28.146,1.349-42.54,11.669,0,0-40.151,17.086-23.35,81.726,0,0-7.974,4.556-3.132,12.53l8.827,29.045s3.418,28.192,15.947,44.138L116,200.019a39.044,39.044,0,0,0,29.726,14.8v.006l.087,0,.087,0v-.006a39.044,39.044,0,0,0,29.725-14.8l14.523-19.364c12.529-15.946,15.946-44.138,15.946-44.138l8.828-29.045c4.841-7.974-3.132-12.53-3.132-12.53" transform="translate(-40.749 -0.836)" fill="#ffc5a5"/>
          <path id="Caminho_166" data-name="Caminho 166" d="M83.915,141.822V104.479l4.264-9.691s3.359-27.651,15.247-30.753c0,0,.258-5.427-1.551-8.528,0,0-5.943-25.713-.258-29.331,0,0-21.191,3.877-27.006,30.882,0,0-3.23,20.028.259,39.022Z" transform="translate(-39.719 -14.194)" fill="#2d2d2e"/>
          <path id="Caminho_167" data-name="Caminho 167" d="M336.037,141.822V104.479l-4.353-9.691s-3.43-27.651-15.567-30.753c0,0-.264-5.427,1.583-8.528,0,0,6.068-25.713.264-29.331,0,0,21.635,3.877,27.571,30.882,0,0,3.3,20.028-.264,39.022Z" transform="translate(-171.406 -14.194)" fill="#2d2d2e"/>
          <path id="Caminho_168" data-name="Caminho 168" d="M121.988,49.841s39.667,21.414,81,0l8.784-12.565-5.8-24.9s-35.806-27.59-85.8-.4l-12.7,16.445.632,14.222Z" transform="translate(-58.281 0)" fill="#2d2d2e"/>
          <path id="Caminho_169" data-name="Caminho 169" d="M225.814,421.085c-.868,1.232-2.334,1.584-3.332,2.3a27.613,27.613,0,0,1-2.869,2.127c-3.958,2.22-5.74,1.132-10.9,1.129-3.124,0-5.853.693-8.933-.346-1.576-.531-2.78-1.857-3.813-2.474-1.43-.854-3-1.29-4.184-2.538l.5-.147s19.113-1.143,19.368-1.141l6.85.048Z" transform="translate(-103.994 -227.74)" fill="#f8af8b" fill-rule="evenodd"/>
          <path id="Caminho_170" data-name="Caminho 170" d="M209.263,415.186a10.622,10.622,0,0,1,3.5-.591,22.252,22.252,0,0,1,4.413.736c1.3.311,2.36.807,3.523,1.088,1.444.348,4.767.739,5.179,1.7a19.9,19.9,0,0,1-4.594.266c-1.8-.078-3.427-.453-5.461-.516-2.246-.07-3.98.608-6.214.688-2.035.073-4.569-.448-6.664-.574l-3.449.306c-1.28.024-2.57.11-3.872.114s-3.493.167-3.957-.1c1.424-1.248,3.67-1.3,6.235-1.946,2.232-.561,4.24-1.263,6.262-1.567a10.514,10.514,0,0,1,5.1.391" transform="translate(-103.932 -224.812)" fill="#f8af8b" fill-rule="evenodd"/>
          <g id="Grupo_157" data-name="Grupo 157" transform="translate(92.46 193.516)" opacity="0.61">
            <g id="Grupo_156" data-name="Grupo 156">
              <g id="Grupo_155" data-name="Grupo 155" clip-path="url(#clip-path-3)">
                <path id="Caminho_171" data-name="Caminho 171" d="M215.6,423.606a23.6,23.6,0,0,1-4.381-.208,16.329,16.329,0,0,0-4.856-.253c-1.392.152-4.377.54-4.372,1.148,0,.263.635.941.959,1.246,1.325,1.248,3.958,1.907,5.858,1.921,1.441.01,3.564-.454,5.024-.5a26.689,26.689,0,0,1,3.574.025,23.443,23.443,0,0,0,4.082.454,10.621,10.621,0,0,0,3.922-1.143c1.154-.6,2.346-1.929,2.293-2.378s-3.292-.8-3.845-.825a18.911,18.911,0,0,0-3.3-.325c-1.556.108-3.363.738-4.963.835" transform="translate(-201.987 -422.752)" fill="#f8af8b" fill-rule="evenodd"/>
              </g>
            </g>
          </g>
          <g id="Grupo_160" data-name="Grupo 160" transform="translate(93.631 190.274)" opacity="0.54">
            <g id="Grupo_159" data-name="Grupo 159">
              <g id="Grupo_158" data-name="Grupo 158" clip-path="url(#clip-path-4)">
                <path id="Caminho_172" data-name="Caminho 172" d="M228,417.556c-1.256-.3-2.431-.832-3.693-1.134a22.615,22.615,0,0,0-4.458-.748,11.54,11.54,0,0,0-3.641.649,10.811,10.811,0,0,0-5.2-.448,26.924,26.924,0,0,0-3.1.7c-1.12.308-2.228.637-3.357.921,7.426-1,5.777.282,11.668.288,4.275,0,4.152-1.255,11.787-.227" transform="translate(-204.546 -415.671)" fill="#f8af8b" fill-rule="evenodd"/>
              </g>
            </g>
          </g>
          <g id="Grupo_163" data-name="Grupo 163" transform="translate(78.629 133.341)" opacity="0.3">
            <g id="Grupo_162" data-name="Grupo 162">
              <g id="Grupo_161" data-name="Grupo 161" clip-path="url(#clip-path-5)">
                <path id="Caminho_173" data-name="Caminho 173" d="M242.275,340.226c8.777-.571,9.057-4.555,7.958-8.433a31.7,31.7,0,0,0-3.828-8.9,6.351,6.351,0,0,1-1.016-3.128c-.1-7.823.743-12.061,2.96-14.494,1.9-2.084,6.436-7.638,13-10.564l-5.805-3.41c-5.781,4.206-11.539,5.182-12.982,8.3-2.156,4.659-2.474,13.117-1.545,19.733a12.12,12.12,0,0,0,2.469,5.875c7.909,7.026,5.726,13.791-1.214,15.023" transform="translate(-209.055 -291.296)" fill="#efb095" fill-rule="evenodd"/>
                <path id="Caminho_174" data-name="Caminho 174" d="M190.848,340.226c-8.777-.571-9.058-4.555-7.958-8.433a31.7,31.7,0,0,1,3.829-8.9,6.355,6.355,0,0,0,1.015-3.128c.1-7.823-.744-12.061-2.96-14.494-1.9-2.084-6.436-7.638-13-10.564l5.805-3.41c5.781,4.206,11.539,5.182,12.981,8.3,2.156,4.659,2.474,13.117,1.545,19.733a12.124,12.124,0,0,1-2.47,5.875c-7.909,7.026-5.726,13.791,1.214,15.023" transform="translate(-171.771 -291.296)" fill="#efb095" fill-rule="evenodd"/>
                <path id="Caminho_175" data-name="Caminho 175" d="M214.578,387.5c3.536-.047,5.119-3.962,8.123-4.474,3.588-.612,5.126.755,5.21,2.575a3.572,3.572,0,0,1-2.82,3.532c-1.932.578-4.211.063-6.384.255-1.549.137-2.483,1.574-4.2,1.5-1.713.073-2.647-1.364-4.195-1.5-2.173-.192-4.4.3-6.333-.282a3.588,3.588,0,0,1-2.872-3.5c.085-1.82,1.622-3.186,5.21-2.575,3.054.52,4.632,4.522,8.256,4.474" transform="translate(-187.679 -340.959)" fill="#efb095" fill-rule="evenodd"/>
              </g>
            </g>
          </g>
          <path id="Caminho_176" data-name="Caminho 176" d="M148.393,302.14c5.535,4.5,10.526,6.6,17.481,3.837-5.463,5.543-14.29,2.682-17.481-3.837" transform="translate(-80.466 -163.835)" fill="#3b2e28"/>
          <path id="Caminho_177" data-name="Caminho 177" d="M288.526,302.14c-3.192,6.521-12.02,9.378-17.481,3.837,6.957,2.761,11.951.661,17.481-3.837" transform="translate(-146.974 -163.835)" fill="#3b2e28"/>
          <path id="Caminho_178" data-name="Caminho 178" d="M159.042,290.436a7.285,7.285,0,0,0-2.325-3.154l.32,1.081a12.064,12.064,0,0,0-5.045-2.971,23.313,23.313,0,0,1,2.73,2.682,46.539,46.539,0,0,0-4.861-3.793c-5.53-3.217-10.182-3.793-16.478-3.517a21.979,21.979,0,0,0-5.968.806,18.524,18.524,0,0,1,2.186.046c-3.514.542-6.2,3.326-7.751,6.683,2.668-2.36,5.762-3.975,10.371-3.161,3.137.554,5.116,2.345,10.416,3.974l-1.849-1.331c2.67,1.335,5.092,2.935,7.692,4.371,4.013,2.216,4.17.66,6.1,2.306a3.616,3.616,0,0,0,2.9,1.1c1.929-.705,2.519-2.421,1.568-5.119" transform="translate(-66.072 -152.21)" fill="#2d2d2e" fill-rule="evenodd"/>
          <path id="Caminho_179" data-name="Caminho 179" d="M159.26,290.348a13.594,13.594,0,0,0-3.649-3.177c.905,1.272,2.489,2.628,2.72,4.524a9.431,9.431,0,0,0-4.078-4.041l2.033,2.508c-3.881-3.806-6.907-5.991-10.846-7.275a28.235,28.235,0,0,0-13.5-.907,14.165,14.165,0,0,1,4.6.6c-5.9.012-8.266-.236-12.042,4.565,3.75-3.526,9.326-3.321,15.425.466l-1.693-1.891a8.016,8.016,0,0,1,3.74.818c2.387.915,4.06,2.677,6.822,4.345a13.782,13.782,0,0,0,3.892,1.692,10.517,10.517,0,0,1,1.762.239c1.5.6,2.425,1.991,4.06,2.084,2.044.115,1.511-3.478.753-4.549" transform="translate(-67.508 -152.681)" fill="#2d2d2e" fill-rule="evenodd"/>
          <path id="Caminho_180" data-name="Caminho 180" d="M196.444,297.257c2.021,2.19,2.319,3.66.62,5.59.726-1.857,1.026-2.855-.62-5.59" transform="translate(-106.521 -161.187)" fill="#2d2d2e" fill-rule="evenodd"/>
          <path id="Caminho_181" data-name="Caminho 181" d="M170.514,289.724c.854.969,2.293,2.441,1.737,4.295-.157.526-.81.243-1.376-.289-1.425-1.338-1.3-.844-3.193-1.169a9.345,9.345,0,0,1-3.936-1.811c-1.734-1.269-2.989-2.884-5.046-4.613a16.848,16.848,0,0,0-7.843-3.963c5.237,1.074,7.124,2.045,12,6.749a37.988,37.988,0,0,0-5.636-5.717c4.089,1.961,5.084,4.2,8.339,7.158a42.943,42.943,0,0,0-3.9-5.121c1.267.579,5.906,6.432,6.334,6.444a23.7,23.7,0,0,1-3.289-4.64c.353.379,3.079,2.89,4.567,4.691-.161-.714-2.657-3.306-3.743-4.574,1.914,1.533,2.3,2.139,4.843,4.414a37.032,37.032,0,0,0-4.536-5.011,22.9,22.9,0,0,1,5.764,5.775,9.286,9.286,0,0,0-1.087-2.618" transform="translate(-81.802 -153.009)" fill="#2d2d2e" fill-rule="evenodd"/>
          <path id="Caminho_182" data-name="Caminho 182" d="M147.82,288.809c-3.459-2.011-5.494-4.2-9.748-4.217l3.021.918c-1.781-.265-7.113-1.741-10.838,1.039,3.053-.945,6.124-1.314,10.775.848l-1.134-1.111a66.986,66.986,0,0,1,7.925,2.523" transform="translate(-70.631 -154.319)" fill="#2d2d2e" fill-rule="evenodd"/>
          <path id="Caminho_183" data-name="Caminho 183" d="M253.9,290.436a7.285,7.285,0,0,1,2.325-3.154l-.32,1.081a12.064,12.064,0,0,1,5.045-2.971,23.311,23.311,0,0,0-2.73,2.682,46.536,46.536,0,0,1,4.861-3.793c5.53-3.217,10.182-3.793,16.478-3.517a21.978,21.978,0,0,1,5.968.806,18.524,18.524,0,0,0-2.186.046c3.514.542,6.2,3.326,7.751,6.683-2.668-2.36-5.762-3.975-10.371-3.161-3.138.554-5.116,2.345-10.416,3.974l1.849-1.331c-2.67,1.335-5.092,2.935-7.692,4.371-4.013,2.216-4.17.66-6.1,2.306a3.616,3.616,0,0,1-2.9,1.1c-1.929-.705-2.519-2.421-1.568-5.119" transform="translate(-137.435 -152.21)" fill="#2d2d2e" fill-rule="evenodd"/>
          <path id="Caminho_184" data-name="Caminho 184" d="M256.289,290.348a13.594,13.594,0,0,1,3.649-3.177c-.905,1.272-2.489,2.628-2.72,4.524a9.432,9.432,0,0,1,4.078-4.041l-2.033,2.508c3.881-3.806,6.907-5.991,10.845-7.275a28.235,28.235,0,0,1,13.5-.907,14.165,14.165,0,0,0-4.6.6c5.9.012,8.266-.236,12.042,4.565-3.75-3.526-9.326-3.321-15.425.466l1.693-1.891a8.016,8.016,0,0,0-3.74.818c-2.387.915-4.06,2.677-6.822,4.345a13.781,13.781,0,0,1-3.892,1.692,10.516,10.516,0,0,0-1.762.239c-1.5.6-2.425,1.991-4.06,2.084-2.044.115-1.511-3.478-.753-4.549" transform="translate(-138.606 -152.681)" fill="#2d2d2e" fill-rule="evenodd"/>
          <path id="Caminho_185" data-name="Caminho 185" d="M259.04,297.257c-2.021,2.19-2.319,3.66-.62,5.59-.726-1.857-1.026-2.855.62-5.59" transform="translate(-139.528 -161.187)" fill="#2d2d2e" fill-rule="evenodd"/>
          <path id="Caminho_186" data-name="Caminho 186" d="M261.525,289.724c-.854.969-2.293,2.441-1.737,4.295.157.526.81.243,1.376-.289,1.425-1.338,1.3-.844,3.193-1.169a9.345,9.345,0,0,0,3.936-1.811c1.734-1.269,2.989-2.884,5.046-4.613a16.848,16.848,0,0,1,7.843-3.963c-5.237,1.074-7.125,2.045-12,6.749a37.986,37.986,0,0,1,5.636-5.717c-4.089,1.961-5.084,4.2-8.339,7.158a42.952,42.952,0,0,1,3.9-5.121c-1.267.579-5.906,6.432-6.334,6.444a23.7,23.7,0,0,0,3.289-4.64c-.353.379-3.079,2.89-4.567,4.691.161-.714,2.657-3.306,3.743-4.574-1.914,1.533-2.3,2.139-4.843,4.414a37.063,37.063,0,0,1,4.536-5.011,22.9,22.9,0,0,0-5.764,5.775,9.285,9.285,0,0,1,1.087-2.618" transform="translate(-140.802 -153.009)" fill="#2d2d2e" fill-rule="evenodd"/>
          <path id="Caminho_187" data-name="Caminho 187" d="M288.9,288.809c3.459-2.011,5.494-4.2,9.748-4.217l-3.021.918c1.781-.265,7.112-1.741,10.838,1.039-3.053-.945-6.124-1.314-10.775.848l1.134-1.111a66.99,66.99,0,0,0-7.925,2.523" transform="translate(-156.656 -154.319)" fill="#2d2d2e" fill-rule="evenodd"/>
          <path id="Caminho_188" data-name="Caminho 188" d="M14.447,163.081a2.577,2.577,0,0,1,1.821,2.815c-.024,15.48-.015,61.549-.015,83.247v.779c.257-.246.43-.4.6-.57q3.624-3.638,7.246-7.278a2.194,2.194,0,0,1,2.278-.609,2.135,2.135,0,0,1,1.566,1.693,2.236,2.236,0,0,1-.7,2.151q-3.286,3.3-6.565,6.6-2.447,2.46-4.9,4.918a2.283,2.283,0,0,1-3.559,0Q6.5,251.093.8,245.348a2.262,2.262,0,1,1,3.218-3.155q3.587,3.6,7.166,7.2c.145.146.268.315.4.474l.157-.046V249.2c0-15.5.009-67.8-.015-83.3a2.58,2.58,0,0,1,1.821-2.817Z" transform="translate(0 -88.43)" fill="#6e92a0"/>
        </g>
      </g>
    </g>
  </g>
</svg>
