<svg xmlns="http://www.w3.org/2000/svg" xmlns:xlink="http://www.w3.org/1999/xlink" width="148.419" height="224.9" viewBox="0 0 148.419 224.9">
  <defs>
    <clipPath id="clip-path">
      <rect id="Retângulo_218" data-name="Retângulo 218" width="148.419" height="224.9" fill="none"/>
    </clipPath>
  </defs>
  <g id="foto_02" data-name="foto 02" transform="translate(0.001)">
    <g id="Grupo_168" data-name="Grupo 168" transform="translate(-0.001)" clip-path="url(#clip-path)">
      <path id="Caminho_189" data-name="Caminho 189" d="M137.318,217.057a10.666,10.666,0,0,1-.946.5c-4.838,2.25-41.555,17.7-99.13-2.275a3.534,3.534,0,0,1-1.574-5.589c2.839-3.438,6.738-8.576,8.478-12.735.1-.241.2-.483.277-.715l.009-.025a9.98,9.98,0,0,0,.586-3.437V170.457a10.526,10.526,0,0,0-5.438-9.218c-6.665-3.679-18.446,2-24.145-1.945a10.485,10.485,0,0,1-4.217-6.164c-1.546-6.392-4.207-31.8-5.376-34.009A8.9,8.9,0,0,1,5.361,118c-1.446-3.98-6.636-20.361.748-33.013a10.5,10.5,0,0,0,1.4-6c-.252-3.716-.79-9.409-1.844-12.6a10.242,10.242,0,0,1-.5-3.561C5.538,51.6,10.893,2.852,75.269.87a10.708,10.708,0,0,1,1.407.05c6.154.619,46.953,6.267,63.573,48.3.061.153.125.3.193.455,1.078,2.365,11.01,25.32,3.251,52.081-.068.233-.144.465-.226.694l-8.649,23.928q-.18.5-.408.974c-.047.1-.1.215-.164.346-2.185,4.663-12.721,28.97-6.983,52.5.069.283.127.569.172.856.325,2.051,2.357,11.837,11.789,13.821a11.926,11.926,0,0,1,1.307.339c3.843,1.278,20.171,7.895-3.211,21.842" transform="translate(-1.238 -0.478)" fill="#ffc5a5"/>
      <path id="Caminho_190" data-name="Caminho 190" d="M177.251,338.194s-37.788,19.464-99.676-2.012A3.534,3.534,0,0,1,76,330.593c2.839-3.439,6.738-8.576,8.478-12.735l.268-.134.009-.581.595-32.033,2.593-65.564L174.577,248.6c-2.2,4.695-12.864,29.3-6.864,52.977,0,0,1.337,12.395,12.395,14.3,0,0,24.029,6.484-2.857,22.312" transform="translate(-41.57 -121.378)" fill="#ffc5a5"/>
      <path id="Caminho_191" data-name="Caminho 191" d="M77.681,242.655l12.858-.247s.247-55.638.247-57.616S98.7,145.474,95.98,143s-22.255-1.484-23.244-1.484-7.171,8.9-7.171,8.9L62.35,161.3l-.73,2.969s-3.867,23.47,12.2,25.077l3.8,52.517" transform="translate(-33.842 -78.131)" fill="#ffc5a5"/>
      <path id="Caminho_192" data-name="Caminho 192" d="M45.4,79.5c3.19-5.4,8.438-9.772,13.736,5.268,0,0,2.187,8.751.273,13.4,0,0,2.735,19.142,11.485,26.252,0,0,4.648,18.595,40.744,19.962,0,0,21.876.273,30.08-6.836,0,0,31.994-58.792,11.485-87.5,0,0-16.134-48.675-69.731-50.042,0,0-44.716.593-59.482,34.774,0,0-3.412,7.884,9.44,10.345l5,58.965a.842.842,0,0,0,1.675.033l1.724-13.91A27.694,27.694,0,0,1,45.4,79.5" transform="translate(-13.038)" fill="#2d2d2e"/>
      <path id="Caminho_193" data-name="Caminho 193" d="M76.086,195.016c3.266-2.082,7.7.18,8.94,3.614,1.523,3.567.495,7.557-.44,11.1a17.424,17.424,0,0,0-5.1.334c-.368.1-.9.139-1.111.42-.191.312-.035.826.087,1.2a9.744,9.744,0,0,0,2.471,3.938,8.254,8.254,0,0,1-3.435-4.505c-.284-1.277.655-1.778,1.734-2.041a16.041,16.041,0,0,1,4.893-.659l-.645.485c.765-3.25,1.609-6.627.463-9.846-1.011-3.164-4.591-5.317-7.852-4.04" transform="translate(-42.065 -107.375)" fill="#d3a289"/>
      <path id="Caminho_194" data-name="Caminho 194" d="M7.242,154.127a4.535,4.535,0,0,1,1.392-1.741l-.293.692a3.684,3.684,0,0,1,2.405-1.068,10.937,10.937,0,0,0-1.472,1.329,17.568,17.568,0,0,1,2.466-1.68c2.631-1.143,4.506-.615,6.876.836a7.437,7.437,0,0,1,2.161,1.757,4.858,4.858,0,0,0-.846-.4c1.261,1.082,1.849,3.565,1.911,6.222-.648-2.183-1.578-3.932-3.474-4.284-1.291-.24-2.335.617-4.625.7l.921-.561c-1.236.4-2.418,1.034-3.643,1.518-1.891.747-1.7-.372-2.7.393-.74.567-1.207.3-1.286.188-.627-.879-.581-2.2.211-3.892" transform="translate(-3.649 -83.503)" fill="#433031" fill-rule="evenodd"/>
      <path id="Caminho_195" data-name="Caminho 195" d="M8.314,154.566a5.752,5.752,0,0,1,1.9-1.492,7.389,7.389,0,0,0-1.761,2.62,4.333,4.333,0,0,1,2.2-2.01l-1.178,1.347c2.092-1.885,3.6-2.807,5.312-2.918a7.246,7.246,0,0,1,5.32,2.066,3.413,3.413,0,0,0-1.857-.5c2.259,1.188,3.206,1.488,3.892,5.6-.878-3.215-3.048-4.187-5.988-2.76l.949-.984a1.913,1.913,0,0,0-1.564-.176c-1.06.162-1.981,1.06-3.305,1.674a3.571,3.571,0,0,1-1.761.4c-.243-.021-.448-.232-.714-.185-.67.12-1.246.907-1.887.645-.8-.328-.027-2.734.433-3.332" transform="translate(-4.165 -84.09)" fill="#433031" fill-rule="evenodd"/>
      <path id="Caminho_196" data-name="Caminho 196" d="M9.865,155.936a3.608,3.608,0,0,0-1.125,3.785,5.531,5.531,0,0,1,1.125-3.785" transform="translate(-4.761 -86.211)" fill="#433031" fill-rule="evenodd"/>
      <path id="Caminho_197" data-name="Caminho 197" d="M10.555,155.139a3.922,3.922,0,0,0-1.348,2.656c-.023.4.272.331.574.073.759-.651.63-.331,1.41-.179a2.5,2.5,0,0,0,1.8-.478c.866-.541,1.6-1.419,2.667-2.216a4.783,4.783,0,0,1,3.636-1.2c-2.178-.3-3.056,0-5.673,2.318a18.1,18.1,0,0,1,3.068-2.87c-1.879.553-2.615,1.919-4.333,3.337a25.872,25.872,0,0,1,2.308-2.8c-.578.152-3.285,3.316-3.451,3.239a14.977,14.977,0,0,0,2-2.587c-.2.194-1.639,1.4-2.5,2.367a17.762,17.762,0,0,1,2.161-2.449c-.977.689-1.22,1.036-2.558,2.118a19.1,19.1,0,0,1,2.535-2.6,10.823,10.823,0,0,0-3.127,2.885,8.134,8.134,0,0,1,.833-1.613" transform="translate(-5.09 -84.72)" fill="#433031" fill-rule="evenodd"/>
      <path id="Caminho_198" data-name="Caminho 198" d="M22.893,157.555c1.645-.715,2.774-1.84,4.407-1l-1.3.038a4.412,4.412,0,0,1,3.99,2.893c-1.02-1.271-2.139-2.144-4.265-1.562l.611-.55a15.9,15.9,0,0,0-3.439.179" transform="translate(-12.657 -86.388)" fill="#433031" fill-rule="evenodd"/>
      <path id="Caminho_199" data-name="Caminho 199" d="M5.744,178.523c2.584-4.961,9.949-6.586,13.5-1.747-5.187-2.267-8.861-1.037-13.5,1.747" transform="translate(-3.176 -96.125)" fill="#3b2e28"/>
      <path id="Caminho_200" data-name="Caminho 200" d="M114.5,391.273c-.2,1.355-.61,1.809-1.216,1.784-6.7-.275-102.894-3.066-109.589-3.316l-.337-.013c.106.262.175.439.247.607q1.578,3.7,3.155,7.4a4.468,4.468,0,0,1,.266,2.3c-.1.841-.359,1.371-.731,1.546s-.67-.123-.931-.736q-1.429-3.356-2.862-6.7-1.067-2.5-2.132-5a4.516,4.516,0,0,1,0-3.577q2.476-5.65,4.955-11.291c.44-1,1.03-1.029,1.433-.083a4.582,4.582,0,0,1-.065,3.367Q5.138,381.1,3.583,384.64c-.063.144-.136.264-.2.4l.02.158.267.01c6.7.251,102.91,3.06,109.614,3.287.6.021,1.021.507,1.22,1.875q0,.453,0,.907" transform="translate(0 -206.493)" fill="#6e92a0"/>
    </g>
  </g>
</svg>
