<svg id="foto_03" data-name="foto 03" xmlns="http://www.w3.org/2000/svg" xmlns:xlink="http://www.w3.org/1999/xlink" width="131.162" height="227.641" viewBox="0 0 131.162 227.641">
  <defs>
    <clipPath id="clip-path">
      <rect id="Retângulo_219" data-name="Retângulo 219" width="131.162" height="227.641" fill="none"/>
    </clipPath>
  </defs>
  <g id="Grupo_170" data-name="Grupo 170" clip-path="url(#clip-path)">
    <path id="Caminho_201" data-name="Caminho 201" d="M65.726,229.982l61-.127a3.387,3.387,0,0,0,2.035-6.085c-10.81-8.377-23.563-28.184-18.372-74.735a3.418,3.418,0,0,1,2.95-3.026,9.977,9.977,0,0,0,8.568-7.074l7.855-20.838s3.676-9.435-1.4-11.593a3.327,3.327,0,0,1-1.858-3.867c3.048-12.448,11.379-55.561-13.077-76.879a3.235,3.235,0,0,1-.313-.313C111.461,23.54,94.81,5.218,65.726,4.3V4.285l-.2.007-.2-.007V4.3c-29.084.918-45.735,19.241-47.39,21.145a3.133,3.133,0,0,1-.313.313C-6.836,47.076,1.5,90.188,4.543,102.636A3.326,3.326,0,0,1,2.685,106.5c-5.075,2.157-1.4,11.593-1.4,11.593l7.854,20.838a9.977,9.977,0,0,0,8.569,7.074,3.419,3.419,0,0,1,2.95,3.026c5.191,46.551-7.562,66.358-18.373,74.735a3.388,3.388,0,0,0,2.035,6.085l61,.127h.4Z" transform="translate(0 -2.342)" fill="#ffc5a5"/>
    <path id="Caminho_202" data-name="Caminho 202" d="M38.509,164.457A44.481,44.481,0,0,1,22,146.366l-5.882-11.845S-20.45,56.739,17.4,21.616c0,0,23.133-19.8,48.138-21.616h.456c25,1.814,48.138,21.616,48.138,21.616,37.849,35.123,1.283,112.905,1.283,112.905l-5.939,11.96a44.483,44.483,0,0,1-16.309,17.965L74.5,176.082a16.183,16.183,0,0,1-17.048.045Z" transform="translate(-0.13)" fill="#2d2d2e"/>
  </g>
</svg>
