<svg xmlns="http://www.w3.org/2000/svg" xmlns:xlink="http://www.w3.org/1999/xlink" width="176.396" height="213.247" viewBox="0 0 176.396 213.247">
  <defs>
    <clipPath id="clip-path">
      <rect id="Retângulo_220" data-name="Retângulo 220" width="176.396" height="213.247" fill="none"/>
    </clipPath>
  </defs>
  <g id="foto_04" data-name="foto 04" transform="translate(0)">
    <g id="Grupo_172" data-name="Grupo 172" transform="translate(0)" clip-path="url(#clip-path)">
      <path id="Caminho_203" data-name="Caminho 203" d="M167.259,114.955c-.512.627-.821.986-.821.986a64.942,64.942,0,0,1-4.133,13.518,135.451,135.451,0,0,1-7.14,14.66c-4.084,30.855-40.152,49.594-40.152,49.594-.986,2.677-12.539,10-12.539,10l-.141.705c-.916,4.224-4.446,8.118-7.751,10.96A47.434,47.434,0,0,1,88.2,220c-.012,0-12.3-7.136-14.136-15.584l-.141-.705s-11.554-7.326-12.539-10c0,0-36.064-18.739-40.152-49.594a135.45,135.45,0,0,1-7.14-14.66v0l-.012-.033c-1.279-3.126-1.575-6.715-3.3-9.656-.681-1.161-.615-2.582-.817-3.824,0,0-.31-.354-.825-.981v0C5.476,110.467-8.45,92.177,7.46,91.761c0,0,0-.651.07-1.84a.488.488,0,0,1,0-.078,94.932,94.932,0,0,1,10.11-36.852c10.1-19.342,30.223-38.691,70.3-38.77h.5c72.874.149,79.767,63.973,80.419,75.7.066,1.188.07,1.84.07,1.84,15.91.417,1.988,18.707-1.675,23.195" transform="translate(0 -6.757)" fill="#ffc5a5"/>
      <path id="Caminho_204" data-name="Caminho 204" d="M81.885,331.77s16.786,14.971,40.83,14.517c0,0-23.364,3.856-40.83-14.517" transform="translate(-38.909 -157.645)" fill="#2d2d2e"/>
      <path id="Caminho_205" data-name="Caminho 205" d="M81.885,331.77s16.786,14.971,40.83,14.517C122.715,346.288,99.351,350.143,81.885,331.77Z" transform="translate(-38.909 -157.645)" fill="none" stroke="#2d2d2e" stroke-miterlimit="10" stroke-width="2"/>
      <path id="Caminho_206" data-name="Caminho 206" d="M216.939,331.77s-16.785,14.971-40.83,14.517c0,0,23.364,3.856,40.83-14.517" transform="translate(-83.681 -157.645)" fill="#2d2d2e"/>
      <path id="Caminho_207" data-name="Caminho 207" d="M216.939,331.77s-16.785,14.971-40.83,14.517C176.109,346.288,199.473,350.143,216.939,331.77Z" transform="translate(-83.681 -157.645)" fill="none" stroke="#2d2d2e" stroke-miterlimit="10" stroke-width="2"/>
      <path id="Caminho_208" data-name="Caminho 208" d="M162.939,35.383S143.935.05,94.653,0V0h-.1V0C45.271.05,26.266,35.383,26.266,35.383-5.252,93.066,33.4,153.127,33.4,153.127c6.01,1.829,6.508-22.518,6.541-28.448a3.74,3.74,0,0,1,1.4-3.007c3.357-2.5,8.965,2.108,13.8,7.444a79.879,79.879,0,0,1,11.222,16.247c9.019,16.983,26.772,23.305,28.187,23.786v.034l.05-.016.05.016v-.034c1.414-.481,19.168-6.8,28.187-23.786a79.86,79.86,0,0,1,11.223-16.247c4.836-5.335,10.444-9.946,13.8-7.444a3.738,3.738,0,0,1,1.4,3.007c.033,5.93.532,30.277,6.541,28.448,0,0,38.654-60.061,7.136-117.744" transform="translate(-6.603)" fill="#2d2d2e"/>
    </g>
  </g>
</svg>
