<svg xmlns="http://www.w3.org/2000/svg" xmlns:xlink="http://www.w3.org/1999/xlink" id="Grupo_239" data-name="Grupo 239" width="85.994" height="86.611" viewBox="0 0 85.994 86.611"><defs><clipPath id="clip-path"><rect id="Ret&#xE2;ngulo_696" data-name="Ret&#xE2;ngulo 696" width="85.994" height="86.611" fill="none"></rect></clipPath></defs><g id="Grupo_238" data-name="Grupo 238" clip-path="url(#clip-path)"><path id="Caminho_359" data-name="Caminho 359" d="M26.049,0a1.722,1.722,0,0,1,.918,1.743c-.025,3.551-.011,7.1-.011,10.652v.991h1.012q5.326,0,10.652,0c1.3,0,1.745.431,1.749,1.713q.014,4.9,0,9.807c0,1.31-.411,1.706-1.736,1.708-3.551.005-7.1.026-10.652-.017-.8-.01-1.057.178-1.046,1.013.046,3.522.022,7.045.018,10.567,0,1.481-.374,1.857-1.845,1.859q-4.777.006-9.553,0c-1.443,0-1.837-.411-1.838-1.883q0-5.242,0-10.483V26.617H12.77q-5.326,0-10.652,0C.711,26.614.335,26.227.335,24.8q0-4.861,0-9.722c0-1.239.441-1.685,1.676-1.687q5.326-.009,10.652,0h1.054v-.932c0-3.523.016-7.045-.012-10.568A2,2,0,0,1,14.545,0Zm-9.73,2.625V3.656q0,5.284,0,10.568c0,1.372-.389,1.749-1.773,1.75q-5.284.007-10.568,0h-1v8.06h.991q5.242,0,10.483,0c1.478,0,1.864.374,1.866,1.838q.007,5.242,0,10.483v.995h8.049v-.986q0-5.284,0-10.568c0-1.341.426-1.761,1.775-1.762q5.326,0,10.652,0h.925v-8.06H36.7q-5.284,0-10.568,0c-1.35,0-1.758-.416-1.759-1.769q0-5.326,0-10.652V2.625Z" transform="translate(-0.276)" fill="#b3c5ce"></path><path id="Caminho_360" data-name="Caminho 360" d="M185.9,143.872a31.592,31.592,0,0,0,11.381-6.458,26.386,26.386,0,0,0,8.677-16.639c.118-.936.607-1.411,1.386-1.358.8.055,1.257.641,1.169,1.63a23.9,23.9,0,0,1-1.928,7.493,3.771,3.771,0,0,0-.086,3.182,20.447,20.447,0,0,0,2.132,4c2.07,2.741,4.318,5.347,6.483,8.016a18.927,18.927,0,0,1,1.31,1.762,3.473,3.473,0,0,1-.558,4.878,42.526,42.526,0,0,1-3.683,2.714,14.755,14.755,0,0,0,1.227,2.07,2.173,2.173,0,0,1,.5,2.409,13.251,13.251,0,0,1-1.409,2.281.963.963,0,0,0-.2,1.109c1.24,2.958,1.217,3.169-1.33,5.05a2.236,2.236,0,0,0-1.019,2.682c1.044,5.019-2.475,8.592-7.572,7.837-1.446-.214-2.873-.556-4.313-.819-2.156-.394-3.409.189-4.311,2.184a24.034,24.034,0,0,0-1.123,3.439c-.281,1-.831,1.5-1.614,1.318-.8-.189-1.146-.84-.922-1.873a12.852,12.852,0,0,1,2.734-6.147c-.815-.182-1.534-.35-2.257-.5-1.35-.283-2.7-.55-4.052-.837-1.011-.215-1.5-.817-1.329-1.6s.866-1.138,1.883-.928q7.029,1.456,14.055,2.924a7.6,7.6,0,0,0,3.839.145c2.064-.626,2.861-2.024,2.509-4.5a4.518,4.518,0,0,0-.4-1.459,1.782,1.782,0,0,1,.5-2.348c.89-.816,1.845-1.561,2.79-2.352-.051-.164-.11-.319-.146-.479-.182-.823-.543-1.145-1.514-1.027a8.77,8.77,0,0,1-5.648-1.353,1.292,1.292,0,0,1-.6-1.85c.395-.661,1.081-.728,1.928-.389a13.943,13.943,0,0,0,3.186.992c2.018.278,2.856-.275,3.822-2.172a9.383,9.383,0,0,1-1.914-4.336c-.193-.965.063-1.358.927-1.81a26.768,26.768,0,0,0,3.4-2c.95-.694.975-1.218.235-2.139-1.641-2.043-3.359-4.024-5.013-6.056-.924-1.136-1.841-2.285-2.658-3.5-.8-1.186-1.468-2.459-2.214-3.727a1.7,1.7,0,0,0-.206.228c-4.242,6.358-10.215,10.368-17.354,12.8-.506.172-1.01.36-1.529.482a1.268,1.268,0,0,1-1.736-1.347c-.027-1.463,0-2.927-.011-4.391a4.6,4.6,0,1,0-9.2-.045c-.013.564.027,1.13-.009,1.691a3.8,3.8,0,0,0,1.626,3.5,5.946,5.946,0,0,1,2.035,3.325,2.808,2.808,0,0,0,.9,1.44,1.552,1.552,0,0,0,2.353-.944c.175-.533.258-1.1.418-1.635a1.283,1.283,0,0,1,1.523-1,1.314,1.314,0,0,1,.978,1.623c-.124.606-.272,1.209-.453,1.8a4.135,4.135,0,0,1-4.054,2.978,4.052,4.052,0,0,1-4.014-3.02,5.48,5.48,0,0,0-1.958-3.14,4.637,4.637,0,0,1-1.823-3.415,20.428,20.428,0,0,1,.158-5.034,6.99,6.99,0,0,1,7.784-5.4,7.129,7.129,0,0,1,6.3,6.665c.066,1.064.01,2.135.01,3.366" transform="translate(-142.489 -99.172)" fill="#b3c5ce"></path><path id="Caminho_361" data-name="Caminho 361" d="M233.378,42.949c-.169,11.83-3.555,21.163-10.353,29.234-.687.815-1.39.972-2.037.458s-.634-1.31.071-2.142a39.15,39.15,0,0,0,9-18.92c2.116-12.329-.7-23.459-8.681-33.13A39.092,39.092,0,0,0,198.5,4.734a40.224,40.224,0,0,0-18.744.59c-1.34.359-2,.141-2.23-.737s.233-1.4,1.562-1.763a42.938,42.938,0,0,1,53.463,33.364c.493,2.649.663,5.357.831,6.761" transform="translate(-147.385 -1.067)" fill="#b3c5ce"></path><path id="Caminho_362" data-name="Caminho 362" d="M0,193.358a45.557,45.557,0,0,1,1.583-11.189,1.31,1.31,0,0,1,2.128-.846c.53.453.45,1.026.351,1.635a83.211,83.211,0,0,0-1.3,8.5,39.155,39.155,0,0,0,8.584,27.081,40.415,40.415,0,0,0,6.738,6.745c.3.238.708.56.731.868a2.03,2.03,0,0,1-.389,1.411,1.142,1.142,0,0,1-1.676-.061c-1.813-1.646-3.736-3.2-5.388-4.992A42.067,42.067,0,0,1,.277,197.912C.116,196.4.089,194.876,0,193.358" transform="translate(0 -150.327)" fill="#b3c5ce"></path><path id="Caminho_363" data-name="Caminho 363" d="M395.176,108.44a17.428,17.428,0,0,1-2.949,9.525c-.513.794-1.193,1-1.855.623a1.288,1.288,0,0,1-.345-1.966,16.035,16.035,0,0,0,2.215-5.253,16.417,16.417,0,0,0-.645-9.052,2.13,2.13,0,0,1,.051-1.57c.51-.9,1.809-.644,2.246.424a18.4,18.4,0,0,1,1.282,7.27" transform="translate(-323.667 -83.213)" fill="#b3c5ce"></path><path id="Caminho_364" data-name="Caminho 364" d="M198.948,238.526a3.228,3.228,0,0,1,6.267-1.178c.241.6.47,1.206.651,1.825a1.274,1.274,0,0,1-.735,1.673,1.289,1.289,0,0,1-1.695-.824c-.224-.545-.354-1.133-.622-1.653-.126-.244-.51-.541-.724-.5s-.381.45-.564.7c-.014.019,0,.055,0,.083-.105,1.161-.546,1.705-1.345,1.661-.816-.045-1.244-.666-1.228-1.783" transform="translate(-165.225 -195.343)" fill="#b3c5ce"></path><path id="Caminho_365" data-name="Caminho 365" d="M177.789,461.935a5.529,5.529,0,0,1-.914,1.448,1.093,1.093,0,0,1-1.572-.267,2.644,2.644,0,0,1-.021-2.632,1.208,1.208,0,0,1,1.585-.338c.7.348.73,1,.714,1.666l.208.124" transform="translate(-145.287 -382.014)" fill="#b3c5ce"></path><path id="Caminho_366" data-name="Caminho 366" d="M26.97,475.115a6.435,6.435,0,0,1-1.518-.737,1.184,1.184,0,0,1,.137-1.727,2.681,2.681,0,0,1,2.706-.017,1.2,1.2,0,0,1,.168,1.727,6.372,6.372,0,0,1-1.494.754" transform="translate(-20.875 -392.222)" fill="#b3c5ce"></path><path id="Caminho_367" data-name="Caminho 367" d="M177.81,421.281a6.227,6.227,0,0,1-.735,1.5,1.183,1.183,0,0,1-1.721-.157,2.65,2.65,0,0,1,0-2.7,1.181,1.181,0,0,1,1.723-.153,6.216,6.216,0,0,1,.731,1.507" transform="translate(-145.324 -348.364)" fill="#b3c5ce"></path><path id="Caminho_368" data-name="Caminho 368" d="M67.463,474.8a1.478,1.478,0,0,1-1.62-.763,1.216,1.216,0,0,1,.329-1.526,2.481,2.481,0,0,1,2.541-.045,1.858,1.858,0,0,1,.484,1.37c-.154.886-.941,1-1.735.963" transform="translate(-54.568 -392.107)" fill="#b3c5ce"></path><path id="Caminho_369" data-name="Caminho 369" d="M50.946,491.72c-.009,1.11-.461,1.718-1.282,1.727-.933.009-1.38-.707-1.319-2.115.042-.976.606-1.538,1.456-1.45.813.084,1.156.635,1.146,1.838" transform="translate(-40.145 -406.837)" fill="#b3c5ce"></path><path id="Caminho_370" data-name="Caminho 370" d="M89.362,336.9a5,5,0,0,1-.672,0,1.257,1.257,0,0,1-1.1-1.361c.068-.769.634-1.177,1.643-1.185,1.253-.011,1.833.332,1.937,1.144a1.263,1.263,0,0,1-1.055,1.4,4.979,4.979,0,0,1-.756.006v.005" transform="translate(-72.741 -277.672)" fill="#b3c5ce"></path><path id="Caminho_371" data-name="Caminho 371" d="M51.015,451.2a5.2,5.2,0,0,1-.911,1.449,1.105,1.105,0,0,1-1.574-.278,2.642,2.642,0,0,1-.013-2.628,1.194,1.194,0,0,1,1.507-.372c.756.339.8,1.007.781,1.706l.209.122" transform="translate(-40.007 -373.097)" fill="#b3c5ce"></path><path id="Caminho_372" data-name="Caminho 372" d="M154.061,442.8c1.082.007,1.683.348,1.669,1.106-.007.418-.259,1.125-.524,1.188a5.714,5.714,0,0,1-2.34.056c-.283-.054-.6-.724-.633-1.135-.065-.83.6-1.223,1.827-1.216" transform="translate(-126.426 -367.746)" fill="#b3c5ce"></path><path id="Caminho_373" data-name="Caminho 373" d="M110.824,313.392c-.059-.73.046-1.464.832-1.638a1.979,1.979,0,0,1,1.415.39,2.323,2.323,0,0,1,.087,2.444,1.863,1.863,0,0,1-1.35.559c-.937-.144-1.054-.951-.984-1.757" transform="translate(-92.025 -258.891)" fill="#b3c5ce"></path><path id="Caminho_374" data-name="Caminho 374" d="M110.9,353.643a6.31,6.31,0,0,1,0-.672,1.083,1.083,0,0,1,1.082-1.081,1.954,1.954,0,0,1,1.258.615,2.355,2.355,0,0,1-.135,2.446,1.921,1.921,0,0,1-1.347.37c-.858-.174-.919-.939-.863-1.677" transform="translate(-92.088 -292.242)" fill="#b3c5ce"></path><path id="Caminho_375" data-name="Caminho 375" d="M129.758,336.933a6.017,6.017,0,0,1-1.46-.652,1.175,1.175,0,0,1,.059-1.726,2.641,2.641,0,0,1,2.76-.037,1.18,1.18,0,0,1,.137,1.723,6.07,6.07,0,0,1-1.5.693" transform="translate(-106.26 -277.506)" fill="#b3c5ce"></path><path id="Caminho_376" data-name="Caminho 376" d="M194.363,442.793c.752-.043,1.5.083,1.634.937a1.89,1.89,0,0,1-.489,1.372,2.5,2.5,0,0,1-2.537-.049,1.222,1.222,0,0,1-.335-1.525c.332-.756,1.033-.764,1.728-.735" transform="translate(-159.872 -367.73)" fill="#b3c5ce"></path></g></svg>