<svg xmlns="http://www.w3.org/2000/svg" xmlns:xlink="http://www.w3.org/1999/xlink" id="Grupo_237" data-name="Grupo 237" width="102.752" height="79.966" viewBox="0 0 102.752 79.966"><defs><clipPath id="clip-path"><rect id="Ret&#xE2;ngulo_695" data-name="Ret&#xE2;ngulo 695" width="102.752" height="79.966" fill="none"></rect></clipPath></defs><g id="Grupo_236" data-name="Grupo 236" clip-path="url(#clip-path)"><path id="Caminho_341" data-name="Caminho 341" d="M198.834,73.661a9.917,9.917,0,0,1-9.6-12.371,17.455,17.455,0,0,1,2.1-5.508c1.915-2.959,2.641-6.187,3.338-9.553,2.788-13.456,7.636-26.078,15.827-37.254a41.312,41.312,0,0,1,8.18-8.428c.716-.55,1.453-.853,2.141-.093.639.705.305,1.4-.237,2.058a71.6,71.6,0,0,0-15.69,33.364,100.091,100.091,0,0,0-.924,12.372c-.117,2.432.976,4.551,2.234,6.568a16.236,16.236,0,0,1,2.543,9.08,9.955,9.955,0,0,1-9.907,9.764M206.35,20.69c-.111.195-.246.409-.359.635A97.442,97.442,0,0,0,197.3,46.511c-.724,3.781-1.525,7.425-3.749,10.685a14.34,14.34,0,0,0-1.695,4.381,7.073,7.073,0,0,0,2.112,7.53,6.939,6.939,0,0,0,7.284,1.475c3.476-1.183,5.28-4.6,4.772-8.689a17.617,17.617,0,0,0-2.706-6.792,12.842,12.842,0,0,1-1.909-5.57A55.626,55.626,0,0,1,203.155,31.2c.913-3.535,2.115-6.995,3.194-10.514" transform="translate(-147.204 0.001)" fill="#b3c5ce"></path><path id="Caminho_342" data-name="Caminho 342" d="M37.418,232.608c-1.986.127-3.885.288-5.787.361a44.845,44.845,0,0,1-11.7-1.136,32.8,32.8,0,0,0-14.406.364c-1.183.255-2.359.542-3.54.8-1.055.234-1.747-.085-1.943-.88-.191-.776.289-1.412,1.328-1.682,6.821-1.771,13.646-2.644,20.67-.949,5.266,1.271,10.646,1.03,15.995.306a3.766,3.766,0,0,1,1.089-.12c.606.105,1.461.158,1.711.551.261.411.042,1.236-.161,1.811A60.253,60.253,0,0,0,38.5,237.89c-1.919,8.053,2.715,15.393,10.575,16.982a13.459,13.459,0,0,0,16-11.535,19.08,19.08,0,0,0-1.986-10.98c-.272-.565-.5-1.52-.222-1.885a2.537,2.537,0,0,1,1.907-.6,68.223,68.223,0,0,0,14.376-.909,79.723,79.723,0,0,1,19.339-.279c.914.078,1.83.154,2.74.267,1.079.134,1.615.679,1.516,1.485s-.774,1.193-1.826,1.131c-4.141-.244-8.291-.736-12.423-.624-4.536.123-9.053.848-13.584,1.234-2.484.211-4.982.266-7.474.384-.4.019-.8,0-1.051,0,.483,2.274,1.12,4.5,1.408,6.765a16.5,16.5,0,0,1-11.709,17.86,16.3,16.3,0,0,1-19.332-9.169c-2.019-4.767-1.622-9.526.222-14.248.144-.37.286-.74.447-1.159" transform="translate(0 -177.804)" fill="#b3c5ce"></path><path id="Caminho_343" data-name="Caminho 343" d="M224.675,18.535a1.24,1.24,0,0,1-1.162-1.825,7.561,7.561,0,0,1,2.011-1.958c.735-.487,1.753.241,1.781,1.138.026.819-1.784,2.639-2.629,2.645" transform="translate(-173.986 -11.371)" fill="#b3c5ce"></path><path id="Caminho_344" data-name="Caminho 344" d="M200.207,43.442c-.017,1.071-1.766,2.933-2.548,2.86a1.655,1.655,0,0,1-1.147-.654,1.461,1.461,0,0,1,.011-1.3,6.926,6.926,0,0,1,1.684-1.691,1.55,1.55,0,0,1,1.311-.058c.356.163.556.669.689.845" transform="translate(-152.979 -33.094)" fill="#b3c5ce"></path><path id="Caminho_345" data-name="Caminho 345" d="M199.875,17.248a1.232,1.232,0,0,1-1.812,1.173,7.241,7.241,0,0,1-1.961-2c-.508-.785.3-1.841,1.234-1.789a4.3,4.3,0,0,1,2.539,2.618" transform="translate(-152.652 -11.396)" fill="#b3c5ce"></path><path id="Caminho_346" data-name="Caminho 346" d="M224.759,42.195c1.129-.013,3.029,1.793,2.911,2.606a1.652,1.652,0,0,1-.719,1.109,1.509,1.509,0,0,1-1.3-.08,6.458,6.458,0,0,1-1.613-1.612,1.58,1.58,0,0,1-.1-1.309c.153-.361.652-.577.823-.714" transform="translate(-174.383 -32.872)" fill="#b3c5ce"></path><path id="Caminho_347" data-name="Caminho 347" d="M144.426,137.349c0,1.6-.365,2.215-1.315,2.215s-1.331-.636-1.33-2.212c0-.146,0-.293,0-.439.022-1.124.541-1.808,1.38-1.721,1.011.1,1.315.8,1.266,1.717-.008.146,0,.293,0,.439" transform="translate(-110.454 -105.317)" fill="#b3c5ce"></path><path id="Caminho_348" data-name="Caminho 348" d="M328.542,174.34a1.237,1.237,0,0,1-1.149-1.824,6.9,6.9,0,0,1,1.922-1.883,1.273,1.273,0,0,1,1.832,1.187,4.087,4.087,0,0,1-2.6,2.52" transform="translate(-254.915 -132.806)" fill="#b3c5ce"></path><path id="Caminho_349" data-name="Caminho 349" d="M121.827,120.9c1.557-.012,2.218.393,2.191,1.329-.027.914-.7,1.305-2.256,1.3a5.959,5.959,0,0,1-.876-.021,1.247,1.247,0,0,1-1.228-1.4,1.21,1.21,0,0,1,1.292-1.211c.291-.017.585,0,.877,0" transform="translate(-93.217 -94.183)" fill="#b3c5ce"></path><path id="Caminho_350" data-name="Caminho 350" d="M304.81,172.708a1.24,1.24,0,0,1-1.873,1.172,6.869,6.869,0,0,1-1.819-1.844,1.285,1.285,0,0,1,1.231-1.877,4.336,4.336,0,0,1,2.462,2.549" transform="translate(-234.451 -132.56)" fill="#b3c5ce"></path><path id="Caminho_351" data-name="Caminho 351" d="M302.373,201.435c-.563-.479-1.049-.705-1.2-1.068a1.584,1.584,0,0,1,.11-1.3,4.527,4.527,0,0,1,1.549-1.5,1.747,1.747,0,0,1,1.616.137,1.638,1.638,0,0,1,.136,1.6,15.981,15.981,0,0,1-2.217,2.129" transform="translate(-234.564 -153.815)" fill="#b3c5ce"></path><path id="Caminho_352" data-name="Caminho 352" d="M330.908,199.426a1.231,1.231,0,0,1-1.829,1.161,6.938,6.938,0,0,1-1.855-1.842,1.265,1.265,0,0,1,1.223-1.88,4.031,4.031,0,0,1,2.46,2.561" transform="translate(-254.777 -153.367)" fill="#b3c5ce"></path><path id="Caminho_353" data-name="Caminho 353" d="M144.236,100.846c0,.329.131.758-.027.966-.337.442-.822,1.056-1.253,1.061a1.814,1.814,0,0,1-1.269-1.021,4.6,4.6,0,0,1-.071-1.841,1.266,1.266,0,0,1,1.355-1.4c.861.022,1.287.6,1.282,1.465,0,.256,0,.512,0,.768h-.016" transform="translate(-110.282 -76.825)" fill="#b3c5ce"></path><path id="Caminho_354" data-name="Caminho 354" d="M158.538,120.863c.182,0,.365-.006.548,0,1.087.035,1.66.5,1.611,1.344-.056.973-.7,1.282-1.57,1.3q-.6.009-1.205,0c-.876-.013-1.537-.352-1.551-1.312s.611-1.332,1.51-1.327c.219,0,.438,0,.657,0" transform="translate(-121.821 -94.156)" fill="#b3c5ce"></path><path id="Caminho_355" data-name="Caminho 355" d="M387.682,65.212c-.255,0-.51.006-.765,0a1.241,1.241,0,0,1-1.354-1.27,1.264,1.264,0,0,1,1.3-1.34,10.629,10.629,0,0,1,1.529-.011c.846.045,1.424.486,1.4,1.351s-.594,1.281-1.459,1.276c-.219,0-.437,0-.656,0Z" transform="translate(-300.373 -48.744)" fill="#b3c5ce"></path><path id="Caminho_356" data-name="Caminho 356" d="M372.107,78.187c0-.291-.116-.669.023-.857.332-.449.725-1.015,1.2-1.154.728-.211,1.247.329,1.367,1.066a9.089,9.089,0,0,1,.034,1.635c-.017.839-.4,1.437-1.286,1.452-.947.015-1.35-.583-1.353-1.486,0-.219,0-.437,0-.656Z" transform="translate(-289.856 -59.309)" fill="#b3c5ce"></path><path id="Caminho_357" data-name="Caminho 357" d="M372.105,44.255c0-.291-.117-.67.023-.857.335-.446.732-1.009,1.212-1.146.73-.208,1.244.335,1.361,1.072a9.128,9.128,0,0,1,.032,1.636c-.02.84-.4,1.435-1.293,1.445-.947.01-1.344-.593-1.345-1.495q0-.328,0-.656h.011" transform="translate(-289.854 -32.882)" fill="#b3c5ce"></path><path id="Caminho_358" data-name="Caminho 358" d="M353.732,65.1c-.291,0-.584.021-.873,0-.78-.067-1.308-.576-1.182-1.274a2.123,2.123,0,0,1,1.1-1.253,3.659,3.659,0,0,1,1.614-.084c.885.026,1.509.442,1.478,1.382-.029.877-.625,1.259-1.48,1.249-.219,0-.437,0-.656,0V65.1" transform="translate(-273.961 -48.643)" fill="#b3c5ce"></path></g></svg>