<svg xmlns="http://www.w3.org/2000/svg" xmlns:xlink="http://www.w3.org/1999/xlink" id="Grupo_302" data-name="Grupo 302" width="81.313" height="55.88" viewBox="0 0 81.313 55.88"><defs><clipPath id="clip-path"><rect id="Ret&#xE2;ngulo_768" data-name="Ret&#xE2;ngulo 768" width="81.313" height="55.88" fill="#638796"></rect></clipPath></defs><g id="Grupo_301" data-name="Grupo 301" clip-path="url(#clip-path)"><path id="Caminho_501" data-name="Caminho 501" d="M40.672,20.966c-4.208,4.611-9.671,5.959-15.454,6.36a35.612,35.612,0,0,1-12.23-.924c-5.4-1.524-9.709-4.446-11.852-9.851-1.955-4.929-1.26-9.72,1.123-14.34a1.24,1.24,0,0,1,1.568-.723,1.275,1.275,0,0,1,.949,1.535c-.415,3.1,1.006,5.441,3.144,7.428a4.416,4.416,0,0,0,4.885.655c2.122-.793,3.732-2.33,5.448-3.722A74.924,74.924,0,0,1,24.3,2.665,14.706,14.706,0,0,1,36.053.429,9.431,9.431,0,0,1,40.4,2.853,28.464,28.464,0,0,1,45.282.478a13.962,13.962,0,0,1,11.735,2.2c2.561,1.719,4.844,3.846,7.3,5.733A23.083,23.083,0,0,0,68,10.865c2.562,1.276,4.572.78,6.414-1.405A9.589,9.589,0,0,0,76.66,4.428,3.606,3.606,0,0,0,76.6,3.4c-.177-1.066.083-1.692.893-1.909.918-.245,1.373.314,1.752,1.052,4.968,9.681.691,20.1-9.644,23.487a35.393,35.393,0,0,1-12.079,1.363,29.6,29.6,0,0,1-10.8-2.12,16.4,16.4,0,0,1-6.047-4.3M78.394,8.572c-.849,1.116-1.582,2.265-2.5,3.244a6.718,6.718,0,0,1-7.573,2.033,17.91,17.91,0,0,1-4.472-2.392C61.789,9.95,59.918,8.181,57.93,6.568a15.816,15.816,0,0,0-7.309-3.6c-3.3-.561-6.3-.112-8.592,2.649-1.011,1.221-1.714,1.211-2.751-.019a7.491,7.491,0,0,0-5.3-2.786,12.651,12.651,0,0,0-8.432,2.25c-2.02,1.4-3.888,3.023-5.79,4.589-1.954,1.608-3.859,3.267-6.316,4.107A7.081,7.081,0,0,1,5.412,11.8,28.835,28.835,0,0,1,3.338,8.987c-.111-.152-.227-.3-.392-.518a12.529,12.529,0,0,0,.964,7.707c1.94,4.188,5.457,6.46,9.757,7.587a35.013,35.013,0,0,0,15.784.278c4.11-.808,7.74-2.493,10.128-6.2.582-.9,1.683-.763,2.339.236A12.722,12.722,0,0,0,47.9,22.847a25.229,25.229,0,0,0,7.91,1.749,35.6,35.6,0,0,0,11.855-.819c7.776-2.073,11.852-8.191,10.726-15.2" transform="translate(0 0)" fill="#638796"></path><path id="Caminho_502" data-name="Caminho 502" d="M138.349,157.323c-1.131,2.054-2.165,4.074-3.334,6.013-.917,1.52-1.96,1.525-2.874.013-1.184-1.96-2.235-4-3.346-6.012-.069.049-.248.178-.428.3-1,.7-1.986.458-2.292-.729-.5-1.919-.875-3.872-1.2-5.828a35.489,35.489,0,0,1-.4-4.051c-.063-1.231.7-1.716,1.9-1.45a55.392,55.392,0,0,0,6.671,1.289,19.083,19.083,0,0,0,7.252-1.136,4.369,4.369,0,0,1,1.1-.25,1.225,1.225,0,0,1,1.276,1.339,42.163,42.163,0,0,1-1.552,9.984c-.4,1.317-1.352,1.558-2.484.725l-.288-.211m-5.019,3.2.48,0c.724-1.79,1.51-3.558,2.154-5.376.657-1.859,1.229-2.1,2.848-1,.042.028.119,0,.262,0l.812-5.494a21.411,21.411,0,0,1-12.636-.01l.84,5.627c1.909-1.235,2.43-1,3.124.967.63,1.789,1.405,3.527,2.116,5.287" transform="translate(-92.911 -108.599)" fill="#638796"></path></g></svg>