<svg xmlns="http://www.w3.org/2000/svg" xmlns:xlink="http://www.w3.org/1999/xlink" id="Grupo_304" data-name="Grupo 304" width="60.527" height="65.795" viewBox="0 0 60.527 65.795"><defs><clipPath id="clip-path"><rect id="Ret&#xE2;ngulo_769" data-name="Ret&#xE2;ngulo 769" width="60.527" height="65.795" fill="#638796"></rect></clipPath></defs><g id="Grupo_303" data-name="Grupo 303" clip-path="url(#clip-path)"><path id="Caminho_503" data-name="Caminho 503" d="M58.909,0a2.3,2.3,0,0,1,1.607,2.359,15.815,15.815,0,0,1-.54,2.826,15.161,15.161,0,0,1-7.066,9.159c-.11.066-.223.126-.331.2-.033.021-.05.065-.083.11a35.257,35.257,0,0,0,2.115,6.414c.988,2.072.947,3.57-1.086,5.224-.943.767-.931.819-.564,1.962a16.476,16.476,0,0,0,3.489,5.993,24.253,24.253,0,0,1,2.079,2.6,2.592,2.592,0,0,1-.846,4c-.606.4-1.256.728-1.881,1.1-.829.491-.956.874-.554,1.748.222.485.506.942.726,1.427a1.712,1.712,0,0,1-.6,2.458,3.97,3.97,0,0,1-.345.288.791.791,0,0,0-.315,1.19,3.248,3.248,0,0,1,.294.844,1.882,1.882,0,0,1-.545,1.938.759.759,0,0,0-.217.947,11.355,11.355,0,0,1,.3,6.315,9,9,0,0,1-8.13,6.558,26.047,26.047,0,0,1-10.551-1.3c-.418-.16-.833-.328-1.28-.5a1.666,1.666,0,0,0-.118.21A2.071,2.071,0,0,1,32.1,65.7q-4.463.042-8.926.06c-5.267.016-10.533.01-15.8.037a2.082,2.082,0,0,1-1.892-3.337A26.693,26.693,0,0,0,8.826,52.316c.725-4.65-.511-8.89-2.4-13.028C5.209,36.628,3.9,34.01,2.743,31.324A33.089,33.089,0,0,1,0,18.18,21.207,21.207,0,0,1,4.516,4.453,11.531,11.531,0,0,1,11.987.123,1.183,1.183,0,0,0,12.267,0Zm-6.34,41.8a8.054,8.054,0,0,0-5,1.582,16.069,16.069,0,0,0-3.646,4.109,3.227,3.227,0,0,1-3.851,1.555c-2.719-.811-5.444-1.615-8.113-2.573a6,6,0,0,1-4.132-5.046,26.013,26.013,0,0,1-.11-4.418,11.845,11.845,0,0,1,2.706-7.32c.991-1.207,1.959-2.434,2.92-3.667a6.542,6.542,0,0,0,.559-7.4c-.3-.541-.651-1.058-.928-1.611a.944.944,0,0,0-.989-.583c-5.653.022-11.306.015-16.958.012a2.674,2.674,0,0,1-.762-.061,1.091,1.091,0,0,1-.707-1.228,1.07,1.07,0,0,1,1.151-.9c2.163-.009,4.325,0,6.488,0q11.884,0,23.767,0A13.092,13.092,0,0,0,57.541,5.508c.37-1.043.553-2.153.837-3.29-.289-.015-.394-.025-.5-.025q-22.1,0-44.195.015A9.191,9.191,0,0,0,6.228,5.864,18.769,18.769,0,0,0,2.25,17.155,29.523,29.523,0,0,0,4.484,29.681c1.229,2.955,2.655,5.826,3.973,8.745a28.306,28.306,0,0,1,2.709,9.366c.067.835.01,1.68.01,2.521,3.584-3.189,5.451-7.292,7.022-11.588a8.789,8.789,0,0,1-4.954-5.52,11.791,11.791,0,0,1,.454-8.211,5.392,5.392,0,0,1,10.265.692c.478,1.794.932,3.594,1.409,5.387a7.023,7.023,0,0,1-.227,4.585A19.983,19.983,0,0,0,35.923,61.975a22.355,22.355,0,0,0,10.253,1.458,6.547,6.547,0,0,0,2.227-.538c3.074-1.343,4.477-4.137,4.04-7.6-.211-1.668-.763-2.823-2.67-3.25a3.155,3.155,0,0,1-1.952-4.533,8.268,8.268,0,0,1,4.828-4.853c.034-.012.055-.06.1-.111l-.179-.753M35.221,16.446c.224.386.4.673.56.968a8.62,8.62,0,0,1-.558,9.818c-1.033,1.444-2.158,2.822-3.231,4.237a7.987,7.987,0,0,0-1.742,4.009c-.165,1.634-.222,3.283-.248,4.926a4.153,4.153,0,0,0,2.878,4.061c2.571.854,5.167,1.634,7.748,2.457a1.111,1.111,0,0,0,1.379-.5c.352-.511.68-1.041,1.069-1.522a13.292,13.292,0,0,1,5.842-4.648,14.35,14.35,0,0,1,5.633-.651,2.7,2.7,0,0,0,1.933-.671c.371-.3.48-.553.151-.946-.7-.837-1.355-1.712-2.074-2.531a20.018,20.018,0,0,1-3.829-6.759,3.336,3.336,0,0,1,1.079-3.9c1.43-1.315,1.433-1.018.587-3.148-.542-1.363-.995-2.763-1.458-4.156-.211-.636-.352-1.3-.531-1.969a16.39,16.39,0,0,1-5.94.934c-3.04-.038-6.08-.01-9.248-.01M7.454,63.595c.349,0,.584,0,.818,0q11.559-.057,23.117-.124c.348,0,.853.253.994-.362.131-.575-.431-.565-.7-.748-7.252-4.91-10.8-11.679-10.309-20.479.043-.781.167-1.558.252-2.332-1.224-.274-1.194-.262-1.636.834-.581,1.444-1.15,2.9-1.838,4.294a21.956,21.956,0,0,1-6.719,8.451,1.631,1.631,0,0,0-.716,1.189,25.412,25.412,0,0,1-2.093,6.964c-.352.747-.745,1.475-1.171,2.313m16.11-30.419-.09-.035a5.668,5.668,0,0,0-.088-.825c-.524-2.064-1.035-4.132-1.6-6.185a3.129,3.129,0,0,0-2.944-2.346,3.225,3.225,0,0,0-3.079,2.093,10.223,10.223,0,0,0-.667,5.456,6.838,6.838,0,0,0,6.151,5.922c.618.062,1.111.052,1.217-.772a7.841,7.841,0,0,1,.522-1.368c.214-.64.39-1.294.582-1.941M52.426,50.6c.445-.206.322-.535.182-.9a2.855,2.855,0,0,1,.989-3.622,3.329,3.329,0,0,1,.3-.2l-.576-1.02a6.047,6.047,0,0,0-3.518,3.718,1.026,1.026,0,0,0,.736,1.408c.6.211,1.209.4,1.883.614" transform="translate(-0.001)" fill="#638796"></path></g></svg>