<svg xmlns="http://www.w3.org/2000/svg" xmlns:xlink="http://www.w3.org/1999/xlink" id="Grupo_241" data-name="Grupo 241" width="86.354" height="88.4" viewBox="0 0 86.354 88.4"><defs><clipPath id="clip-path"><rect id="Ret&#xE2;ngulo_697" data-name="Ret&#xE2;ngulo 697" width="86.354" height="88.4" fill="none"></rect></clipPath></defs><g id="Grupo_240" data-name="Grupo 240" clip-path="url(#clip-path)"><path id="Caminho_377" data-name="Caminho 377" d="M40.882,88.4c-2.044-.478-4.144-.8-6.122-1.463A40.882,40.882,0,0,1,16.13,73.58,37.886,37.886,0,0,1,9.3,61.412a1.1,1.1,0,0,0-.662-.639,10.832,10.832,0,0,1-8.6-9.547c-.381-5.05,2.155-9.015,7.048-11.1.1-.044.2-.1.216-.106-.122-1.669-.338-3.269-.33-4.868s.238-3.194.375-4.847c-.406.094-.817.215-1.236.283A1.711,1.711,0,0,1,4.054,28.4c.465-1.721,1-3.425,1.46-5.146a2.332,2.332,0,0,0,0-1.158c-.454-1.694-.976-3.37-1.439-5.062A1.736,1.736,0,0,1,6.35,14.8c1.7.451,3.374.963,5.074,1.4a3.4,3.4,0,0,0,1.356.006,8.92,8.92,0,0,0,5.753-3.321A17.78,17.78,0,0,1,26.4,7.69a1.817,1.817,0,0,1,1.972.291,1.4,1.4,0,0,1,.479,1.71,3.255,3.255,0,0,1-1.464,1.331,18.236,18.236,0,0,0-6.575,4.506,3.114,3.114,0,0,0-.6,1.185c-.491,1.624-.9,3.272-1.419,4.889a3.329,3.329,0,0,0,.015,2.173c.468,1.42.84,2.871,1.272,4.3a1.875,1.875,0,0,1-.388,2.08,1.967,1.967,0,0,1-2.055.341q-2.489-.7-4.982-1.4c-.944-.261-1.225-.125-1.464.8a20.63,20.63,0,0,0-.384,8.894,4.128,4.128,0,0,0,.2.52c2.343-.874,4.695-1.651,6.962-2.619A52.122,52.122,0,0,0,28.2,30.5c1.268-.93,1.789-.935,3.073-.076a50.021,50.021,0,0,0,17.917,7.016,114.594,114.594,0,0,0,24.218,2.1c.086,0,.172-.02.461-.054-.107-1.608-.2-3.226-.328-4.841a9.893,9.893,0,0,0-1.668-4.31c-.834-1.384-1.39-3.024-2.507-4.122-1.1-1.076-2.743-1.611-4.149-2.383-.511-.281-1.018-.57-1.537-.836A1.8,1.8,0,0,1,62.52,21.3a1.861,1.861,0,0,1,1.194-1.663c1.672-.893,3.317-1.838,5-2.71a3.924,3.924,0,0,0,2.035-2.959,8.222,8.222,0,0,0-2.8-7.387c-.539,1.113-1,2.192-1.569,3.214a11.422,11.422,0,0,1-3.93,4.341,6.267,6.267,0,0,1-2.244.9,2.1,2.1,0,0,1-2.446-2.954,7.3,7.3,0,0,0-.763-6.612A14.989,14.989,0,0,0,55.45,3.716C53.522,7.6,50.076,8.594,46.291,8.967c-1.166.115-2.341.155-3.513.175a1.731,1.731,0,0,1-1.935-1.681c-.028-1.028.668-1.677,1.825-1.79,2.008-.2,4.032-.325,6.012-.681a4.609,4.609,0,0,0,3.775-3.452A1.931,1.931,0,0,1,55,.059a7.077,7.077,0,0,1,4.481,2.813A10.949,10.949,0,0,1,61.766,9.28c.01.2.034.4.055.6,0,.015.04.027.126.08A12.483,12.483,0,0,0,64.463,5.5c.238-.678.407-1.378.606-2.069a1.821,1.821,0,0,1,2.963-1.172A13.417,13.417,0,0,1,73.94,9.681c1.48-.351,2,.713,2.577,1.758.818,1.493,1.656,2.978,2.533,4.438a2.767,2.767,0,0,0,.961.935c1.7.968,3.418,1.893,5.141,2.815a1.8,1.8,0,0,1-.017,3.406c-1.749.936-3.493,1.881-5.218,2.858a2.4,2.4,0,0,0-.839.822c-.813,1.364-1.588,2.75-2.35,4.143a1.306,1.306,0,0,0-.2.865,24.893,24.893,0,0,1,.808,7.263.975.975,0,0,0,.8,1.095,10.69,10.69,0,0,1-.982,20.558A1.46,1.46,0,0,0,76,61.7C70.961,74.535,62.032,83.421,48.514,87.589c-1.273.393-2.622.546-3.936.811ZM12.512,59.719C16.092,70.345,23.228,77.881,33.43,82.71c6.437,3.047,12.831,2.778,19.209-.268A39.943,39.943,0,0,0,68.312,69.07c2.759-3.928,4.935-8.179,5.328-12.969.352-4.285.13-8.616.159-12.926,0-.022-.03-.045-.115-.165-.742,0-1.554,0-2.367,0a114.9,114.9,0,0,1-22.454-2.07,54.971,54.971,0,0,1-18.585-7c-.484-.3-.734-.09-1.064.151a49.323,49.323,0,0,1-17.1,8.37c-.552.138-.574.449-.573.881M80.916,21.488l-.126-.241c-.97-.531-1.922-1.1-2.914-1.582a3.755,3.755,0,0,1-1.756-1.729c-.506-.98-1.083-1.925-1.684-2.98-.635,1.121-1.125,2.142-1.768,3.062a6.282,6.282,0,0,1-1.634,1.592c-.947.631-1.993,1.117-3.092,1.716,1.13.616,2.171,1.1,3.109,1.725a6.279,6.279,0,0,1,1.628,1.6c.643.926,1.137,1.952,1.86,3.227a9.214,9.214,0,0,1,6.376-6.388M8.045,43.631c-2.526.723-4.481,3.613-4.508,6.5-.029,3.06,1.949,5.967,4.508,6.725Zm69.3,13.233c2.657-.684,4.725-3.911,4.534-7.206-.153-2.643-2.388-5.663-4.534-5.952ZM8.38,26.325a8.92,8.92,0,0,1,7.465-.018,8.347,8.347,0,0,1-.01-7.333,8.952,8.952,0,0,1-7.5.051,8.252,8.252,0,0,1,.05,7.3" transform="translate(0 0)" fill="#b3c5ce"></path><path id="Caminho_378" data-name="Caminho 378" d="M145.96,27.245a1.771,1.771,0,0,1-3.541.048,1.766,1.766,0,0,1,1.794-1.742,1.748,1.748,0,0,1,1.746,1.694" transform="translate(-109.287 -19.607)" fill="#b3c5ce"></path></g></svg>