<svg xmlns="http://www.w3.org/2000/svg" width="16.829" height="16.829" viewBox="0 0 16.829 16.829">
  <path id="Icon_awesome-check-circle" data-name="Icon awesome-check-circle" d="M17.392,8.977A8.415,8.415,0,1,1,8.977.563,8.415,8.415,0,0,1,17.392,8.977ZM8,13.432l6.243-6.243a.543.543,0,0,0,0-.768l-.768-.768a.543.543,0,0,0-.768,0L7.62,10.745,5.243,8.368a.543.543,0,0,0-.768,0l-.768.768a.543.543,0,0,0,0,.768l3.529,3.529a.543.543,0,0,0,.768,0Z" transform="translate(-0.563 -0.563)" fill="#638796"/>
</svg>
