<svg xmlns="http://www.w3.org/2000/svg" xmlns:xlink="http://www.w3.org/1999/xlink" width="67.17" height="75.516" viewBox="0 0 67.17 75.516"><defs><clipPath id="clip-path"><rect id="Ret&#xE2;ngulo_179" data-name="Ret&#xE2;ngulo 179" width="67.17" height="75.516" fill="#638796"></rect></clipPath></defs><g id="pente" transform="translate(0)"><g id="Grupo_91" data-name="Grupo 91" transform="translate(0)" clip-path="url(#clip-path)"><path id="Caminho_76" data-name="Caminho 76" d="M46.906,46.964c-.744-.71-1.362-1.278-1.957-1.871-2.91-2.9-5.8-5.819-8.725-8.71a2.44,2.44,0,0,1-.675-2.991,1.063,1.063,0,0,0-.144-.769,9.638,9.638,0,0,1-1.138-4.863c.01-.3.316-.8.553-.845.554-.1.646.386.646.843a8.458,8.458,0,0,0,1.226,4.622,2.541,2.541,0,0,1,2.811.939c.331.374.749.677,1.049,1.072.951,1.252,2.151,1.06,3.56.648-.977-.974-1.883-1.875-2.787-2.779-.3-.3-.61-.585-.879-.908a2.247,2.247,0,0,1,.058-3.028,1.3,1.3,0,0,0,.306-.863,3,3,0,0,1,3.179-3.286,1.131,1.131,0,0,0,1.131-.407,2.183,2.183,0,0,1,3.232,0c.755.722,1.456,1.5,2.333,2.412.266-.777.495-1.328.628-1.9a.912.912,0,0,0-.235-.676c-.433-.494-.932-.93-1.376-1.417A1.975,1.975,0,0,1,49.229,20c.239-.561,0-.8-.392-1.068A11.048,11.048,0,0,0,38.8,17.654a33.647,33.647,0,0,0-3.457,1.687c-.265.121-.642,0-.967-.016.084-.313.063-.766.267-.917,4.468-3.312,10.547-3.512,14.712-.573a2.97,2.97,0,0,0,2.027.7,2.758,2.758,0,0,1,1.764.831c2.113,2.02,4.174,4.1,6.209,6.2.495.51.9.692,1.536.308a8.606,8.606,0,0,1,1.167-.488c-.227-.238-.416-.444-.613-.641Q58.014,21.3,54.574,17.87a2.362,2.362,0,0,1-.836-2.186,2.071,2.071,0,0,1,1.47-1.706,2.181,2.181,0,0,1,2.278.492c.965.934,1.906,1.893,2.856,2.843C62.3,19.269,64.276,21.2,66.2,23.2a1.159,1.159,0,0,0,1.617.329c.316-.181.668-.3,1.091-.486-.206-.227-.363-.417-.536-.59q-4.189-4.194-8.388-8.378a2.549,2.549,0,0,0-.9-.6,5.652,5.652,0,0,1-3.937-4.713A6.226,6.226,0,0,1,57.364,2.9c.19-.17.638-.05.966-.065-.067.322-.022.758-.217.948a5.077,5.077,0,0,0-1.421,5.956,12.024,12.024,0,0,0,1.326,2.008c.187-.155.248-.18.251-.211a2.3,2.3,0,0,1,1.547-2.18,2.383,2.383,0,0,1,2.669.885c.515.562,1.059,1.1,1.675,1.73l1.607-1.316c-.8-.818-1.546-1.548-2.257-2.31a2.1,2.1,0,0,1-.444-2.278A2.131,2.131,0,0,1,64.9,4.633a2.443,2.443,0,0,1,2.094.891q4.573,4.592,9.162,9.167c.2.2.413.4.709.68a14.924,14.924,0,0,0,.59-1.842,1.081,1.081,0,0,0-.356-.766c-2.874-2.9-5.778-5.772-8.637-8.686a3.441,3.441,0,0,1-.869-1.53A1.979,1.979,0,0,1,68.611.334a2.151,2.151,0,0,1,2.514.155,6.085,6.085,0,0,1,.578.537Q79.08,8.4,86.456,15.782c3.006,3.008,3.013,6.759.009,9.764Q62.551,49.467,38.65,73.4a6.508,6.508,0,0,1-11.1-2.724,6.242,6.242,0,0,1,1.842-6.344q8.331-8.323,16.656-16.65c.223-.223.484-.406.862-.719m-.83-11.7c.2.21.388.422.589.623q3.518,3.523,7.038,7.044c.706.708.669.974-.2,1.494-.678.4-1.386.763-2.037,1.206a1.1,1.1,0,0,1-1.631-.229c-3.7-3.747-7.439-7.463-11.165-11.188-.186-.186-.366-.487-.577-.514a2.127,2.127,0,0,0-1.282.113.844.844,0,0,0-.126,1.265,4.5,4.5,0,0,0,.539.575Q42.474,40.9,47.727,46.157c.676.676.677.872,0,1.551q-3.936,3.943-7.878,7.881-4.862,4.862-9.721,9.725a4.964,4.964,0,0,0-1.363,5.221,5.083,5.083,0,0,0,3.974,3.675,5.258,5.258,0,0,0,5.07-1.7Q52.681,57.6,67.585,42.72q9.08-9.081,18.157-18.166a5.138,5.138,0,0,0,.159-7.6q-7.576-7.623-15.2-15.2c-.595-.594-1.207-.674-1.656-.242-.492.474-.419,1.046.24,1.706q4.02,4.027,8.048,8.046c.134.134.3.239.5.4.017-.236-.022-.4.045-.49a8.511,8.511,0,0,1,.629-.671,5.676,5.676,0,0,1,.563.805c.067.138-.015.363-.061.54a1.454,1.454,0,0,0,.54,1.654c.511.41.917.947,1.414,1.377a1.053,1.053,0,0,1,.267,1.571c-.44.684-.787,1.428-1.194,2.134-.507.881-.781.923-1.479.218-.458-.462-.887-.953-1.368-1.472l-1.269,1.852c.576.539,1.143,1.086,1.729,1.611a.823.823,0,0,1,.09,1.3c-.558.7-1.082,1.427-1.609,2.15-.411.563-.828.568-1.294.067-.662-.712-1.335-1.413-2.015-2.131l-1.854,1.2c.882.869,1.7,1.718,2.567,2.516a.873.873,0,0,1,.036,1.465c-.55.566-1.051,1.18-1.579,1.767-.633.7-.849.71-1.527.032q-3.328-3.322-6.65-6.65c-2.291-2.291-4.574-4.59-6.884-6.862a1.845,1.845,0,0,0-1.062-.55c-.277-.015-.788.331-.818.565a1.7,1.7,0,0,0,.326,1.253c1.539,1.625,3.145,3.187,4.728,4.77q4.5,4.5,9,9c.639.64.641.843,0,1.49-.574.581-1.182,1.128-1.741,1.723-.488.519-.888.509-1.387-.005-1.32-1.361-2.675-2.69-4.017-4.03-.289-.288-.581-.573-.865-.853l-1.482,1.361c.217.23.391.422.574.606,1.414,1.417,2.821,2.842,4.25,4.244.507.5.546.906-.039,1.363-.685.535-1.356,1.089-2.007,1.664a.838.838,0,0,1-1.35-.08c-1.415-1.453-2.871-2.867-4.289-4.317a5.5,5.5,0,0,1-.606-.951l-1.673,1.576c1.632,1.635,3.178,3.18,4.719,4.729.731.735.717.95-.1,1.534-.643.459-1.319.874-1.937,1.364-.6.473-1.025.391-1.553-.147-2.529-2.574-5.094-5.114-7.647-7.664-.2-.2-.409-.385-.6-.569l-1.273,1.546M76.294,16.529,66,6.245a1.483,1.483,0,0,0-.175-.16.977.977,0,0,0-1.417.086.916.916,0,0,0,0,1.35c.584.63,1.206,1.225,1.625,1.647l1.21-.421c.069.348.272.74.175,1.033a.911.911,0,0,0,.3,1.089q2.729,2.683,5.417,5.409c.643.651,1.248,1.34,1.943,2.09l1.224-1.841m-14.561-2.65,8.512,8.508,1.628-1.032c-2.631-2.635-5.19-5.2-7.762-7.757a.632.632,0,0,0-.49-.127c-.641.116-1.275.272-1.889.408M74.2,19.346l-7.724-7.735L65.27,12.717l7.736,7.764,1.2-1.136m-15.35,7.382c-.649-.641-1.246-1.227-1.838-1.818-1.6-1.6-3.2-3.209-4.809-4.8-.63-.623-1.479-.563-1.78.111a1.122,1.122,0,0,0,.348,1.346c1.628,1.612,3.244,3.238,4.864,4.859,1.359,1.359,1.359,1.359,3.215.3m9.221,4.633c-1.57-1.569-3.143-3.149-4.734-4.711a.741.741,0,0,0-.6-.186c-.565.169-1.106.414-1.605.61l5.65,5.666,1.289-1.379m-11.1.848,4.883,4.9,1.38-1.158-4.811-4.816-1.452,1.077M47.45,29.028c-.649-.6-1.229-1.088-1.756-1.63a5.807,5.807,0,0,1-1.01-1.284c-.4-.757-.833-.959-1.6-.577a1.661,1.661,0,0,0-.542,2.791,4.066,4.066,0,0,0,4.906.7m4.9,7.7,4.259,4.271,1.482-1.042-4.544-4.546-1.2,1.317m2.643-4.414-4.218-4.232L49.6,29.345l4.139,4.136,1.248-1.171m-11.9,4.23,4.985,5.008a11.972,11.972,0,0,1,.507-1.26.679.679,0,0,0-.166-.949c-.916-.869-1.824-1.75-2.678-2.679-.479-.521-.9-.8-1.6-.4a3.632,3.632,0,0,1-1.043.278M41.5,29.084a.946.946,0,0,0-.135,1.473c1.234,1.278,2.516,2.51,3.86,3.84l1.133-1.46c-1.029-2.127-3.334-2.417-4.858-3.853m8.444-2.039c-.881-.87-1.7-1.722-2.567-2.517a.863.863,0,0,0-1.332.05,1.366,1.366,0,0,0-.121,1.248c.8.92,1.732,1.723,2.676,2.627l1.345-1.407M68.01,24.77,71.3,28.075l1.3-1.47c-.852-.827-1.652-1.619-2.475-2.385a.642.642,0,0,0-.539-.14c-.556.205-1.09.472-1.573.689M55.76,28.454l-3.322-3.321-.8,1.705,2.6,2.633,1.522-1.017m-9.445,2.275,3.065,3.048,1.353-1.449A15.572,15.572,0,0,1,49.3,30.991c-.6-.709-1.177-1.138-2.094-.515a2.914,2.914,0,0,1-.887.252M52.332,43.7l-2.724-2.688c-.8,1.749-.637,2.261,1.269,3.546l1.455-.858M62.727,12.565l.179-.344c-.518-.467-1.04-.93-1.554-1.4-.379-.348-.837-.584-1.263-.232-.277.228-.592.758-.5,1.006a1.621,1.621,0,0,0,.967.93,10.488,10.488,0,0,0,2.17.042m12.391,7.48-1.323,1.422,1.656,1.672,1.176-1.59-1.509-1.5m4.072-2.4c.3-.532.584-1,.813-1.493a.622.622,0,0,0-.065-.543c-.4-.492-.853-.948-1.33-1.466-.99,2.182-.99,2.182.582,3.5M52.742,34.478l-1.2-1.215-1.316,1.4,1.136,1.318,1.382-1.508m3.326-3.109L57.54,30.25,56.8,29.244l-1.737,1.141,1,.984M58.707,29.5l1.487-1.325c-.507-.548-1.317-.313-2.243.575l.757.75" transform="translate(-21.544 0)" fill="#638796"></path><path id="Caminho_77" data-name="Caminho 77" d="M3.336,99.981c-.592-.141-1.66-.387-2.722-.654-.429-.108-.742-.373-.564-.855s.572-.417.986-.272a7.576,7.576,0,0,0,8.6-2.137c.3-.315.621-.582,1-.25.419.364.188.749-.127,1.085a9.442,9.442,0,0,1-7.177,3.083" transform="translate(0 -75.463)" fill="#638796"></path></g></g></svg>