<svg xmlns="http://www.w3.org/2000/svg" xmlns:xlink="http://www.w3.org/1999/xlink" width="72.639" height="74" viewBox="0 0 72.639 74"><defs><clipPath id="clip-path"><rect id="Ret&#xE2;ngulo_188" data-name="Ret&#xE2;ngulo 188" width="36.704" height="36.728" fill="#638796"></rect></clipPath></defs><g id="procedimentos" transform="translate(-1199.706 -6099)"><rect id="Ret&#xE2;ngulo_562" data-name="Ret&#xE2;ngulo 562" width="72.639" height="74" rx="14" transform="translate(1199.706 6099)" fill="#fff"></rect><g id="Grupo_104" data-name="Grupo 104" transform="translate(1217.647 6117.275)"><g id="Grupo_103" data-name="Grupo 103" transform="translate(0.001)" clip-path="url(#clip-path)"><path id="Caminho_96" data-name="Caminho 96" d="M0,30.623a11.814,11.814,0,0,1,.339-1.274A5.279,5.279,0,0,1,4,26.006c.091-.026.18-.054.305-.092,0-.856-.007-1.714,0-2.572a6.045,6.045,0,0,1,1.328-3.78A6.154,6.154,0,0,1,16.578,22.6a7.787,7.787,0,0,1,.058.964c0,2.4-.01,4.8.007,7.205a3.807,3.807,0,1,0,7.292-1.581c-.917-2.1-1.794-4.215-2.7-6.319a1.024,1.024,0,0,0-.376-.441A8.552,8.552,0,0,1,17,17.407q-1.448-4.982-2.854-9.977a4.65,4.65,0,0,1,4.563-6h.524A1.245,1.245,0,0,1,20.081,0h.5a1.163,1.163,0,0,1,.8,1.074c0,.956.008,1.912,0,2.867a1.058,1.058,0,0,1-1.027,1.077,1.094,1.094,0,0,1-1.114-1c-.016-.137-.017-.276-.027-.435h-.455a2.51,2.51,0,0,0-2.523,3.32c.935,3.293,1.869,6.586,2.829,9.872A6.522,6.522,0,0,0,31.6,16.81c.973-3.319,1.915-6.647,2.849-9.977a2.533,2.533,0,0,0-3-3.2,4,4,0,0,1-.061.594,1.069,1.069,0,0,1-1.135.791,1.088,1.088,0,0,1-.973-1.1c-.013-.848.016-1.7-.011-2.545A1.255,1.255,0,0,1,30.121,0h.5a1.231,1.231,0,0,1,.794,1.434h.525A4.642,4.642,0,0,1,36.509,7.45q-1.392,4.962-2.827,9.912a8.59,8.59,0,0,1-3.9,5.081,1.022,1.022,0,0,0-.368.45c-.861,2.006-1.694,4.025-2.568,6.025a5.363,5.363,0,0,0-.468,2.1,5.951,5.951,0,0,1-11.9-.313c-.006-2.486.02-4.972-.013-7.457a4,4,0,0,0-3.6-3.864,3.906,3.906,0,0,0-4.256,3A25.387,25.387,0,0,0,6.394,25.9l.426.124A5.378,5.378,0,1,1,.156,32.495C.1,32.278.052,32.06,0,31.842V30.623M5.364,27.97A3.226,3.226,0,1,0,8.6,31.2a3.236,3.236,0,0,0-3.24-3.229M25.335,27l1.431-3.386H23.9L25.335,27" fill="#638796"></path><path id="Caminho_97" data-name="Caminho 97" d="M62.049,420.253A1.074,1.074,0,1,0,61,421.341a1.086,1.086,0,0,0,1.052-1.088" transform="translate(-55.597 -389.07)" fill="#638796"></path><path id="Caminho_98" data-name="Caminho 98" d="M62.049,420.253a1.074,1.074,0,1,1-1.079-1.061,1.087,1.087,0,0,1,1.079,1.061" transform="translate(-55.597 -389.07)" fill="#638796"></path></g></g></g></svg>