<svg xmlns="http://www.w3.org/2000/svg" xmlns:xlink="http://www.w3.org/1999/xlink" width="72.639" height="74" viewBox="0 0 72.639 74"><defs><clipPath id="clip-path"><rect id="Ret&#xE2;ngulo_189" data-name="Ret&#xE2;ngulo 189" width="45.799" height="39.277" fill="#638796"></rect></clipPath></defs><g id="tecnicas" transform="translate(-924 -6099)"><rect id="Ret&#xE2;ngulo_561" data-name="Ret&#xE2;ngulo 561" width="72.639" height="74" rx="14" transform="translate(924 6099)" fill="#fff"></rect><g id="Grupo_106" data-name="Grupo 106" transform="translate(937 6116)"><g id="Grupo_105" data-name="Grupo 105" transform="translate(0.001)" clip-path="url(#clip-path)"><path id="Caminho_99" data-name="Caminho 99" d="M175.5,30.405a33.985,33.985,0,0,1,1.913-10.2,92.509,92.509,0,0,1,9.6-19.688c.323-.518.718-.639,1.155-.394.467.262.547.679.233,1.276a82.843,82.843,0,0,0-6.183,14.928,39.184,39.184,0,0,0-1.8,10.438,6.523,6.523,0,0,0,1.068,3.964,3.77,3.77,0,0,1,.173,3.859,2.9,2.9,0,0,1-4.553.622,4.991,4.991,0,0,1-1.481-3.225c-.086-.606-.1-1.221-.128-1.578M180,18a1.97,1.97,0,0,0-.139.23,37.643,37.643,0,0,0-2.69,11.107,8.742,8.742,0,0,0,.4,3.728,1.828,1.828,0,0,0,1.448,1.292,1.02,1.02,0,0,0,1.331-.909,2.526,2.526,0,0,0-.394-2.136,5.753,5.753,0,0,1-1.082-2.875,25.1,25.1,0,0,1,.379-6.6c.2-1.253.486-2.494.751-3.832" transform="translate(-157.518 0)" fill="#638796"></path><path id="Caminho_100" data-name="Caminho 100" d="M38.919,249.993c-2.231,0-4.465.08-6.691-.028-1.505-.073-3-.41-4.5-.629l-.354-.053a.932.932,0,0,0-1.017.422.906.906,0,0,0,.1,1.049,6.974,6.974,0,0,1,1.193,2.687c.407,2.462.086,4.756-1.831,6.54a6.407,6.407,0,0,1-9.344-1.093,9.667,9.667,0,0,1-1.736-5.672,16.924,16.924,0,0,1,.156-2.493c.134-1.16-.295-1.655-1.45-1.4-4.136.921-8.331.743-12.518.759-.579,0-.915-.3-.93-.791-.015-.514.327-.832.933-.841.937-.014,1.875-.05,2.811-.014a39.085,39.085,0,0,0,9.449-.746,2.922,2.922,0,0,1,2.076.3,2.258,2.258,0,0,1,1.3,2.248c-.059.933-.192,1.866-.19,2.8a9.035,9.035,0,0,0,.8,3.872,4.83,4.83,0,0,0,4.254,2.973c2.669.188,4.581-1.641,4.737-4.432a5.66,5.66,0,0,0-.992-3.673,2.767,2.767,0,0,1-.561-1.866,2.426,2.426,0,0,1,2.5-2.264c1.1.079,2.189.3,3.278.487a42.687,42.687,0,0,0,7.291.3q3.552,0,7.1.014c.668,0,1.01.286,1.014.812,0,.543-.355.823-1.054.822H38.919c0-.031,0-.062,0-.093" transform="translate(0 -222.257)" fill="#638796"></path><path id="Caminho_101" data-name="Caminho 101" d="M61.68,131.426a.811.811,0,0,1-.875-.8,12.072,12.072,0,0,0-.14-1.369,3.336,3.336,0,0,0-3.469-2.723c-.153-.009-.307,0-.46-.013a.817.817,0,1,1-.012-1.635,10.889,10.889,0,0,0,1.368-.145,3.328,3.328,0,0,0,2.7-3.438c.01-.153.006-.307.014-.46a.819.819,0,1,1,1.636-.012,10.334,10.334,0,0,0,.136,1.318,3.345,3.345,0,0,0,3.47,2.725c.153.009.307,0,.46.013a.817.817,0,1,1,.012,1.635,10.837,10.837,0,0,0-1.368.144,3.343,3.343,0,0,0-2.7,3.489c-.01.187,0,.377-.021.561a.767.767,0,0,1-.748.707m-1.232-5.742,1.165,1.192,1.179-1.163L61.6,124.538l-1.151,1.145" transform="translate(-50.175 -107.694)" fill="#638796"></path><path id="Caminho_102" data-name="Caminho 102" d="M140.606,17.966a.77.77,0,0,1-.753-.7c-.025-.167-.011-.34-.022-.51a2.764,2.764,0,0,0-2.888-2.865c-.868-.047-1.2-.287-1.186-.851.017-.542.331-.754,1.185-.8a2.763,2.763,0,0,0,2.888-2.864c.01-.153,0-.307.017-.459a.814.814,0,0,1,1.623,0c.015.135.007.272.013.408a2.772,2.772,0,0,0,2.89,2.916c.869.048,1.2.288,1.186.852-.016.541-.333.755-1.185.8-1.858.1-2.827,1.127-2.894,3.068-.023.672-.3,1.007-.875,1.008m-.763-4.938.82.928.83-.873-.806-.881-.844.826" transform="translate(-121.851 -7.326)" fill="#638796"></path><path id="Caminho_103" data-name="Caminho 103" d="M268.449,135.959a.786.786,0,0,1,.8.763c.031.3.031.613.082.913a2.535,2.535,0,0,0,2.327,2.331,4.848,4.848,0,0,0,.607.07c.733.033,1.063.279,1.071.811.009.548-.33.807-1.1.836a2.79,2.79,0,0,0-2.982,2.982c0,.085,0,.17-.006.255a.818.818,0,1,1-1.634-.024c-.007-.119,0-.238-.011-.357a2.764,2.764,0,0,0-2.9-2.852c-.119-.006-.239,0-.357-.01a.816.816,0,0,1-.027-1.631l.051,0c2.341-.162,3.085-.906,3.244-3.243a.8.8,0,0,1,.829-.841m-.874,4.867.849.873.884-.8-.9-.9-.833.828" transform="translate(-236.539 -122.031)" fill="#638796"></path></g></g></g></svg>