<svg xmlns="http://www.w3.org/2000/svg" xmlns:xlink="http://www.w3.org/1999/xlink" width="72.419" height="72.433" viewBox="0 0 72.419 72.433"><defs><clipPath id="clip-path"><rect id="Ret&#xE2;ngulo_180" data-name="Ret&#xE2;ngulo 180" width="72.419" height="72.432" fill="none"></rect></clipPath></defs><g id="triste" transform="translate(0)"><g id="Grupo_93" data-name="Grupo 93" transform="translate(0)" clip-path="url(#clip-path)"><path id="Caminho_78" data-name="Caminho 78" d="M34.076,72.432c-1.4-.186-2.8-.334-4.191-.564A36.025,36.025,0,0,1,.7,43.26C-1.78,29.413,2.346,17.725,12.956,8.477A34.306,34.306,0,0,1,32.069.247,35.724,35.724,0,0,1,56.287,6.072a1.575,1.575,0,0,1,.929,1.6,1.182,1.182,0,0,1-1.02,1.12,2.469,2.469,0,0,1-1.433-.355,32.38,32.38,0,0,0-8.246-3.975c-11.285-3.409-21.695-1.6-31.021,5.6A31.122,31.122,0,0,0,3.482,29.7C1.138,42.955,5.233,54.015,15.7,62.505a31.87,31.87,0,0,0,21.573,7.051A33.351,33.351,0,0,0,69.13,41.681a33,33,0,0,0-5.092-23.9c-.051-.079-.105-.156-.156-.236-.565-.894-.471-1.683.258-2.17s1.511-.259,2.1.607A33.3,33.3,0,0,1,71.11,26.666c.544,2.209.8,4.489,1.189,6.737.039.227.08.454.12.681v4.245c-.1.885-.19,1.773-.316,2.655a35.907,35.907,0,0,1-9.967,20.471A35.309,35.309,0,0,1,42.368,71.885c-1.341.231-2.7.367-4.047.547Z" transform="translate(0 0)" fill="#6e92a0"></path><path id="Caminho_79" data-name="Caminho 79" d="M139.408,244.151a16.358,16.358,0,0,1,11.624,4.668,1.449,1.449,0,0,1,.226,2.172c-.605.632-1.405.583-2.181-.133a13.74,13.74,0,0,0-19.153.01,1.435,1.435,0,1,1-1.948-2.055,16.907,16.907,0,0,1,11.432-4.662" transform="translate(-103.275 -198.006)" fill="#6e92a0"></path><path id="Caminho_80" data-name="Caminho 80" d="M235.424,175.2a10.8,10.8,0,0,1-7.389-2.958,1.447,1.447,0,0,1-.256-2.171,1.477,1.477,0,0,1,2.19.107,7.916,7.916,0,0,0,10.9.035,1.558,1.558,0,0,1,1.852-.424,1.4,1.4,0,0,1,.224,2.366,10.765,10.765,0,0,1-7.519,3.046" transform="translate(-184.417 -137.571)" fill="#6e92a0"></path><path id="Caminho_81" data-name="Caminho 81" d="M78.647,175.2a10.541,10.541,0,0,1-7.059-3.062,1.367,1.367,0,0,1-.36-1.726,1.286,1.286,0,0,1,1.53-.727,2.074,2.074,0,0,1,.842.471,7.951,7.951,0,0,0,11.052-.019,1.462,1.462,0,0,1,2.134-.057,1.429,1.429,0,0,1-.2,2.122,11.13,11.13,0,0,1-7.934,3" transform="translate(-57.629 -137.583)" fill="#6e92a0"></path><path id="Caminho_82" data-name="Caminho 82" d="M315.173,58.466a1.4,1.4,0,0,1-1.4-1.394,1.425,1.425,0,0,1,1.395-1.406,1.4,1.4,0,0,1,1.414,1.442,1.365,1.365,0,0,1-1.413,1.357" transform="translate(-254.473 -45.145)" fill="#6e92a0"></path></g></g></svg>