<svg id="capilar_icone" xmlns="http://www.w3.org/2000/svg" xmlns:xlink="http://www.w3.org/1999/xlink" width="80.295" height="70.001" viewBox="0 0 80.295 70.001">
  <defs>
    <clipPath id="clip-path">
      <rect id="Retângulo_701" data-name="Retângulo 701" width="80.295" height="70.001" fill="none"/>
    </clipPath>
  </defs>
  <g id="Grupo_249" data-name="Grupo 249" clip-path="url(#clip-path)">
    <path id="Caminho_380" data-name="Caminho 380" d="M58.791,21.093c0,.272.013.545,0,.816a3.834,3.834,0,0,0,1.02,3.452,5.745,5.745,0,0,1,1.134,3.42,14.764,14.764,0,0,1-1.614,7.98,15.483,15.483,0,0,1-1.9,2.358,2.164,2.164,0,0,0-.417.824c-.615,2.7-1.194,5.417-1.815,8.12a4.22,4.22,0,0,1-.609,1.6c-.771,1.013-.408,1.87.116,2.8a23.794,23.794,0,0,0,10.616,9.681,34.3,34.3,0,0,0,6.014,2.2A32.441,32.441,0,0,1,79.7,68.163a.931.931,0,0,1,.439,1.371.9.9,0,0,1-1.412.228,32.463,32.463,0,0,0-9.707-4.1,23.831,23.831,0,0,1-9.042-4.652,13.866,13.866,0,0,0-6.567-2.806,83.389,83.389,0,0,0-19.339-.764,79.1,79.1,0,0,0-8.785,1.15,9.889,9.889,0,0,0-4.538,2.112,28.478,28.478,0,0,1-11.4,5.511A24.612,24.612,0,0,0,2.331,69.3c-.286.17-.566.349-.852.516A.873.873,0,0,1,.15,69.521.9.9,0,0,1,.536,68.2c.589-.368,1.184-.726,1.788-1.069A28.526,28.526,0,0,1,9.34,64.28a26.416,26.416,0,0,0,14.715-9.5,26.489,26.489,0,0,0,2.037-3.411,1.017,1.017,0,0,0,.042-.827c-1.424-2.721-1.907-5.706-2.494-8.664-.035-.178-.074-.355-.1-.534-.148-1.127-.221-2.252-1.457-2.877a2.556,2.556,0,0,1-.851-1.148,15.8,15.8,0,0,1-1.754-9.636,4.628,4.628,0,0,1,1.8-3.238c.24-.177.3-.731.283-1.1A28.82,28.82,0,0,1,23.275,11.42a18.212,18.212,0,0,1,34.816,3.563c.4,2.007.562,4.06.834,6.093l-.134.018M32.947,48.1l6.211-.37V2.009c-.151-.019-.24-.038-.329-.039a2.31,2.31,0,0,0-.362.019c-6.032.888-10.621,3.8-13.172,9.493A26.135,26.135,0,0,0,23.425,23a2.4,2.4,0,0,0,.939,2.16,4.776,4.776,0,0,1,1.457,1.817,44.24,44.24,0,0,1,2.3,5.868A40.645,40.645,0,0,0,31.012,41.1a15.824,15.824,0,0,1,1.163,3.319c.328,1.214.522,2.463.772,3.681m14.5,0a26.559,26.559,0,0,1,3.172-9.929,7.675,7.675,0,0,0,.46-1.37c.536-1.947,1-3.918,1.6-5.842.767-2.434,1.751-4.765,3.885-6.392a1.044,1.044,0,0,0,.253-.716,33.044,33.044,0,0,0-.521-8.294C55.071,9.817,52.051,5.5,46.488,3.208a15.484,15.484,0,0,0-5.342-1.24V47.749l6.3.352m7.617,8.455a19.826,19.826,0,0,1-2.082-3.438,3.78,3.78,0,0,0-3.393-2.6c-.179-.025-.353-.079-.53-.116a47.457,47.457,0,0,0-13.078-.578,62.22,62.22,0,0,0-7.1,1.25,1.277,1.277,0,0,0-.791.516c-.954,1.659-1.859,3.348-2.725,4.926a94.742,94.742,0,0,1,29.7.039M31.022,48.419a19.2,19.2,0,0,0-1.809-6.787,31.811,31.811,0,0,1-2.691-7.653A18.522,18.522,0,0,0,24.19,27.84a21.184,21.184,0,0,0-1.639-1.948l-.374.054a7.991,7.991,0,0,0-.814,1.912,13.431,13.431,0,0,0,1.747,8.876c.172.3.478.673.763.712,1.012.137,1.078.846,1.234,1.618q.858,4.251,1.813,8.483a12.624,12.624,0,0,0,.724,1.853l3.38-.978m21.643,1.009a9.708,9.708,0,0,0,.551-1.4c.682-2.967,1.349-5.937,1.979-8.915.167-.791.222-1.546,1.26-1.719.288-.048.583-.43.758-.727a13.066,13.066,0,0,0,1.7-8.882A5.77,5.77,0,0,0,58,26.1a7.565,7.565,0,0,0-1.422,1.129,15.627,15.627,0,0,0-2.621,6.112A36.243,36.243,0,0,1,51,41.87a18.481,18.481,0,0,0-1.712,6.584l3.375.974" transform="translate(0 0)" fill="#b3c5ce"/>
    <path id="Caminho_381" data-name="Caminho 381" d="M179.653,65.479c-.248-.377-.7-.766-.681-1.127a.89.89,0,0,1,1.777,0c.017.364-.439.751-.689,1.128l-.406,0" transform="translate(-135.62 -48.135)" fill="#b3c5ce"/>
    <path id="Caminho_382" data-name="Caminho 382" d="M211.652,84.658c-.238-.383-.682-.783-.651-1.143a1.3,1.3,0,0,1,.91-.845.776.776,0,0,1,.874.967c-.08.38-.485.691-.745,1.032l-.387-.012" transform="translate(-159.889 -62.639)" fill="#b3c5ce"/>
    <path id="Caminho_383" data-name="Caminho 383" d="M181.421,25.835c-.461-.6-.946-.952-.932-1.284a1.332,1.332,0,0,1,.819-.946.773.773,0,0,1,.982.87c-.041.384-.447.729-.869,1.36" transform="translate(-136.77 -17.864)" fill="#b3c5ce"/>
    <path id="Caminho_384" data-name="Caminho 384" d="M181.292,41.13c.467.6.893.906.966,1.285a.781.781,0,0,1-.907.955,1.343,1.343,0,0,1-.9-.89c-.044-.324.419-.717.838-1.35" transform="translate(-136.741 -31.167)" fill="#b3c5ce"/>
    <path id="Caminho_385" data-name="Caminho 385" d="M196.672,35.295c-.25-.374-.706-.758-.689-1.121a1.294,1.294,0,0,1,.878-.87.763.763,0,0,1,.9.932c-.069.382-.455.706-.7,1.055l-.389,0" transform="translate(-148.511 -25.226)" fill="#b3c5ce"/>
    <path id="Caminho_386" data-name="Caminho 386" d="M199.527,71.168c-.253-.35-.657-.672-.726-1.055a.771.771,0,0,1,.926-.925,1.316,1.316,0,0,1,.846.912c.034.328-.421.707-.661,1.063l-.386.005" transform="translate(-150.635 -52.416)" fill="#b3c5ce"/>
    <path id="Caminho_387" data-name="Caminho 387" d="M180.793,101.864c-.383.24-.783.687-1.143.657a1.3,1.3,0,0,1-.849-.911.778.778,0,0,1,.968-.877c.379.078.691.484,1.033.743Z" transform="translate(-135.484 -76.318)" fill="#b3c5ce"/>
    <path id="Caminho_388" data-name="Caminho 388" d="M209.118,48.542c-.35.25-.678.655-1.057.714a.774.774,0,0,1-.927-.928,1.345,1.345,0,0,1,.922-.855c.325-.035.7.428,1.059.671l0,.4" transform="translate(-156.946 -35.972)" fill="#b3c5ce"/>
    <path id="Caminho_389" data-name="Caminho 389" d="M195.047,54.988c-.609.452-.925.86-1.3.922a.914.914,0,1,1-.012-1.824c.374.057.7.46,1.31.9" transform="translate(-146.08 -40.977)" fill="#b3c5ce"/>
    <path id="Caminho_390" data-name="Caminho 390" d="M215.907,65.029c.231.354.616.691.658,1.066a.767.767,0,0,1-.942.891,1.315,1.315,0,0,1-.853-.9c-.011-.351.46-.717.72-1.076l.416.016" transform="translate(-162.747 -49.265)" fill="#b3c5ce"/>
    <path id="Caminho_391" data-name="Caminho 391" d="M214.623,98.476c-.362.234-.705.618-1.091.667a.762.762,0,0,1-.876-.963,1.319,1.319,0,0,1,.952-.792c.329-.02.688.441,1.033.69q-.009.2-.018.4" transform="translate(-161.123 -73.797)" fill="#b3c5ce"/>
    <path id="Caminho_392" data-name="Caminho 392" d="M181.138,149.459c-.223-.362-.586-.706-.636-1.09a.792.792,0,0,1,.9-.9c.615.012,1.016.41.91.985-.069.374-.492.682-.756,1.02l-.417-.018" transform="translate(-136.773 -111.751)" fill="#b3c5ce"/>
    <path id="Caminho_393" data-name="Caminho 393" d="M197.027,94.683c-.344.249-.662.647-1.038.711a.76.76,0,0,1-.925-.913,1.323,1.323,0,0,1,.9-.842c.32-.042.7.391,1.057.616q0,.214.008.428" transform="translate(-147.799 -70.955)" fill="#b3c5ce"/>
    <path id="Caminho_394" data-name="Caminho 394" d="M188.7,123.224c-.35.235-.675.6-1.056.674-.547.1-.92-.272-.937-.846-.018-.612.344-1.035.937-.945.378.057.705.446,1.056.686q0,.215,0,.431" transform="translate(-141.48 -92.521)" fill="#b3c5ce"/>
    <path id="Caminho_395" data-name="Caminho 395" d="M197,138.227c-.348.24-.718.695-1.039.663a1.331,1.331,0,0,1-.926-.826.767.767,0,0,1,.9-.947c.377.05.708.443,1.06.683q0,.214,0,.427" transform="translate(-147.776 -103.897)" fill="#b3c5ce"/>
    <path id="Caminho_396" data-name="Caminho 396" d="M185.557,166.436c.229.382.659.783.627,1.142a1.283,1.283,0,0,1-.9.833.753.753,0,0,1-.86-.959c.087-.379.475-.688.728-1.029l.4.014" transform="translate(-139.734 -126.11)" fill="#b3c5ce"/>
    <path id="Caminho_397" data-name="Caminho 397" d="M185.71,82.768c-.251-.343-.639-.656-.719-1.034a.781.781,0,0,1,.825-.954c.613-.033,1.048.31.979.9-.045.38-.435.719-.67,1.077l-.415.011" transform="translate(-140.166 -61.211)" fill="#b3c5ce"/>
    <path id="Caminho_398" data-name="Caminho 398" d="M202.362,112.709c-.339.256-.647.656-1.023.734a.762.762,0,0,1-.955-.884,1.322,1.322,0,0,1,.884-.866c.321-.049.715.38,1.076.6q.009.209.018.418" transform="translate(-151.836 -84.634)" fill="#b3c5ce"/>
  </g>
</svg>
