<svg xmlns="http://www.w3.org/2000/svg" width="69" height="70" viewBox="0 0 69 70"><g id="Grupo_49" data-name="Grupo 49" transform="translate(-373 -1143)"><rect id="Ret&#xE2;ngulo_106" data-name="Ret&#xE2;ngulo 106" width="69" height="70" rx="17" transform="translate(373 1143)" fill="#fff"></rect><path id="stethoscope" d="M26.66,10a3.332,3.332,0,1,0-4.443,3.128v4.648a6.665,6.665,0,1,1-13.33,0v-.089A7.782,7.782,0,0,0,15.552,10V5.554A5.561,5.561,0,0,0,10,0a1.111,1.111,0,0,0,0,2.222A3.332,3.332,0,0,1,13.33,5.554V10A5.554,5.554,0,1,1,2.222,10V5.554A3.332,3.332,0,0,1,5.554,2.222,1.111,1.111,0,0,0,5.554,0,5.561,5.561,0,0,0,0,5.554V10a7.782,7.782,0,0,0,6.665,7.687v.089a8.887,8.887,0,0,0,17.773,0V13.126A3.332,3.332,0,0,0,26.66,10Zm-3.332,1.111A1.111,1.111,0,1,1,24.438,10,1.111,1.111,0,0,1,23.327,11.108Z" transform="translate(393.67 1165.126)" fill="#638796"></path></g></svg>