<svg id="design_icone" xmlns="http://www.w3.org/2000/svg" xmlns:xlink="http://www.w3.org/1999/xlink" width="87.979" height="68.589" viewBox="0 0 87.979 68.589">
  <defs>
    <clipPath id="clip-path">
      <rect id="Retângulo_702" data-name="Retângulo 702" width="87.979" height="68.589" fill="none"/>
    </clipPath>
  </defs>
  <g id="Grupo_251" data-name="Grupo 251" clip-path="url(#clip-path)">
    <path id="Caminho_399" data-name="Caminho 399" d="M78.17,68.59a2.927,2.927,0,0,1-2.862-3.472c.276-3.519.375-8.1-1.32-12.332a34.739,34.739,0,0,0-2.065-4.067c-.4-.711-.814-1.446-1.2-2.189-.644-1.245-1.39-2.71-2.073-4.217q-1.553.152-3.106.31c-3.152.318-6.41.647-9.631.875a121.53,121.53,0,0,1-17.716,0A76.9,76.9,0,0,1,24.431,41.41a33.72,33.72,0,0,1-3.525-1.194c-.61-.232-1.24-.472-1.857-.683-.347-.119-.7-.224-1.067-.327-.04.781-.084,1.529-.179,2.283a9.213,9.213,0,0,1-2.069,4.727,19.964,19.964,0,0,0-4.717,12.143c-.071,2.054-.045,4.16-.019,6.2l.009.771a2.836,2.836,0,0,1-2.037,3.088,2.726,2.726,0,0,1-3.319-1.879A76.153,76.153,0,0,1,.411,48.346C.3,47.583.211,46.814.127,46.07c-.039-.342-.078-.684-.119-1.026L0,44.9V41.32l.016-.1c.053-.321.1-.642.153-.963.111-.706.225-1.435.365-2.159a12.491,12.491,0,0,1,10.733-9.96v-.006c-.11-8.286,2.79-15.025,8.62-20.031A29.938,29.938,0,0,1,34,1.679c1.657-.328,3.3-.55,5.043-.785.785-.106,1.6-.215,2.419-.336L45.247,0,43.159,1.994a44.661,44.661,0,0,1,11.282-.587l4.435.336L56.471,2.931c7.094-.147,11.119.99,14.15,2.189L74.354,6.6l-3.924.846q-.3.064-.593.129a24.311,24.311,0,0,1,11.312,6.717l1.733,1.784-.952.105a31.945,31.945,0,0,1,4.753,3.2l1.3,1.059-1.406.907a15.954,15.954,0,0,0-5.309,5.771c-.44.783-.835,1.625-1.216,2.44l-.069.147c6.365,4.313,6.627,10.85,6.242,15.479a72.7,72.7,0,0,1-5.328,21.285A2.936,2.936,0,0,1,78.17,68.59M68.976,39.847a1.9,1.9,0,0,1,1.8,1.267c.683,1.523,1.447,3.027,2.1,4.3.366.706.769,1.422,1.158,2.115a37.1,37.1,0,0,1,2.2,4.355c1.882,4.7,1.783,9.644,1.487,13.427-.056.717.113.768.309.827.119.037.318.1.591-.581a70.317,70.317,0,0,0,5.16-20.577c.561-6.756-1.288-11.005-6-13.777l-.969-.571.492-1.011c.175-.36.347-.727.52-1.1.4-.855.814-1.74,1.3-2.6a18.713,18.713,0,0,1,4.73-5.636,33.774,33.774,0,0,0-6.362-3.571l-1.068-.466.77-2,.287-.032A22.508,22.508,0,0,0,65.352,9.191l-3.243-.375,2.7-1.84a9.921,9.921,0,0,1,1.282-.741,44.883,44.883,0,0,0-14.734-.57l-1,.092-.577-2.02A43.151,43.151,0,0,0,39.94,5.208l-.877.236L37.939,3.612l.135-.129c-1.233.171-2.424.351-3.6.584a27.583,27.583,0,0,0-13,5.882C16.142,14.527,13.6,20.464,13.7,28.1c0,.242,0,.484,0,.736v1.4l-1.036.156-.34.054c-.231.037-.45.073-.682.1a10.037,10.037,0,0,0-8.72,8.016c-.132.68-.243,1.388-.35,2.072-.046.295-.093.589-.141.883v3.307c.039.323.075.647.112.97.082.725.167,1.474.273,2.2A73.766,73.766,0,0,0,7.9,65.6c.214.515.323.489.5.445.1-.023.173-.327.168-.692l-.009-.769c-.026-2.065-.052-4.2.021-6.312a22.343,22.343,0,0,1,5.265-13.6,6.814,6.814,0,0,0,1.539-3.491c.095-.75.135-1.537.177-2.37.021-.407.042-.826.071-1.264l.1-1.509,1.453.418c.272.078.543.152.812.226.6.165,1.226.336,1.839.545.656.224,1.307.472,1.936.712a31.459,31.459,0,0,0,3.27,1.113,74.591,74.591,0,0,0,13.34,2.022,119.044,119.044,0,0,0,17.359-.006c3.185-.225,6.425-.552,9.558-.869q1.711-.173,3.422-.341.133-.013.254-.013m-.462,2.171h0Z" transform="translate(0.001 -0.001)" fill="#b3c5ce"/>
  </g>
</svg>
