<svg xmlns="http://www.w3.org/2000/svg" width="18.198" height="34.397" viewBox="0 0 18.198 34.397">
  <path id="Caminho_10" data-name="Caminho 10" d="M153.552,2.415a3.56,3.56,0,0,0-1.56-.93.568.568,0,0,0-.79.349.573.573,0,0,0,.359.783c.245.116.5.211.735.35.631.38.635.7-.015,1.056a7.327,7.327,0,0,1-3.756.737l.225-.352a29.413,29.413,0,0,1,2.416-3.291c.249-.292.361-.6.069-.908-.306-.324-.639-.238-.952.02-.026.021-.055.04-.082.061a20.362,20.362,0,0,0-3.733,3.833c-.1.127-.137.372-.416.267a3.67,3.67,0,0,1-1.082-.556c-.288-.237-.3-.471,0-.711a3.592,3.592,0,0,1,.946-.493.584.584,0,0,0,.382-.818.574.574,0,0,0-.8-.324,4.035,4.035,0,0,0-1.3.686,1.564,1.564,0,0,0-.064,2.547,4.917,4.917,0,0,0,1.353.785,39.763,39.763,0,0,0-2.572,4.562c-.055.115-.066.318-.308.246a3.669,3.669,0,0,1-1.372-.647c-.284-.238-.228-.456.03-.672a3.688,3.688,0,0,1,.986-.525.609.609,0,1,0-.439-1.136,3.917,3.917,0,0,0-1.375.76,1.535,1.535,0,0,0-.025,2.476,3.933,3.933,0,0,0,1.562.833c.2.061.281.111.178.348q-.907,2.079-1.61,4.237c-.054.167-.119.27-.321.2a4.441,4.441,0,0,1-1.3-.571c-.43-.319-.424-.541.021-.864a3.61,3.61,0,0,1,.819-.407.591.591,0,0,0,.4-.813.58.58,0,0,0-.837-.333,4.81,4.81,0,0,0-1.089.549,1.623,1.623,0,0,0-.036,2.863,5.042,5.042,0,0,0,1.568.717c.151.046.344.025.26.311a36.982,36.982,0,0,0-1,4.162c-.023.135-.052.269-.261.195a4.108,4.108,0,0,1-1.235-.59c-.328-.261-.286-.5.025-.744a4.32,4.32,0,0,1,.948-.488.571.571,0,0,0,.353-.789.563.563,0,0,0-.785-.349,4.154,4.154,0,0,0-1.3.687,1.566,1.566,0,0,0-.033,2.611,4.122,4.122,0,0,0,1.68.822c.3.079.356.182.262.491a9.141,9.141,0,0,1-.959,1.906,7.46,7.46,0,0,0-1.229,4.647,4.591,4.591,0,0,0,9.129-.265,7.442,7.442,0,0,0-1.12-4.429,9.376,9.376,0,0,1-.865-1.729c-.12-.338-.078-.462.3-.549a3.933,3.933,0,0,0,2.217-1.172,1.473,1.473,0,0,0,0-2.037,3.669,3.669,0,0,0-1.49-.949c-.389-.157-.726-.11-.893.3s.029.674.424.837a4.4,4.4,0,0,1,.812.42c.426.292.423.527.015.831a4.1,4.1,0,0,1-1.3.573c-.268.082-.313-.041-.313-.277a29.007,29.007,0,0,1,.22-3.772c.038-.288.155-.338.409-.372a10.817,10.817,0,0,0,1.449-.292,3.856,3.856,0,0,0,1.94-1.065,1.482,1.482,0,0,0,.006-2.116,3.672,3.672,0,0,0-1.5-.927.589.589,0,0,0-.869.347c-.15.4.075.652.429.795a3.567,3.567,0,0,1,.815.414c.443.328.451.551,0,.856a5.333,5.333,0,0,1-2.442.768c.182-.778.335-1.508.527-2.226.18-.672.415-1.33.6-2,.074-.273.223-.333.475-.331a8.5,8.5,0,0,0,2.419-.344,3.871,3.871,0,0,0,2.052-1.165,1.455,1.455,0,0,0-.02-2,3.555,3.555,0,0,0-1.586-.984.611.611,0,1,0-.439,1.139,7.007,7.007,0,0,1,.733.354c.614.376.619.671,0,1.022a6.469,6.469,0,0,1-3,.742.71.71,0,0,1,.015-.178,38.035,38.035,0,0,1,2.03-4.222c.13-.234.3-.227.5-.218a10.555,10.555,0,0,0,3.292-.313,4.1,4.1,0,0,0,2.126-1.14,1.477,1.477,0,0,0-.024-2.113m-13.19,18.907c.225-1.131.522-2.243.84-3.35.186-.649.669-.236,1.006-.253.374-.02.152.3.137.455a24.52,24.52,0,0,0-.158,3.508c.025.511-.1.73-.625.654a2.44,2.44,0,0,0-.356,0c-1.045-.008-1.042-.008-.843-1.012m3.181,5a5.7,5.7,0,0,1,.848,2.947,3.411,3.411,0,0,1-3.2,3.687,3.361,3.361,0,0,1-3.512-3.172,6.059,6.059,0,0,1,1.01-3.471,9.3,9.3,0,0,0,1.238-2.607c.043-.188.131-.244.319-.214a8.389,8.389,0,0,0,1.782.043c.172-.009.276,0,.324.212a9.236,9.236,0,0,0,1.193,2.575m.127-14.129a33.762,33.762,0,0,0-.931,3.589c-.157.81-.183.831-1.034.581q.714-2.2,1.643-4.315c.056-.129.083-.344.293-.268.265.1.071.279.029.414" transform="translate(-135.945 0.106)" fill="#fff" stroke="#fff" stroke-width="0.2"/>
</svg>
