<svg xmlns="http://www.w3.org/2000/svg" xmlns:xlink="http://www.w3.org/1999/xlink" width="35.928" height="35.992" viewBox="0 0 35.928 35.992">
  <defs>
    <clipPath id="clip-path">
      <rect id="Retângulo_54" data-name="Retângulo 54" width="35.928" height="35.992" fill="#fff"/>
    </clipPath>
  </defs>
  <g id="Grupo_9" data-name="Grupo 9" clip-path="url(#clip-path)">
    <path id="Caminho_11" data-name="Caminho 11" d="M0,30.579c.8-.832,1.577-1.683,2.4-2.489.377-.369.866-.255,1.4.209l1.453-1.465a3.118,3.118,0,0,1-.3-.406.887.887,0,0,1,.1-1.018,2.927,2.927,0,0,1,.264-.281q8.842-8.859,17.693-17.71a8.834,8.834,0,0,1,1.524-1.166c.848-.538,1.735-1.014,2.6-1.523a1.051,1.051,0,0,1,.87-.123.535.535,0,0,0,.395-.1c.966-.7,1.922-1.414,2.881-2.122.6-.443.853-.435,1.439.054L35.22,0h.351c.454.36.474.622.064,1.032-.718.719-1.44,1.433-2.157,2.147.5.626.509.865.056,1.481q-1.041,1.413-2.085,2.824a.547.547,0,0,0-.121.533,1.036,1.036,0,0,1-.1.7c-.563,1.025-1.138,2.045-1.756,3.037A7.179,7.179,0,0,1,28.459,13q-8.781,8.818-17.578,17.621c-.677.678-1.028.693-1.737.105L7.68,32.188c.027.03.09.1.148.166a.939.939,0,0,1-.017,1.333c-.658.682-1.331,1.35-2.009,2.012a2.535,2.535,0,0,1-.47.294H4.911a6.193,6.193,0,0,1-.688-.519Q2.346,33.617.494,31.737A5.725,5.725,0,0,1,0,31.071v-.492M24.222,15.693l-3.939-3.946L9.761,22.29l3.934,3.951L24.222,15.693m.535-8.361a2.184,2.184,0,0,1,.39.233q.753.736,1.488,1.491a.525.525,0,1,1-.74.743c-.113-.1-.216-.214-.323-.322l-1.525-1.54L22.73,9.25l3.926,3.965L27.967,11.9c-.484-.594-.544-.81-.28-1.066.245-.238.46-.194,1,.217.509-.883,1.019-1.761,1.515-2.646a.3.3,0,0,0-.067-.26Q28.974,6.969,27.8,5.811a.317.317,0,0,0-.287-.06c-.876.491-1.742,1-2.753,1.581M12.873,27.1l-4-4.013-.788.8c.238.341.85.628.358,1.126s-.783-.11-1.1-.331L6.035,25.983l3.932,3.955,1.36-1.361c-.157-.138-.349-.291-.523-.462-.442-.434-.883-.87-1.31-1.318a.507.507,0,0,1,0-.752.522.522,0,0,1,.729.009c.1.083.185.179.275.27l1.553,1.56.818-.787M6.925,33.026l-3.936-3.94L1.206,30.867,5.14,34.818l1.785-1.793m14.161-22.17,4,4.015.759-.763L21.857,10.1l-.772.756M8.313,29.906,6.1,27.7,4.707,29.1,6.914,31.3l1.4-1.4M31.95,3.2,28.974,5.409l1.551,1.557L32.717,3.99,31.95,3.2" fill="#fff"/>
    <path id="Caminho_12" data-name="Caminho 12" d="M148.381,164.111a1.7,1.7,0,0,1,1.611,1,1.513,1.513,0,0,1-.3,1.758q-1.962,2.01-3.972,3.972a1.772,1.772,0,0,1-.764.393,1.613,1.613,0,0,1-1.6-2.593c.549-.607,1.14-1.176,1.726-1.749a.49.49,0,0,1,.724,0,.528.528,0,0,1-.03.782c-.506.52-1.038,1.016-1.524,1.553a.741.741,0,0,0-.152.592.625.625,0,0,0,.433.379.836.836,0,0,0,.576-.233c.54-.5,1.049-1.035,1.57-1.557l2.058-2.063c.4-.4.448-.718.165-.994s-.588-.215-.992.189c-.108.108-.21.221-.324.321a.527.527,0,0,1-.755.017.516.516,0,0,1,.014-.753,5.964,5.964,0,0,1,.858-.77,2.5,2.5,0,0,1,.68-.244" transform="translate(-129.579 -148.729)" fill="#fff"/>
  </g>
</svg>
