<svg id="Grupo_25" data-name="Grupo 25" xmlns="http://www.w3.org/2000/svg" xmlns:xlink="http://www.w3.org/1999/xlink" width="26.876" height="44.831" viewBox="0 0 26.876 44.831">
  <defs>
    <clipPath id="clip-path">
      <rect id="Retângulo_109" data-name="Retângulo 109" width="26.876" height="44.831" fill="#638796"/>
    </clipPath>
  </defs>
  <g id="Grupo_24" data-name="Grupo 24" clip-path="url(#clip-path)">
    <path id="Caminho_49" data-name="Caminho 49" d="M33.167,20.137c.075.063.147.116.209.178.571.569,1.135,1.144,1.713,1.705.153.149.174.23.013.4-.831.9-.824.9-1.682.047-.361-.362-.715-.731-1.087-1.081-.165-.156-.211-.261-.015-.43.234-.2.442-.434.662-.652.054-.054.113-.1.187-.171" transform="translate(-28.175 -17.626)" fill="#638796"/>
    <path id="Caminho_50" data-name="Caminho 50" d="M162.4,21.488c-.065.074-.111.135-.165.189-.579.581-1.164,1.156-1.737,1.743-.139.143-.241.172-.364,0a.724.724,0,0,0-.065-.066c-.255-.267-.688-.517-.716-.806s.448-.535.7-.8c.362-.381.747-.742,1.109-1.124.149-.157.252-.177.4-.005.216.242.456.463.685.694.051.052.095.11.149.174" transform="translate(-139.476 -17.943)" fill="#638796"/>
    <path id="Caminho_51" data-name="Caminho 51" d="M101.809,1.5c0-.4.01-.809,0-1.212-.007-.2.056-.254.26-.264C103.3-.044,103.3-.05,103.3,1.172c0,.528-.009,1.057,0,1.585,0,.2-.056.254-.26.264-1.238.066-1.237.073-1.237-1.149V1.5" transform="translate(-89.109 0)" fill="#638796"/>
    <path id="Caminho_52" data-name="Caminho 52" d="M7.446,85.5c-.389,0-.778-.017-1.165.006-.26.016-.3-.087-.3-.317C5.954,84,5.947,84,7.134,84c.5,0,.995.011,1.492,0,.241-.008.348.027.352.315C8.994,85.5,9.006,85.5,7.819,85.5H7.446" transform="translate(-5.227 -73.524)" fill="#638796"/>
    <path id="Caminho_53" data-name="Caminho 53" d="M187.035,85.506c-.4,0-.809-.009-1.212,0-.2.007-.3-.046-.262-.257a.244.244,0,0,0,0-.047c-.042-1.194-.042-1.194,1.139-1.194.528,0,1.057.008,1.585,0,.2,0,.3.047.262.257a.231.231,0,0,0,0,.047c.043,1.194.043,1.194-1.139,1.194h-.373" transform="translate(-162.41 -73.533)" fill="#638796"/>
    <path id="Caminho_54" data-name="Caminho 54" d="M25.994,179.8c-.9-.006-1.8.007-2.705-.005a.819.819,0,0,0-.892.65c-.117.4-.259.8-.37,1.2-.773,2.8-2.472,5.086-4.162,7.37a1.262,1.262,0,0,1-1.064.476,4.489,4.489,0,1,0-6.755,0,1.382,1.382,0,0,1-1.1-.539,33.775,33.775,0,0,1-3.268-5.083,31,31,0,0,1-1.19-3.372c-.2-.575-.379-.7-.995-.7q-1.213,0-2.426,0c-.92,0-1.166.283-1.039,1.2a20.457,20.457,0,0,0,3.413,8.91q1.886,2.745,3.791,5.476a1.188,1.188,0,0,1,.231.729c-.012,1.679-.006,3.358-.006,5.038,0,1.047,0,1.024,1.06,1.053.4.011.441-.141.439-.475q-.02-2.962,0-5.924a1.7,1.7,0,0,0-.335-1.034q-1.989-2.844-3.951-5.706a18.986,18.986,0,0,1-3.036-7.437c-.048-.264-.023-.378.268-.34a2.9,2.9,0,0,0,.373,0c.914,0,.913,0,1.165.849.066.223.132.446.205.666a25.017,25.017,0,0,0,4.268,7.215,2.687,2.687,0,0,0,2.232.972q3.289,0,6.577,0a2.935,2.935,0,0,0,2.478-1.255c1.844-2.522,3.657-5.064,4.393-8.182.033-.14.058-.27.254-.267.472.007.944,0,1.434,0a19.2,19.2,0,0,1-3.244,8.007c-1.288,1.846-2.558,3.705-3.846,5.552a1.419,1.419,0,0,0-.272.864c.01,1.788,0,3.576,0,5.364,0,1.129,0,1.115,1.126,1.123.317,0,.376-.1.374-.389-.012-1.9,0-3.794-.012-5.691a1.253,1.253,0,0,1,.246-.77c1.237-1.769,2.459-3.547,3.687-5.322a20.588,20.588,0,0,0,3.515-9.211c.086-.664-.207-1.014-.867-1.019m-12.579,9.7a2.985,2.985,0,1,1,.043-5.97,2.985,2.985,0,0,1-.043,5.97" transform="translate(0 -157.371)" fill="#638796"/>
    <path id="Caminho_55" data-name="Caminho 55" d="M59.838,48.076a4.484,4.484,0,0,0-4.126,1.176c-.215.2-.323.244-.538.006a3.756,3.756,0,0,0-1.259-.863,4.033,4.033,0,0,0-5.926,4,7.286,7.286,0,0,0,1.517,3.747A21.746,21.746,0,0,0,55,61.262a.769.769,0,0,0,.95-.044,22.474,22.474,0,0,0,5.083-4.62A7.684,7.684,0,0,0,62.9,52.325c.015-2.286-1.186-3.876-3.064-4.249m.528,6.908a19.352,19.352,0,0,1-4.74,4.642.258.258,0,0,1-.365,0,18.282,18.282,0,0,1-5.012-5.073,5.646,5.646,0,0,1-.736-1.946A2.54,2.54,0,0,1,52.89,49.6a2.9,2.9,0,0,1,1.8,1.452c.172.321.37.573.774.563.381-.009.565-.258.731-.559a2.927,2.927,0,0,1,2.525-1.585,2.453,2.453,0,0,1,2.694,2.757,5.38,5.38,0,0,1-1.045,2.754" transform="translate(-41.994 -41.97)" fill="#638796"/>
  </g>
</svg>
