<svg xmlns="http://www.w3.org/2000/svg" width="21.4" height="20.475" viewBox="0 0 21.4 20.475">
  <path id="Caminho_214" data-name="Caminho 214" d="M336.838,17.931c.246-1.412.558-2.985.768-4.571a1.685,1.685,0,0,0-.385-1.219c-1.021-1.089-2.174-2.057-3.169-3.168a1.975,1.975,0,0,1-.526-1.6,2.232,2.232,0,0,1,1.449-1.043c1.416-.324,2.881-.425,4.309-.705a1.706,1.706,0,0,0,1.041-.737c.709-1.27,1.251-2.636,2-3.878a2.177,2.177,0,0,1,1.469-1,1.994,1.994,0,0,1,1.367.975c.726,1.215,1.251,2.549,1.959,3.777a2,2,0,0,0,1.181.864c1.423.3,2.891.391,4.308.707a2.057,2.057,0,0,1,1.372.995,2,2,0,0,1-.492,1.611c-.963,1.089-2.046,2.077-3.114,3.068a1.318,1.318,0,0,0-.477,1.422,33.161,33.161,0,0,1,.694,4.2,2.143,2.143,0,0,1-.511,1.71A2.914,2.914,0,0,1,348.2,19.3a3.417,3.417,0,0,1-1.349-.7c-2.1-1.712-4.151-1.586-6.242.03a7.137,7.137,0,0,1-1.74.9c-1.16.461-2.063-.2-2.027-1.6" transform="translate(-333.051 0.384)" fill="none" stroke="#707070" stroke-width="0.8"/>
</svg>
