<svg xmlns="http://www.w3.org/2000/svg" width="20.609" height="19.542" viewBox="0 0 20.609 19.542">
  <path id="Caminho_213" data-name="Caminho 213" d="M187.639,8.053a5.85,5.85,0,0,1-.664.955c-.993,1.018-2.073,1.956-3.018,3.015a2.184,2.184,0,0,0-.486,1.508c.144,1.411.518,2.8.655,4.209a2.047,2.047,0,0,1-.505,1.609,2.021,2.021,0,0,1-1.694.047,36.4,36.4,0,0,1-3.783-1.958,1.473,1.473,0,0,0-1.7-.023,30.969,30.969,0,0,1-3.681,1.917,2.195,2.195,0,0,1-1.786.034,2.139,2.139,0,0,1-.526-1.69c.128-1.411.5-2.8.648-4.21a2.029,2.029,0,0,0-.462-1.414c-.979-1.079-2.116-2.016-3.077-3.108a2.021,2.021,0,0,1-.493-1.617,2.042,2.042,0,0,1,1.367-.989c1.419-.316,2.885-.419,4.313-.706a1.845,1.845,0,0,0,1.124-.782c.715-1.267,1.255-2.635,2-3.885A2.022,2.022,0,0,1,177.26.015a2,2,0,0,1,1.4.927c.743,1.248,1.282,2.616,2,3.885a1.842,1.842,0,0,0,1.113.8c1.464.292,2.951.465,4.43.681.866.126,1.408.559,1.437,1.744" transform="translate(-167.029 -0.015)" fill="#e3c283"/>
</svg>
