<svg xmlns="http://www.w3.org/2000/svg" width="26.951" height="26.951" viewBox="0 0 26.951 26.951"><path id="Icon_awesome-question-circle" data-name="Icon awesome-question-circle" d="M27.514,14.038A13.476,13.476,0,1,1,14.038.563,13.475,13.475,0,0,1,27.514,14.038ZM14.4,5.018A7.038,7.038,0,0,0,8.067,8.483a.653.653,0,0,0,.148.883L10.1,10.8a.652.652,0,0,0,.906-.115c.971-1.231,1.636-1.945,3.114-1.945,1.11,0,2.483.714,2.483,1.791,0,.814-.672,1.232-1.768,1.846-1.278.717-2.97,1.608-2.97,3.839v.217a.652.652,0,0,0,.652.652H15.56a.652.652,0,0,0,.652-.652v-.072c0-1.547,4.52-1.611,4.52-5.8C20.732,7.409,17.462,5.018,14.4,5.018Zm-.362,13.476a2.5,2.5,0,1,0,2.5,2.5A2.5,2.5,0,0,0,14.038,18.494Z" transform="translate(-0.563 -0.563)" fill="#b4b4b4"></path></svg>