<svg xmlns="http://www.w3.org/2000/svg" xmlns:xlink="http://www.w3.org/1999/xlink" width="44.031" height="38.363" viewBox="0 0 44.031 38.363">
  <defs>
    <clipPath id="clip-path">
      <rect id="Retângulo_55" data-name="Retângulo 55" width="44.031" height="38.363" fill="#fff"/>
    </clipPath>
  </defs>
  <g id="Grupo_11" data-name="Grupo 11" clip-path="url(#clip-path)">
    <path id="Caminho_13" data-name="Caminho 13" d="M43.687,37.345a15.43,15.43,0,0,0-4.636-2.079,13.419,13.419,0,0,1-3.246-1.2,13.532,13.532,0,0,1-5.783-5.279c-.307-.543-.515-1.035-.073-1.617a2.77,2.77,0,0,0,.319-.828,30.726,30.726,0,0,0,.989-4.5A.505.505,0,0,1,31.5,21.4a2.429,2.429,0,0,0,.962-1.109,9.08,9.08,0,0,0,.965-4.609,2.379,2.379,0,0,0-.628-1.832,1.729,1.729,0,0,1-.569-1.776c.013-.181,0-.364,0-.672-.026-.421-.039-.969-.1-1.512-.066-.575-.162-1.147-.276-1.715A9.889,9.889,0,0,0,20.738.092a9.461,9.461,0,0,0-7.769,5.683,14.879,14.879,0,0,0-1.139,7.037c.009.2.125.423-.129.58a2.372,2.372,0,0,0-1.028,1.842,8.719,8.719,0,0,0,.955,5.186,2.111,2.111,0,0,0,.839.959.594.594,0,0,1,.319.5,19.738,19.738,0,0,0,1.3,5.229,1.614,1.614,0,0,1-.123,1.753c-.249.39-.484.792-.762,1.16a14.292,14.292,0,0,1-5.184,4.153,14.26,14.26,0,0,1-3.121,1.112A15.342,15.342,0,0,0,.312,37.365a.5.5,0,0,0-.216.756.487.487,0,0,0,.737.129c.141-.086.281-.175.423-.26a13.552,13.552,0,0,1,3.886-1.707,15.778,15.778,0,0,0,6.282-3.049A5.837,5.837,0,0,1,13.483,32.2a24.059,24.059,0,0,1,6.043-.776,46.607,46.607,0,0,1,9.76.475,7.652,7.652,0,0,1,3.6,1.536,13.137,13.137,0,0,0,5.042,2.584,17.505,17.505,0,0,1,5.223,2.206c.286.186.58.223.782-.09s.077-.588-.243-.785M31.8,14.317c.42.1.466.607.538.99a10.842,10.842,0,0,1,.1,1.135,8.352,8.352,0,0,1-.873,3.338,1.266,1.266,0,0,1-.874.8c-.384.076-.358.478-.4.778a35.4,35.4,0,0,1-.813,4.031c-.135.492-.327.968-.487,1.454-.071.214-.177.261-.4.174a4.453,4.453,0,0,0-.993-.3c-.469-.066-.6-.233-.511-.731a12.5,12.5,0,0,1,1.194-3.707,16.8,16.8,0,0,0,1.3-3.99,9.134,9.134,0,0,1,1.389-3.312c.214-.288.42-.763.833-.664M23.083,1.074A8.944,8.944,0,0,1,30.875,8.52a20.083,20.083,0,0,1,.285,4.548c-.005.148,0,.289-.14.4a6.9,6.9,0,0,0-2.228,3.772c-.242.771-.4,1.567-.612,2.349a11.947,11.947,0,0,1-.98,2.534A11.015,11.015,0,0,0,26.1,25.7c-.1.671-.1.684-.744.619a17.8,17.8,0,0,0-2.38-.108c-.391.013-.455-.123-.454-.479.013-4.041.008-8.082.008-12.123,0-4.008.009-8.016-.012-12.023,0-.471.12-.578.57-.513M14.132,5.736a8.782,8.782,0,0,1,6.954-4.674c.368-.056.43.074.429.413Q21.5,7.537,21.507,13.6c0,4.007-.01,8.015.013,12.022,0,.5-.143.61-.6.59a15.563,15.563,0,0,0-2.526.145c-.234.028-.359.03-.392-.252a15.159,15.159,0,0,0-1.6-4.917,23.585,23.585,0,0,1-1.142-3.891,6.622,6.622,0,0,0-1.669-3.27,2.314,2.314,0,0,1-.742-1.99,13.2,13.2,0,0,1,1.292-6.3m-.059,17.519c-.13-.665-.224-1.338-.327-2.008-.056-.367-.156-.664-.609-.715-.312-.035-.439-.335-.574-.577A8.2,8.2,0,0,1,11.62,16.3a3.56,3.56,0,0,1,.339-1.74c.193-.336.392-.391.686-.1a6.875,6.875,0,0,1,1.6,3.038c.234.775.4,1.569.61,2.351a12.255,12.255,0,0,0,1.029,2.676A11.623,11.623,0,0,1,17,26.311c.039.249-.08.269-.256.314a8.8,8.8,0,0,0-1.235.358c-.309.129-.4.009-.5-.237a18.261,18.261,0,0,1-.938-3.489m-.313,7.739a10.572,10.572,0,0,0,1.591-2.648.623.623,0,0,1,.438-.354,13.027,13.027,0,0,1,3.939-.713,27.287,27.287,0,0,1,7.56.425c.048.011.1.019.146.028a1.765,1.765,0,0,1,1.543,1.238,8.3,8.3,0,0,0,1.252,2.019,52.392,52.392,0,0,0-16.468.005" transform="translate(0 0)" fill="#fff"/>
    <path id="Caminho_14" data-name="Caminho 14" d="M180.632,24.351c-.318-.067-.524-.249-.5-.577a.52.52,0,0,1,1.036.048.527.527,0,0,1-.54.529" transform="translate(-156.194 -20.211)" fill="#fff"/>
    <path id="Caminho_15" data-name="Caminho 15" d="M196.139,32.9c.3.041.506.19.516.5a.513.513,0,1,1-1.025.052c-.017-.34.2-.5.509-.555" transform="translate(-169.63 -28.531)" fill="#fff"/>
    <path id="Caminho_16" data-name="Caminho 16" d="M181.176,43.106a.522.522,0,0,1-.55.521.516.516,0,1,1,.038-1.031.519.519,0,0,1,.511.51" transform="translate(-156.186 -36.935)" fill="#fff"/>
    <path id="Caminho_17" data-name="Caminho 17" d="M179.158,64.076a.52.52,0,0,1-.534-.544.52.52,0,0,1,1.037-.018.521.521,0,0,1-.5.562" transform="translate(-154.885 -54.655)" fill="#fff"/>
    <path id="Caminho_18" data-name="Caminho 18" d="M211.669,82.84a.5.5,0,0,1-.533.514.519.519,0,0,1,.02-1.037.507.507,0,0,1,.513.523" transform="translate(-182.636 -71.377)" fill="#fff"/>
    <path id="Caminho_19" data-name="Caminho 19" d="M179.622,100.921c-.049.311-.213.529-.549.519a.518.518,0,1,1,.034-1.035c.306.005.469.211.515.515" transform="translate(-154.838 -87.062)" fill="#fff"/>
    <path id="Caminho_20" data-name="Caminho 20" d="M199.108,68.765c.3.048.5.189.51.506a.477.477,0,0,1-.514.534.482.482,0,0,1-.509-.543c.013-.316.231-.449.513-.5" transform="translate(-172.201 -59.626)" fill="#fff"/>
    <path id="Caminho_21" data-name="Caminho 21" d="M207.371,46.967c.331.028.539.179.559.484a.516.516,0,0,1-1.028.083c-.028-.339.2-.493.469-.566" transform="translate(-179.402 -40.725)" fill="#fff"/>
    <path id="Caminho_22" data-name="Caminho 22" d="M193.116,53.706c.3.03.509.171.533.484a.512.512,0,1,1-1.021.09c-.026-.339.182-.506.488-.574" transform="translate(-167.026 -46.568)" fill="#fff"/>
    <path id="Caminho_23" data-name="Caminho 23" d="M215.454,65.948c-.064.324-.235.528-.573.5a.51.51,0,1,1,.1-1.016c.318.023.446.237.478.52" transform="translate(-185.915 -56.731)" fill="#fff"/>
    <path id="Caminho_24" data-name="Caminho 24" d="M213.485,97.4c-.047.308-.2.521-.539.519a.507.507,0,1,1,.021-1.014c.314,0,.466.2.518.495" transform="translate(-184.21 -84.025)" fill="#fff"/>
    <path id="Caminho_25" data-name="Caminho 25" d="M181.332,147.706c-.059.322-.23.517-.568.5a.509.509,0,0,1,.029-1.017c.338,0,.493.21.539.521" transform="translate(-156.331 -127.624)" fill="#fff"/>
    <path id="Caminho_26" data-name="Caminho 26" d="M184.214,167.275a.485.485,0,0,1,.534-.5.514.514,0,0,1-.041,1.027.485.485,0,0,1-.493-.532" transform="translate(-159.731 -144.613)" fill="#fff"/>
    <path id="Caminho_27" data-name="Caminho 27" d="M185.318,80.485a.481.481,0,0,1,.515.521.512.512,0,0,1-1.023-.022.475.475,0,0,1,.509-.5" transform="translate(-160.247 -69.788)" fill="#fff"/>
    <path id="Caminho_28" data-name="Caminho 28" d="M195.367,93.134a.508.508,0,1,1-.523.513c0-.339.2-.5.523-.513" transform="translate(-168.948 -80.756)" fill="#fff"/>
    <path id="Caminho_29" data-name="Caminho 29" d="M187.6,122.273a.476.476,0,0,1-.491.516.508.508,0,0,1-.046-1.016.482.482,0,0,1,.537.5" transform="translate(-161.779 -105.589)" fill="#fff"/>
    <path id="Caminho_30" data-name="Caminho 30" d="M195.869,137.277a.477.477,0,0,1-.491.513.466.466,0,0,1-.531-.51.511.511,0,0,1,1.023,0" transform="translate(-168.951 -118.592)" fill="#fff"/>
    <path id="Caminho_31" data-name="Caminho 31" d="M200.59,111.188c.363,0,.561.161.581.465a.466.466,0,0,1-.488.549.51.51,0,0,1-.093-1.014" transform="translate(-173.55 -96.411)" fill="#fff"/>
  </g>
</svg>
