<svg xmlns="http://www.w3.org/2000/svg" width="34" height="34" viewBox="0 0 34 34">
  <g id="Grupo_189" data-name="Grupo 189" transform="translate(-49.157 0.456)">
    <g id="Grupo_47" data-name="Grupo 47" transform="translate(49.646)">
      <g id="Elipse_17" data-name="Elipse 17" transform="translate(-0.489 -0.456)" fill="none" stroke="#638796" stroke-width="1">
        <circle cx="17" cy="17" r="17" stroke="none"/>
        <circle cx="17" cy="17" r="16.5" fill="none"/>
      </g>
    </g>
    <path id="Icon_awesome-instagram" data-name="Icon awesome-instagram" d="M8.25,6.258a4.231,4.231,0,1,0,4.231,4.231A4.225,4.225,0,0,0,8.25,6.258Zm0,6.982A2.751,2.751,0,1,1,11,10.489,2.756,2.756,0,0,1,8.25,13.24Zm5.391-7.155a.987.987,0,1,1-.987-.987A.985.985,0,0,1,13.641,6.085Zm2.8,1a4.884,4.884,0,0,0-1.333-3.458A4.916,4.916,0,0,0,11.653,2.3c-1.363-.077-5.447-.077-6.809,0A4.909,4.909,0,0,0,1.386,3.625,4.9,4.9,0,0,0,.053,7.083c-.077,1.363-.077,5.447,0,6.809A4.884,4.884,0,0,0,1.386,17.35a4.922,4.922,0,0,0,3.458,1.333c1.363.077,5.447.077,6.809,0a4.884,4.884,0,0,0,3.458-1.333,4.916,4.916,0,0,0,1.333-3.458c.077-1.363.077-5.443,0-6.805Zm-1.76,8.267a2.785,2.785,0,0,1-1.569,1.569c-1.086.431-3.664.331-4.865.331s-3.782.1-4.865-.331a2.785,2.785,0,0,1-1.569-1.569c-.431-1.086-.331-3.664-.331-4.865s-.1-3.782.331-4.865A2.785,2.785,0,0,1,3.385,4.056c1.086-.431,3.664-.331,4.865-.331s3.782-.1,4.865.331a2.785,2.785,0,0,1,1.569,1.569c.431,1.086.331,3.664.331,4.865S15.114,14.271,14.684,15.354Z" transform="translate(58.232 5.849)" fill="#638796"/>
  </g>
</svg>
