<svg xmlns="http://www.w3.org/2000/svg" xmlns:xlink="http://www.w3.org/1999/xlink" width="36.857" height="31.047" viewBox="0 0 36.857 31.047">
  <defs>
    <clipPath id="clip-path">
      <rect id="Retângulo_56" data-name="Retângulo 56" width="36.857" height="31.047" fill="#fff" stroke="#fff" stroke-width="0.5"/>
    </clipPath>
  </defs>
  <g id="Grupo_13" data-name="Grupo 13" clip-path="url(#clip-path)">
    <path id="Caminho_32" data-name="Caminho 32" d="M4.9,31.048c-.343-.573-.718-1.13-1.023-1.722a22.64,22.64,0,0,1-2.129-6.985c-.27-1.745-.39-3.514-.578-5.272-.008-.072-.018-.144-.04-.325l-.95,1.075c-.057-.652-.113-1.2-.151-1.758a11.238,11.238,0,0,1,.726-5.027A8.332,8.332,0,0,1,6.913,5.9.646.646,0,0,0,7.5,5.288,5.007,5.007,0,0,1,9.973,1.73,11.743,11.743,0,0,1,14.755.16C15.24.1,15.729.061,16.327,0c-.463.454-1.1.748-.683,1.5C19.813-.591,23.9.167,27.964,1.854a7.745,7.745,0,0,0-3.744.652c.5.116,1,.217,1.491.35a13.541,13.541,0,0,1,8.849,7.46,23.649,23.649,0,0,1,2.3,9.388.285.285,0,0,1-.087.221l-.751-1.936a20.063,20.063,0,0,1-2.807,11.4c-.023-.4-.049-.8-.067-1.2a34.831,34.831,0,0,0-1.019-7.53,11.592,11.592,0,0,0-1.538-3.585,4.4,4.4,0,0,0-3.46-2.174,5.75,5.75,0,0,0-3.027.846,13.469,13.469,0,0,1-4.857,1.515A15.555,15.555,0,0,1,9.084,14.8a1.126,1.126,0,0,0-1.29-.045,7.081,7.081,0,0,0-3.558,4.874A17.579,17.579,0,0,0,4.1,26.648c.21,1.349.556,2.677.841,4.014.024.112.048.223.072.334l-.112.052m29.175-5.569c.152-.542.321-1.08.452-1.628a18.039,18.039,0,0,0,.473-5.5,1.188,1.188,0,0,1,.48-1.216.464.464,0,0,0,.11-.385,20.707,20.707,0,0,0-1.808-5.836,12.4,12.4,0,0,0-6.3-6.342,28.959,28.959,0,0,0-3.567-1.063,1,1,0,0,1-.816-.832.9.9,0,0,1,.465-.975,2.037,2.037,0,0,0,.174-.134,10.94,10.94,0,0,0-7.288.681c-1.081.526-1.675.222-1.908-.974,0-.026-.036-.046-.065-.08A9.428,9.428,0,0,0,10.141,2.85,3.88,3.88,0,0,0,8.476,5.512C8.35,6.388,8.09,6.7,7.235,6.883c-4.922,1.081-6.412,5.161-6.2,8.868.9.245,1.091.461,1.152,1.246.091,1.181.175,2.363.3,3.541.074.721.21,1.436.318,2.154a16.949,16.949,0,0,1,.87-4.355,7.739,7.739,0,0,1,4.159-4.588,1.412,1.412,0,0,1,1.481.111,13.623,13.623,0,0,0,1.381.834,14.2,14.2,0,0,0,9.871,1.446,21.016,21.016,0,0,0,4.06-1.612,5.056,5.056,0,0,1,6.455,1.623,13.559,13.559,0,0,1,1.6,3,28.755,28.755,0,0,1,1.405,6.333" transform="translate(0 -0.001)" fill="#fff" stroke="#fff" stroke-width="0.5"/>
  </g>
</svg>
