<svg xmlns="http://www.w3.org/2000/svg" width="32" height="34" viewBox="0 0 32 34">
  <g id="Grupo_190" data-name="Grupo 190" transform="translate(-0.157 0.456)">
    <g id="facebook-logo_1_" data-name="facebook-logo (1)" transform="translate(11.669 7.365)">
      <path id="Caminho_63" data-name="Caminho 63" d="M131.553,6.27V4.621a3.631,3.631,0,0,1,.035-.575,1.116,1.116,0,0,1,.157-.4.64.64,0,0,1,.395-.273,2.811,2.811,0,0,1,.726-.076h1.649V0h-2.636a4.29,4.29,0,0,0-3.286,1.086,4.573,4.573,0,0,0-1,3.2V6.27h-1.974v3.3h1.974v9.568h3.96V9.568h2.636l.348-3.3Z" transform="translate(-125.619)" fill="#638796"/>
    </g>
    <g id="Elipse_16" data-name="Elipse 16" transform="translate(0.157 -0.456)" fill="none" stroke="#638796" stroke-width="1">
      <ellipse cx="16" cy="17" rx="16" ry="17" stroke="none"/>
      <ellipse cx="16" cy="17" rx="15.5" ry="16.5" fill="none"/>
    </g>
  </g>
</svg>
