<svg xmlns="http://www.w3.org/2000/svg" width="31.872" height="31.872" viewBox="0 0 31.872 31.872">
  <path id="Icon_simple-whatsapp" data-name="Icon simple-whatsapp" d="M23.238,19.1c-.4-.2-2.347-1.151-2.709-1.283s-.628-.2-.894.2-1.024,1.28-1.254,1.543-.463.279-.858.1a10.778,10.778,0,0,1-3.191-1.972,12.049,12.049,0,0,1-2.2-2.749c-.231-.4-.025-.618.173-.817.181-.179.4-.458.6-.695a3.367,3.367,0,0,0,.394-.659.73.73,0,0,0-.033-.7c-.1-.2-.892-2.151-1.224-2.93s-.647-.677-.892-.677c-.228-.02-.493-.02-.758-.02a1.5,1.5,0,0,0-1.058.477,4.434,4.434,0,0,0-1.388,3.287,7.77,7.77,0,0,0,1.619,4.084c.2.259,2.8,4.243,6.773,5.956.948.4,1.687.637,2.263.835a5.494,5.494,0,0,0,2.5.161,4.087,4.087,0,0,0,2.677-1.894,3.287,3.287,0,0,0,.239-1.892c-.1-.179-.359-.279-.757-.458m-7.232,9.884H16a13.285,13.285,0,0,1-6.713-1.833L8.8,26.767l-4.98,1.295,1.335-4.841-.317-.5A13.171,13.171,0,0,1,25.356,6.475a13,13,0,0,1,3.863,9.283A13.187,13.187,0,0,1,16.025,28.886M27.251,4.58A16.125,16.125,0,0,0,16,0,15.79,15.79,0,0,0,2.252,23.689L0,31.872l8.413-2.194A16.019,16.019,0,0,0,16,31.6H16A15.857,15.857,0,0,0,31.872,15.8a15.663,15.663,0,0,0-4.641-11.17" fill="#638796"/>
</svg>
