<svg xmlns="http://www.w3.org/2000/svg" width="28.869" height="28.92" viewBox="0 0 28.869 28.92">
  <path id="Icon_feather-phone-call" data-name="Icon feather-phone-call" d="M19.744,6.625a6.406,6.406,0,0,1,5.061,5.061M19.744,1.5A11.531,11.531,0,0,1,29.93,11.673M28.649,21.9v3.844A2.562,2.562,0,0,1,25.856,28.3,25.355,25.355,0,0,1,14.8,24.37a24.984,24.984,0,0,1-7.687-7.687A25.355,25.355,0,0,1,3.178,5.574a2.562,2.562,0,0,1,2.55-2.793H9.572a2.562,2.562,0,0,1,2.562,2.2,16.451,16.451,0,0,0,.9,3.6,2.562,2.562,0,0,1-.577,2.7l-1.627,1.627A20.5,20.5,0,0,0,18.514,20.6l1.627-1.627a2.562,2.562,0,0,1,2.7-.577,16.451,16.451,0,0,0,3.6.9A2.562,2.562,0,0,1,28.649,21.9Z" transform="translate(-2.167 -0.396)" fill="none" stroke="#638796" stroke-linecap="round" stroke-linejoin="round" stroke-width="2"/>
</svg>
