<svg xmlns="http://www.w3.org/2000/svg" width="13.889" height="13.889" viewBox="0 0 13.889 13.889">
  <g id="Icon_ionic-ios-arrow-dropdown" data-name="Icon ionic-ios-arrow-dropdown" transform="translate(0)">
    <path id="Caminho_44" data-name="Caminho 44" d="M10.17,14.6a.647.647,0,0,0,0,.911l3.2,3.185a.644.644,0,0,0,.888.02L17.4,15.582a.643.643,0,1,0-.908-.911l-2.7,2.664L11.082,14.6A.644.644,0,0,0,10.17,14.6Z" transform="translate(-6.845 -9.172)" fill="#638796"/>
    <path id="Caminho_45" data-name="Caminho 45" d="M3.375,10.32A6.945,6.945,0,1,0,10.32,3.375,6.944,6.944,0,0,0,3.375,10.32Zm11.1-4.153A5.868,5.868,0,1,1,10.32,4.443,5.826,5.826,0,0,1,14.473,6.166Z" transform="translate(-3.375 -3.375)" fill="#638796"/>
  </g>
</svg>
