<?xml version="1.0" encoding="utf-8"?>
<!-- Generator: Adobe Illustrator 26.2.1, SVG Export Plug-In . SVG Version: 6.00 Build 0)  -->
<svg version="1.1" id="Camada_1" xmlns="http://www.w3.org/2000/svg" xmlns:xlink="http://www.w3.org/1999/xlink" x="0px" y="0px"
	 viewBox="0 0 1405.3 260.8" style="enable-background:new 0 0 1405.3 260.8;" xml:space="preserve">
<style type="text/css">
	.st0{fill:url(#SVGID_1_);}
	.st1{fill:url(#SVGID_00000116934734511337393750000015298583806043774882_);}
	.st2{fill:url(#SVGID_00000112620409442755413350000006120899021955963272_);}
	.st3{fill:url(#SVGID_00000057121554876509519650000001892919867778430619_);}
	.st4{fill:url(#SVGID_00000116914061681616322820000017707796823436495491_);}
	.st5{fill:url(#SVGID_00000041297677875793140380000017698329368140636328_);}
	.st6{fill:url(#SVGID_00000008834417739344499200000008459136516915377830_);}
	.st7{fill:url(#SVGID_00000054950576085798046050000002001847049384211073_);}
	.st8{fill:url(#SVGID_00000087401463815866484840000013703234093264209073_);}
	.st9{fill:url(#SVGID_00000032647389109201131720000002869436465253600132_);}
	.st10{fill:url(#SVGID_00000181064880194961628070000005501964424973598357_);}
	.st11{fill:url(#SVGID_00000016785919936252601230000004006928429436339606_);}
	.st12{fill:url(#SVGID_00000030454718807498035380000011533657443214269375_);}
	.st13{fill:url(#SVGID_00000002374948624636487020000007792354679739367841_);}
	.st14{fill:url(#SVGID_00000122688067238292716410000005451213549675814801_);}
	.st15{fill:#A9ECE3;}
	.st16{fill:url(#SVGID_00000095323393146198415890000014104149716181796281_);}
	.st17{fill:url(#SVGID_00000096037301203385259780000008217866507556577464_);}
	.st18{fill:url(#SVGID_00000129172930796332765870000018103295046718751117_);}
	.st19{fill:url(#SVGID_00000177445733280594621890000011926016936448068782_);}
	.st20{fill:url(#SVGID_00000090271792955677727100000007009280158242772626_);}
	.st21{fill:url(#SVGID_00000050621370300516753400000003507784930914742913_);}
</style>
<g>
	<linearGradient id="SVGID_1_" gradientUnits="userSpaceOnUse" x1="497.2176" y1="223.9701" x2="1312.5471" y2="225.9733">
		<stop  offset="0" style="stop-color:#43375E"/>
		<stop  offset="1" style="stop-color:#61375C"/>
	</linearGradient>
	<path class="st0" d="M450.3,226.6v-3.5h18.6v22.5h-3.5v-7.4c-1.6,2.8-3.7,4.9-6.3,6.4c-2.6,1.5-5.9,2.2-10,2.2
		c-5.7,0-10.3-2-13.8-6c-3.5-4-5.2-9.7-5.2-17.2c0-3.3,0.4-6.3,1.2-9c0.8-2.7,2.1-5.1,3.8-7.2c1.7-2.1,3.8-3.7,6.3-4.8
		c2.5-1.1,5.5-1.7,8.8-1.7c4.7,0,8.7,1.2,12,3.5c3.2,2.3,5.3,5.8,6.3,10.3h-4.2c-0.7-3.2-2.3-5.7-4.8-7.5c-2.5-1.8-5.5-2.8-8.8-2.8
		c-2.8,0-5.3,0.5-7.3,1.5c-2.1,1-3.8,2.4-5.1,4.2c-1.3,1.8-2.3,4-3,6.6c-0.6,2.5-1,5.4-1,8.5c0,2.4,0.4,4.7,1.1,6.9
		c0.7,2.2,1.7,4.1,3.1,5.8c1.4,1.7,3,3,5,3.9c2,1,4.2,1.4,6.6,1.4c2.7,0,5.2-0.6,7.6-1.8c2.4-1.2,4.2-3.2,5.6-5.8
		c1.2-2.3,1.8-5.3,1.9-9H450.3z"/>
	
		<linearGradient id="SVGID_00000141418895939728901970000001601683616001479865_" gradientUnits="userSpaceOnUse" x1="497.2179" y1="223.827" x2="1312.5475" y2="225.8303">
		<stop  offset="0" style="stop-color:#43375E"/>
		<stop  offset="1" style="stop-color:#61375C"/>
	</linearGradient>
	<path style="fill:url(#SVGID_00000141418895939728901970000001601683616001479865_);" d="M502.3,225.9v19.8h-4.1v-43.6h17.1
		c4.9,0,8.6,0.9,11.1,2.8c2.5,1.8,3.8,4.7,3.8,8.7c0,2.7-0.5,4.9-1.6,6.5c-1.1,1.6-2.9,3-5.4,4.1c1.3,0.4,2.2,1,3,1.8
		c0.7,0.8,1.3,1.8,1.6,2.8c0.3,1.1,0.6,2.1,0.7,3.2c0.1,1.1,0.2,2.4,0.2,3.9c0.1,3.1,0.3,5.4,0.5,6.7c0.3,1.3,0.7,2.2,1.3,2.6v0.4
		h-4.5c-0.5-0.8-0.8-2-1-3.6c-0.2-1.5-0.4-3.5-0.5-5.8c-0.1-2.6-0.3-4.3-0.4-5c-0.4-2.1-1.4-3.6-2.8-4.3s-3.4-1.1-5.8-1.1H502.3z
		 M515.1,222.3c3.3,0,5.9-0.7,7.9-2.1c2-1.4,3-3.6,3-6.5c0-1.6-0.3-2.9-0.8-4c-0.6-1.1-1.3-1.9-2.3-2.5c-1-0.6-2.1-1-3.4-1.3
		c-1.3-0.2-2.6-0.4-4.1-0.4h-13.1v16.8H515.1z"/>
	
		<linearGradient id="SVGID_00000024713740833991166340000003010074744436317071_" gradientUnits="userSpaceOnUse" x1="497.2184" y1="223.6586" x2="1312.5479" y2="225.6618">
		<stop  offset="0" style="stop-color:#43375E"/>
		<stop  offset="1" style="stop-color:#61375C"/>
	</linearGradient>
	<path style="fill:url(#SVGID_00000024713740833991166340000003010074744436317071_);" d="M557.6,214.9c0.9-2.8,2.2-5.2,3.9-7.3
		c1.7-2.1,3.8-3.7,6.4-4.9c2.5-1.2,5.4-1.8,8.5-1.8c3.3,0,6.3,0.6,8.8,1.8c2.6,1.2,4.7,2.8,6.5,4.9c1.7,2.1,3,4.5,3.9,7.3
		c0.9,2.8,1.3,5.8,1.3,9c0,3.2-0.4,6.2-1.3,8.9s-2.2,5.2-3.9,7.3c-1.7,2.1-3.9,3.7-6.4,4.9c-2.6,1.2-5.5,1.8-8.7,1.8
		c-3.3,0-6.2-0.6-8.7-1.8c-2.6-1.2-4.7-2.8-6.4-4.9c-1.7-2.1-3-4.5-3.8-7.3c-0.9-2.8-1.3-5.7-1.3-8.9
		C556.2,220.7,556.7,217.7,557.6,214.9z M583.8,241.7c2.1-1,3.8-2.4,5.1-4.2c1.3-1.8,2.3-3.9,2.9-6.2s0.9-4.8,0.9-7.4
		c0-6.1-1.5-10.8-4.4-14.3c-2.9-3.5-6.9-5.2-11.9-5.2c-2.7,0-5.1,0.5-7.1,1.6c-2,1.1-3.7,2.5-5.1,4.3c-1.3,1.8-2.3,3.9-3,6.2
		c-0.6,2.3-1,4.8-1,7.4s0.3,5.1,1,7.4s1.6,4.4,3,6.2c1.3,1.8,3,3.2,5.1,4.2s4.5,1.5,7.2,1.5C579.3,243.3,581.7,242.8,583.8,241.7z"
		/>
	
		<linearGradient id="SVGID_00000119078662471424821310000000125702041118325894_" gradientUnits="userSpaceOnUse" x1="497.2188" y1="223.4699" x2="1312.5483" y2="225.4732">
		<stop  offset="0" style="stop-color:#43375E"/>
		<stop  offset="1" style="stop-color:#61375C"/>
	</linearGradient>
	<path style="fill:url(#SVGID_00000119078662471424821310000000125702041118325894_);" d="M658.6,239.8h0.1l9.5-37.8h4.2L661,245.6
		h-4.5l-10.1-38.5h-0.1l-10.1,38.5h-4.5l-11.3-43.6h4.1l9.4,37.8h0.1l10.1-37.8h4.6L658.6,239.8z"/>
	
		<linearGradient id="SVGID_00000067935142731987497670000013775224959191319169_" gradientUnits="userSpaceOnUse" x1="497.2192" y1="223.3118" x2="1312.5487" y2="225.315">
		<stop  offset="0" style="stop-color:#43375E"/>
		<stop  offset="1" style="stop-color:#61375C"/>
	</linearGradient>
	<path style="fill:url(#SVGID_00000067935142731987497670000013775224959191319169_);" d="M693.6,202.1h31.7v3.5h-13.8v40.1h-4.1
		v-40.1h-13.8V202.1z"/>
	
		<linearGradient id="SVGID_00000164485804751846517160000009555204030649077690_" gradientUnits="userSpaceOnUse" x1="497.2195" y1="223.1862" x2="1312.5491" y2="225.1895">
		<stop  offset="0" style="stop-color:#43375E"/>
		<stop  offset="1" style="stop-color:#61375C"/>
	</linearGradient>
	<path style="fill:url(#SVGID_00000164485804751846517160000009555204030649077690_);" d="M750.5,245.6v-43.6h4.1v18.7h25.8v-18.7
		h4.1v43.6h-4.1v-21.4h-25.8v21.4H750.5z"/>
	
		<linearGradient id="SVGID_00000145757214934561629110000007621307615810343345_" gradientUnits="userSpaceOnUse" x1="497.2201" y1="222.9341" x2="1312.5497" y2="224.9374">
		<stop  offset="0" style="stop-color:#43375E"/>
		<stop  offset="1" style="stop-color:#61375C"/>
	</linearGradient>
	<path style="fill:url(#SVGID_00000145757214934561629110000007621307615810343345_);" d="M849.6,245.6v-43.6h6.3l14.3,38.4h0.1
		l14-38.4h6.2v43.6h-4.1v-38.9h-0.1l-14.3,38.9h-3.9l-14.3-38.9h-0.1v38.9H849.6z"/>
	
		<linearGradient id="SVGID_00000120542598200660767190000018030946973054874552_" gradientUnits="userSpaceOnUse" x1="497.2205" y1="222.7956" x2="1312.55" y2="224.7988">
		<stop  offset="0" style="stop-color:#43375E"/>
		<stop  offset="1" style="stop-color:#61375C"/>
	</linearGradient>
	<path style="fill:url(#SVGID_00000120542598200660767190000018030946973054874552_);" d="M915.6,245.6l17.1-43.6h4.7l16.7,43.6
		h-4.2l-5-13.7H925l-5.1,13.7H915.6z M926.4,228.5h17.1l-8.5-22.9L926.4,228.5z"/>
	
		<linearGradient id="SVGID_00000016053857758435257900000010650913247525431702_" gradientUnits="userSpaceOnUse" x1="497.2208" y1="222.6449" x2="1312.5504" y2="224.6481">
		<stop  offset="0" style="stop-color:#43375E"/>
		<stop  offset="1" style="stop-color:#61375C"/>
	</linearGradient>
	<path style="fill:url(#SVGID_00000016053857758435257900000010650913247525431702_);" d="M983.4,225.9v19.8h-4.1v-43.6h17.1
		c4.9,0,8.6,0.9,11.1,2.8c2.5,1.8,3.8,4.7,3.8,8.7c0,2.7-0.5,4.9-1.6,6.5c-1.1,1.6-2.9,3-5.5,4.1c1.3,0.4,2.3,1,3,1.8
		c0.7,0.8,1.3,1.8,1.6,2.8c0.3,1.1,0.6,2.1,0.7,3.2c0.1,1.1,0.2,2.4,0.2,3.9c0.1,3.1,0.3,5.4,0.5,6.7c0.3,1.3,0.7,2.2,1.3,2.6v0.4
		h-4.5c-0.5-0.8-0.8-2-1-3.6c-0.2-1.5-0.4-3.5-0.5-5.8c-0.1-2.6-0.3-4.3-0.4-5c-0.4-2.1-1.4-3.6-2.8-4.3c-1.4-0.7-3.4-1.1-5.8-1.1
		H983.4z M996.2,222.3c3.3,0,5.9-0.7,7.9-2.1c2-1.4,3-3.6,3-6.5c0-1.6-0.3-2.9-0.9-4c-0.6-1.1-1.3-1.9-2.3-2.5c-1-0.6-2.1-1-3.4-1.3
		c-1.3-0.2-2.6-0.4-4.1-0.4h-13.1v16.8H996.2z"/>
	
		<linearGradient id="SVGID_00000167391537834733420860000010430839909557363123_" gradientUnits="userSpaceOnUse" x1="497.2217" y1="222.4801" x2="1312.5505" y2="224.4834">
		<stop  offset="0" style="stop-color:#43375E"/>
		<stop  offset="1" style="stop-color:#61375C"/>
	</linearGradient>
	<path style="fill:url(#SVGID_00000167391537834733420860000010430839909557363123_);" d="M1039.3,245.6v-43.6h4.1v22.6l22.3-22.6
		h4.7l-17.2,17.4l20.2,26.2h-5l-18.2-23.7l-6.8,6.8v16.8H1039.3z"/>
	
		<linearGradient id="SVGID_00000054263144458988059500000003573427680039379608_" gradientUnits="userSpaceOnUse" x1="497.2216" y1="222.3365" x2="1312.5511" y2="224.3398">
		<stop  offset="0" style="stop-color:#43375E"/>
		<stop  offset="1" style="stop-color:#61375C"/>
	</linearGradient>
	<path style="fill:url(#SVGID_00000054263144458988059500000003573427680039379608_);" d="M1098.8,245.6v-43.6h29v3.5h-24.9v15.7
		h22.5v3.5h-22.5v17.3h25.5v3.5H1098.8z"/>
	
		<linearGradient id="SVGID_00000109720700702607100240000004909349969312365221_" gradientUnits="userSpaceOnUse" x1="497.222" y1="222.1875" x2="1312.5515" y2="224.1907">
		<stop  offset="0" style="stop-color:#43375E"/>
		<stop  offset="1" style="stop-color:#61375C"/>
	</linearGradient>
	<path style="fill:url(#SVGID_00000109720700702607100240000004909349969312365221_);" d="M1151.2,202.1h31.7v3.5h-13.8v40.1h-4.1
		v-40.1h-13.8V202.1z"/>
	
		<linearGradient id="SVGID_00000060008544394417650190000003425563803734900353_" gradientUnits="userSpaceOnUse" x1="497.2222" y1="222.095" x2="1312.5518" y2="224.0982">
		<stop  offset="0" style="stop-color:#43375E"/>
		<stop  offset="1" style="stop-color:#61375C"/>
	</linearGradient>
	<path style="fill:url(#SVGID_00000060008544394417650190000003425563803734900353_);" d="M1209.6,245.6v-43.6h4.1v43.6H1209.6z"/>
	
		<linearGradient id="SVGID_00000151516394752608063850000016240927659616921733_" gradientUnits="userSpaceOnUse" x1="497.2225" y1="221.9731" x2="1312.552" y2="223.9763">
		<stop  offset="0" style="stop-color:#43375E"/>
		<stop  offset="1" style="stop-color:#61375C"/>
	</linearGradient>
	<path style="fill:url(#SVGID_00000151516394752608063850000016240927659616921733_);" d="M1248.4,207.6h-0.1v38h-4.1v-43.6h4.7
		l25.2,38.1h0.1v-38.1h4.1v43.6h-4.8L1248.4,207.6z"/>
	
		<linearGradient id="SVGID_00000147211062961649874680000000236327750889427871_" gradientUnits="userSpaceOnUse" x1="497.2229" y1="221.8186" x2="1312.5524" y2="223.8219">
		<stop  offset="0" style="stop-color:#43375E"/>
		<stop  offset="1" style="stop-color:#61375C"/>
	</linearGradient>
	<path style="fill:url(#SVGID_00000147211062961649874680000000236327750889427871_);" d="M1325.9,226.6v-3.5h18.6v22.5h-3.5v-7.4
		c-1.6,2.8-3.7,4.9-6.3,6.4c-2.6,1.5-5.9,2.2-10,2.2c-5.7,0-10.3-2-13.8-6c-3.5-4-5.2-9.7-5.2-17.2c0-3.3,0.4-6.3,1.2-9
		c0.8-2.7,2.1-5.1,3.8-7.2c1.7-2.1,3.8-3.7,6.3-4.8c2.5-1.1,5.5-1.7,8.8-1.7c4.7,0,8.7,1.2,12,3.5c3.2,2.3,5.3,5.8,6.3,10.3h-4.2
		c-0.7-3.2-2.3-5.7-4.8-7.5c-2.5-1.8-5.5-2.8-8.8-2.8c-2.8,0-5.3,0.5-7.3,1.5c-2.1,1-3.8,2.4-5.1,4.2c-1.3,1.8-2.3,4-3,6.6
		c-0.6,2.5-1,5.4-1,8.5c0,2.4,0.4,4.7,1.1,6.9c0.7,2.2,1.7,4.1,3.1,5.8c1.4,1.7,3,3,5,3.9c2,1,4.2,1.4,6.6,1.4
		c2.7,0,5.2-0.6,7.6-1.8c2.4-1.2,4.2-3.2,5.6-5.8c1.2-2.3,1.8-5.3,1.9-9H1325.9z"/>
</g>
<rect x="629.3" y="32.1" class="st15" width="30.8" height="105.2"/>
<rect x="725.2" y="19.6" class="st15" width="30.6" height="148.5"/>
<rect x="676.8" y="71.6" class="st15" width="30.2" height="48.2"/>
<g>
	
		<linearGradient id="SVGID_00000006693053024579985570000017866331213901540488_" gradientUnits="userSpaceOnUse" x1="275.9288" y1="119.3021" x2="1211.4543" y2="269.5471">
		<stop  offset="0" style="stop-color:#43375E"/>
		<stop  offset="1" style="stop-color:#61375C"/>
	</linearGradient>
	<polygon style="fill:url(#SVGID_00000006693053024579985570000017866331213901540488_);" points="148.5,19.6 148.5,112.7 
		77.8,19.6 55.4,19.6 55.4,168.1 85.9,168.1 85.9,74.7 156.6,168.1 179,168.1 179,19.6 	"/>
	
		<linearGradient id="SVGID_00000157295151828188364310000014096098499093973944_" gradientUnits="userSpaceOnUse" x1="280.6073" y1="90.1706" x2="1216.1328" y2="240.4156">
		<stop  offset="0" style="stop-color:#43375E"/>
		<stop  offset="1" style="stop-color:#61375C"/>
	</linearGradient>
	<polygon style="fill:url(#SVGID_00000157295151828188364310000014096098499093973944_);" points="288.2,111.2 339.1,111.2 
		339.1,85.3 288.2,85.3 288.2,45.4 348.9,45.4 348.9,19.6 257.7,19.6 257.7,168.1 350.8,168.1 350.8,142.2 288.2,142.2 	"/>
	
		<linearGradient id="SVGID_00000097479612906690490960000010057746416573902259_" gradientUnits="userSpaceOnUse" x1="285.3518" y1="60.6281" x2="1220.8773" y2="210.8731">
		<stop  offset="0" style="stop-color:#43375E"/>
		<stop  offset="1" style="stop-color:#61375C"/>
	</linearGradient>
	<path style="fill:url(#SVGID_00000097479612906690490960000010057746416573902259_);" d="M492,17c-44.6,0-79.6,31.8-79.6,76.8
		c0,45,35,76.8,79.6,76.8c44.5,0,79.6-31.8,79.6-76.8C571.5,48.8,536.5,17,492,17 M492,144.3c-26.9,0-48.6-20.6-48.6-50.5
		S465,43.3,492,43.3c26.9,0,48.6,20.6,48.6,50.5S518.9,144.3,492,144.3"/>
	
		<linearGradient id="SVGID_00000044873509372350520300000001966212451693255554_" gradientUnits="userSpaceOnUse" x1="294.5461" y1="3.3781" x2="1230.0717" y2="153.6231">
		<stop  offset="0" style="stop-color:#43375E"/>
		<stop  offset="1" style="stop-color:#61375C"/>
	</linearGradient>
	<polygon style="fill:url(#SVGID_00000044873509372350520300000001966212451693255554_);" points="875.4,19.6 815.3,168.1 
		847.1,168.1 855.6,146 865.4,120.5 887.7,62.8 909.9,120.5 919.7,146 928.2,168.1 960,168.1 900,19.6 	"/>
	
		<linearGradient id="SVGID_00000103243569842886924960000001720033861931746226_" gradientUnits="userSpaceOnUse" x1="300.3233" y1="-32.5946" x2="1235.8489" y2="117.6504">
		<stop  offset="0" style="stop-color:#43375E"/>
		<stop  offset="1" style="stop-color:#61375C"/>
	</linearGradient>
	<path style="fill:url(#SVGID_00000103243569842886924960000001720033861931746226_);" d="M1087.4,43.3c18.7,0,35.6,10.4,43.7,27.6
		h32.7c-9.5-32.9-40.5-53.9-76.4-53.9c-43.9,0-79.6,31.2-79.6,76.8c0,45.6,35.6,76.8,79.6,76.8c35.9,0,66.8-21,76.4-53.9h-32.7
		c-8.1,17.2-25,27.6-43.7,27.6c-26.3,0-48.6-20.2-48.6-50.5C1038.8,63.5,1061.1,43.3,1087.4,43.3"/>
	
		<linearGradient id="SVGID_00000003789635341359602220000011727459983478997674_" gradientUnits="userSpaceOnUse" x1="305.4178" y1="-64.3165" x2="1240.9434" y2="85.9285">
		<stop  offset="0" style="stop-color:#43375E"/>
		<stop  offset="1" style="stop-color:#61375C"/>
	</linearGradient>
	<polygon style="fill:url(#SVGID_00000003789635341359602220000011727459983478997674_);" points="1293.7,96.4 1348.3,19.6 
		1312.6,19.6 1262.3,92.5 1262.3,19.6 1231.8,19.6 1231.8,168.1 1262.3,168.1 1262.3,102.7 1319,168.1 1357.2,168.1 	"/>
</g>
</svg>
