<svg xmlns="http://www.w3.org/2000/svg" width="68.308" height="61.279" viewBox="0 0 68.308 61.279">
  <g id="tecnico_icone" transform="translate(-21.877 -11.065)">
    <g id="Grupo_290" data-name="Grupo 290" transform="translate(7.88 -5.228)">
      <path id="Caminho_65" data-name="Caminho 65" d="M91.475,89.977A48.1,48.1,0,0,1,82.02,88.9c-.169-.029-.34-.047-.51-.074a1.187,1.187,0,0,0-1.424.64,1.911,1.911,0,0,0,.13,1.426,12.868,12.868,0,0,1,1.725,4.192c.661,3.738-.1,7.077-3.126,9.564-3.812,3.131-9.9,2.137-13-2.02a13.948,13.948,0,0,1-2.477-8.175,25.326,25.326,0,0,1,.233-3.589c.18-1.6-.4-2.125-2-2.021-1.8.117-3.618.045-5.428.048a4.9,4.9,0,0,1-.658-.07,1.158,1.158,0,0,0-1.345.662,1.807,1.807,0,0,0,.118,1.365A12.468,12.468,0,0,1,56,94.789a10.959,10.959,0,0,1-.56,6.5c-2.316,5.58-9.716,6.964-14.3,2.679a12.282,12.282,0,0,1-3.728-8.848,29.326,29.326,0,0,1,.232-4.252c.164-1.593-.472-2.28-2.061-2-1.735.312-3.456.7-5.189,1.03a5.268,5.268,0,0,1-1.392.061,1.072,1.072,0,0,1-1.031-1.133,1.127,1.127,0,0,1,.981-1.187c2.12-.374,4.239-.752,6.36-1.121a4.255,4.255,0,0,1,3.226.676,3.074,3.074,0,0,1,1.493,2.783c-.031.831-.148,1.66-.217,2.489a13.851,13.851,0,0,0,1.3,7.728A6.916,6.916,0,0,0,48.705,104c3.05-.542,4.961-2.877,5.165-6.263a8.078,8.078,0,0,0-1.414-5.293,3.983,3.983,0,0,1-.82-2.756,3.555,3.555,0,0,1,3.515-3.215c.684-.008,1.37.129,2.055.123,1.467-.012,2.942,0,4.4-.132a3.741,3.741,0,0,1,4.348,4.026c-.063,1.832-.192,3.669-.116,5.5a9.777,9.777,0,0,0,1.446,4.663,7.137,7.137,0,0,0,7.721,3.3,6.394,6.394,0,0,0,4.8-6.073,9.47,9.47,0,0,0-1.392-5.4,5.693,5.693,0,0,1-.813-2.091,3.433,3.433,0,0,1,3.505-3.9c1.312.034,2.611.41,3.925.53,2.609.24,5.224.412,7.836.6.39.028.787-.013,1.177.023a1.121,1.121,0,0,1,1.066,1.183,1.108,1.108,0,0,1-1.1,1.146c-.808.032-1.619.008-2.532.008" transform="translate(-13.98 -28.91)" fill="#b3c5ce"/>
      <path id="Caminho_66" data-name="Caminho 66" d="M46.4,82.511a48.822,48.822,0,0,1,2.752-14.693,133.119,133.119,0,0,1,13.83-28.349c.477-.763,1.094-.942,1.724-.548s.723.965.285,1.8A119.449,119.449,0,0,0,56.09,62.213a56.488,56.488,0,0,0-2.6,15.029,9.36,9.36,0,0,0,1.534,5.71,5.432,5.432,0,0,1,.258,5.556c-1.087,2.353-4.431,2.792-6.553.912a7.173,7.173,0,0,1-2.14-4.64c-.125-.872-.146-1.758-.186-2.269M52.89,64.638a2.916,2.916,0,0,0-.207.345,54.551,54.551,0,0,0-3.86,15.847,12.92,12.92,0,0,0,.545,5.444,2.654,2.654,0,0,0,2.119,1.918,1.467,1.467,0,0,0,1.906-1.323,3.647,3.647,0,0,0-.578-3.074,8.246,8.246,0,0,1-1.552-4.142,36.161,36.161,0,0,1,.549-9.509c.294-1.8.7-3.589,1.079-5.506" transform="translate(-18.302 -17.717)" fill="#b3c5ce"/>
      <path id="Caminho_67" data-name="Caminho 67" d="M78.747,73.859a21.522,21.522,0,0,1,1.716-7.136,66.662,66.662,0,0,1,9.508-16.015,145.66,145.66,0,0,1,16.041-17.622,1.248,1.248,0,0,1,1.448-.419c.863.374.97,1.249.285,2.056-2.225,2.616-4.516,5.182-6.641,7.878A87.106,87.106,0,0,0,89.572,61.1a34.481,34.481,0,0,0-2.619,8.016,6.2,6.2,0,0,0,.3,3.327,5.94,5.94,0,0,1-.134,4.519,3.8,3.8,0,0,1-3.107,2.707,4.424,4.424,0,0,1-4.175-1.852,6.486,6.486,0,0,1-1.093-3.953m11.126-18.8a1.809,1.809,0,0,0-.284.205,54.548,54.548,0,0,0-7.456,13.775,14.969,14.969,0,0,0-1.02,5.383,2.713,2.713,0,0,0,1.955,2.863,1.289,1.289,0,0,0,1.578-.615,3.648,3.648,0,0,0,.481-3.1,11.092,11.092,0,0,1-.244-5.8A43.333,43.333,0,0,1,89.464,55.89c.119-.228.227-.463.409-.836" transform="translate(-25.887 -16.274)" fill="#b3c5ce"/>
      <path id="Caminho_68" data-name="Caminho 68" d="M105.778,58.857c-.713.115-1.259.2-1.8.292-.922.158-1.5-.157-1.643-.909-.143-.737.3-1.247,1.222-1.4q3.262-.55,6.524-1.105c1.222-.208,1.893.548,1.5,1.734q-1.087,3.316-2.208,6.622c-.285.845-.85,1.174-1.542.935-.709-.245-.954-.825-.684-1.669.349-1.086.711-2.169,1.01-3.283a17.416,17.416,0,0,0-3.917,4.341,19.974,19.974,0,0,0-3.089,8.645c-.129,1.085-.557,1.548-1.343,1.453-.819-.1-1.125-.685-.987-1.8a22.314,22.314,0,0,1,6.572-13.406c.1-.1.179-.209.383-.449" transform="translate(-30.588 -21.699)" fill="#b3c5ce"/>
    </g>
  </g>
</svg>
