<svg xmlns="http://www.w3.org/2000/svg" width="18.916" height="18.916" viewBox="0 0 18.916 18.916">
  <path id="Icon_ionic-logo-whatsapp" data-name="Icon ionic-logo-whatsapp" d="M11.88,2.25a9.251,9.251,0,0,0-9.286,9.215,9.119,9.119,0,0,0,1.333,4.758L2.25,21.166l5.141-1.633a9.3,9.3,0,0,0,13.775-8.068A9.251,9.251,0,0,0,11.88,2.25ZM16.5,14.964a2.4,2.4,0,0,1-1.642,1.059c-.436.023-.448.338-2.822-.694a9.689,9.689,0,0,1-3.915-3.7,4.554,4.554,0,0,1-.876-2.468,2.631,2.631,0,0,1,.9-1.931.909.909,0,0,1,.643-.271c.187,0,.308-.006.446,0s.346-.029.526.449.61,1.653.665,1.773a.43.43,0,0,1,0,.413,1.613,1.613,0,0,1-.252.384c-.124.133-.261.3-.371.4s-.252.235-.122.476a7.106,7.106,0,0,0,1.257,1.678A6.479,6.479,0,0,0,12.8,13.766c.233.127.372.113.516-.039s.618-.665.785-.894.323-.185.538-.1,1.358.7,1.591.826.388.191.444.291A1.95,1.95,0,0,1,16.5,14.964Z" transform="translate(-2.25 -2.25)" fill="#2d3643"/>
</svg>
